G04 Layer_Color=128*
%FSLAX24Y24*%
%MOIN*%
G70*
G01*
G75*
%ADD70C,0.0020*%
D70*
X13703Y13400D02*
X14097D01*
X13900Y13203D02*
Y13597D01*
X14703Y13400D02*
X15097D01*
X14900Y13203D02*
Y13597D01*
X15703Y13400D02*
X16097D01*
X15900Y13203D02*
Y13597D01*
X16703Y13400D02*
X17097D01*
X16900Y13203D02*
Y13597D01*
X20973Y5900D02*
X21327D01*
X21150Y5723D02*
Y6077D01*
X20973Y6900D02*
X21327D01*
X21150Y6723D02*
Y7077D01*
X20973Y7900D02*
X21327D01*
X21150Y7723D02*
Y8077D01*
X20973Y8900D02*
X21327D01*
X21150Y8723D02*
Y9077D01*
X21000Y9900D02*
X21300D01*
X21150Y9750D02*
Y10050D01*
X18255Y10600D02*
X18845D01*
X18550Y10305D02*
Y10895D01*
X18255Y3300D02*
X18845D01*
X18550Y3005D02*
Y3595D01*
X21000Y4900D02*
X21300D01*
X21150Y4750D02*
Y5050D01*
X20973Y3900D02*
X21327D01*
X21150Y3723D02*
Y4077D01*
X22973Y10400D02*
X23327D01*
X23150Y10223D02*
Y10577D01*
X22973Y9400D02*
X23327D01*
X23150Y9223D02*
Y9577D01*
X22973Y8400D02*
X23327D01*
X23150Y8223D02*
Y8577D01*
X22973Y7400D02*
X23327D01*
X23150Y7223D02*
Y7577D01*
X22973Y6400D02*
X23327D01*
X23150Y6223D02*
Y6577D01*
X22973Y5400D02*
X23327D01*
X23150Y5223D02*
Y5577D01*
X22973Y4400D02*
X23327D01*
X23150Y4223D02*
Y4577D01*
X22973Y3400D02*
X23327D01*
X23150Y3223D02*
Y3577D01*
X19223Y15241D02*
X19578D01*
X19401Y15063D02*
Y15418D01*
X14302Y15241D02*
X14657D01*
X14479Y15063D02*
Y15418D01*
X19223Y16641D02*
X19578D01*
X19401Y16463D02*
Y16818D01*
X14302Y16641D02*
X14657D01*
X14479Y16463D02*
Y16818D01*
X19173Y17991D02*
X19528D01*
X19351Y17813D02*
Y18168D01*
X14252Y17991D02*
X14607D01*
X14429Y17813D02*
Y18168D01*
X19173Y19341D02*
X19528D01*
X19351Y19163D02*
Y19518D01*
X14252Y19341D02*
X14607D01*
X14429Y19163D02*
Y19518D01*
X19173Y20691D02*
X19528D01*
X19351Y20513D02*
Y20868D01*
X14252Y20691D02*
X14607D01*
X14429Y20513D02*
Y20868D01*
X19173Y22041D02*
X19528D01*
X19351Y21863D02*
Y22218D01*
X14252Y22041D02*
X14607D01*
X14429Y21863D02*
Y22218D01*
X19173Y23391D02*
X19528D01*
X19351Y23213D02*
Y23568D01*
X14252Y23391D02*
X14607D01*
X14429Y23213D02*
Y23568D01*
X19173Y24741D02*
X19528D01*
X19351Y24563D02*
Y24918D01*
X14252Y24741D02*
X14607D01*
X14429Y24563D02*
Y24918D01*
X2675Y8300D02*
X3025D01*
X2850Y8125D02*
Y8475D01*
X2675Y9300D02*
X3025D01*
X2850Y9125D02*
Y9475D01*
X2675Y6400D02*
X3025D01*
X2850Y6225D02*
Y6575D01*
X2675Y5400D02*
X3025D01*
X2850Y5225D02*
Y5575D01*
X12443Y5900D02*
X12757D01*
X12600Y5743D02*
Y6057D01*
X12443Y6900D02*
X12757D01*
X12600Y6743D02*
Y7057D01*
X12443Y7900D02*
X12757D01*
X12600Y7743D02*
Y8057D01*
X12443Y8900D02*
X12757D01*
X12600Y8743D02*
Y9057D01*
X12443Y9900D02*
X12757D01*
X12600Y9743D02*
Y10057D01*
X12443Y10900D02*
X12757D01*
X12600Y10743D02*
Y11057D01*
X12443Y11900D02*
X12757D01*
X12600Y11743D02*
Y12057D01*
X12443Y12900D02*
X12757D01*
X12600Y12743D02*
Y13057D01*
X12443Y13900D02*
X12757D01*
X12600Y13743D02*
Y14057D01*
X12443Y14900D02*
X12757D01*
X12600Y14743D02*
Y15057D01*
X12443Y15900D02*
X12757D01*
X12600Y15743D02*
Y16057D01*
X12443Y16900D02*
X12757D01*
X12600Y16743D02*
Y17057D01*
X12443Y17900D02*
X12757D01*
X12600Y17743D02*
Y18057D01*
X12443Y18900D02*
X12757D01*
X12600Y18743D02*
Y19057D01*
X12443Y19900D02*
X12757D01*
X12600Y19743D02*
Y20057D01*
X12443Y20900D02*
X12757D01*
X12600Y20743D02*
Y21057D01*
X12443Y21900D02*
X12757D01*
X12600Y21743D02*
Y22057D01*
X12443Y22900D02*
X12757D01*
X12600Y22743D02*
Y23057D01*
X12443Y23900D02*
X12757D01*
X12600Y23743D02*
Y24057D01*
X12443Y24900D02*
X12757D01*
X12600Y24743D02*
Y25057D01*
X6443Y5900D02*
X6757D01*
X6600Y5743D02*
Y6057D01*
X6443Y6900D02*
X6757D01*
X6600Y6743D02*
Y7057D01*
X6443Y7900D02*
X6757D01*
X6600Y7743D02*
Y8057D01*
X6443Y8900D02*
X6757D01*
X6600Y8743D02*
Y9057D01*
X6443Y9900D02*
X6757D01*
X6600Y9743D02*
Y10057D01*
X6443Y10900D02*
X6757D01*
X6600Y10743D02*
Y11057D01*
X6443Y11900D02*
X6757D01*
X6600Y11743D02*
Y12057D01*
X6443Y12900D02*
X6757D01*
X6600Y12743D02*
Y13057D01*
X6443Y13900D02*
X6757D01*
X6600Y13743D02*
Y14057D01*
X6443Y14900D02*
X6757D01*
X6600Y14743D02*
Y15057D01*
X6443Y15900D02*
X6757D01*
X6600Y15743D02*
Y16057D01*
X6443Y16900D02*
X6757D01*
X6600Y16743D02*
Y17057D01*
X6443Y17900D02*
X6757D01*
X6600Y17743D02*
Y18057D01*
X6443Y18900D02*
X6757D01*
X6600Y18743D02*
Y19057D01*
X6443Y19900D02*
X6757D01*
X6600Y19743D02*
Y20057D01*
X6443Y20900D02*
X6757D01*
X6600Y20743D02*
Y21057D01*
X6443Y21900D02*
X6757D01*
X6600Y21743D02*
Y22057D01*
X6443Y22900D02*
X6757D01*
X6600Y22743D02*
Y23057D01*
X6443Y23900D02*
X6757D01*
X6600Y23743D02*
Y24057D01*
X6443Y24900D02*
X6757D01*
X6600Y24743D02*
Y25057D01*
X27825Y1950D02*
X29075D01*
X28450Y1325D02*
Y2575D01*
X28873Y6000D02*
X29227D01*
X29050Y5823D02*
Y6177D01*
X28873Y7000D02*
X29227D01*
X29050Y6823D02*
Y7177D01*
X28873Y9200D02*
X29227D01*
X29050Y9023D02*
Y9377D01*
X28873Y8200D02*
X29227D01*
X29050Y8023D02*
Y8377D01*
X7753Y27600D02*
X8147D01*
X7950Y27403D02*
Y27797D01*
X6753Y27600D02*
X7147D01*
X6950Y27403D02*
Y27797D01*
X5403Y27600D02*
X5797D01*
X5600Y27403D02*
Y27797D01*
X4403Y27600D02*
X4797D01*
X4600Y27403D02*
Y27797D01*
X12003Y27600D02*
X12397D01*
X12200Y27403D02*
Y27797D01*
X11003Y27600D02*
X11397D01*
X11200Y27403D02*
Y27797D01*
X10003Y27600D02*
X10397D01*
X10200Y27403D02*
Y27797D01*
X9003Y27600D02*
X9397D01*
X9200Y27403D02*
Y27797D01*
X17453Y27600D02*
X17847D01*
X17650Y27403D02*
Y27797D01*
X18453Y27600D02*
X18847D01*
X18650Y27403D02*
Y27797D01*
X19453Y27600D02*
X19847D01*
X19650Y27403D02*
Y27797D01*
X20453Y27600D02*
X20847D01*
X20650Y27403D02*
Y27797D01*
X13253Y27600D02*
X13647D01*
X13450Y27403D02*
Y27797D01*
X14253Y27600D02*
X14647D01*
X14450Y27403D02*
Y27797D01*
X15253Y27600D02*
X15647D01*
X15450Y27403D02*
Y27797D01*
X16253Y27600D02*
X16647D01*
X16450Y27403D02*
Y27797D01*
X3217Y23150D02*
X3611D01*
X3414Y22953D02*
Y23347D01*
X4103Y23150D02*
X4497D01*
X4300Y22953D02*
Y23347D01*
X4989Y23150D02*
X5383D01*
X5186Y22953D02*
Y23347D01*
X3257Y25450D02*
X3611D01*
X3434Y25273D02*
Y25627D01*
X3257Y26237D02*
X3611D01*
X3434Y26060D02*
Y26415D01*
X1289Y24663D02*
X1643D01*
X1466Y24485D02*
Y24840D01*
X1289Y25450D02*
X1643D01*
X1466Y25273D02*
Y25627D01*
X1289Y26237D02*
X1643D01*
X1466Y26060D02*
Y26415D01*
X3257Y24663D02*
X3611D01*
X3434Y24485D02*
Y24840D01*
X1985Y22250D02*
X2300D01*
X2142Y22093D02*
Y22407D01*
X1000Y22250D02*
X1315D01*
X1158Y22093D02*
Y22407D01*
X4243Y21000D02*
X4557D01*
X4400Y20843D02*
Y21157D01*
X3258Y21000D02*
X3573D01*
X3416Y20843D02*
Y21157D01*
X4753Y16900D02*
X5147D01*
X4950Y16703D02*
Y17097D01*
X4753Y15900D02*
X5147D01*
X4950Y15703D02*
Y16097D01*
X4753Y14900D02*
X5147D01*
X4950Y14703D02*
Y15097D01*
X4753Y13900D02*
X5147D01*
X4950Y13703D02*
Y14097D01*
X2027Y20200D02*
X2342D01*
X2184Y20043D02*
Y20357D01*
X1043Y20200D02*
X1357D01*
X1200Y20043D02*
Y20357D01*
X4343Y6400D02*
X4657D01*
X4500Y6243D02*
Y6557D01*
X4343Y8400D02*
X4657D01*
X4500Y8243D02*
Y8557D01*
X14203Y5900D02*
X14597D01*
X14400Y5703D02*
Y6097D01*
X14203Y6900D02*
X14597D01*
X14400Y6703D02*
Y7097D01*
X14203Y7900D02*
X14597D01*
X14400Y7703D02*
Y8097D01*
X14203Y8900D02*
X14597D01*
X14400Y8703D02*
Y9097D01*
X4753Y12700D02*
X5147D01*
X4950Y12503D02*
Y12897D01*
X4753Y11700D02*
X5147D01*
X4950Y11503D02*
Y11897D01*
X4753Y10700D02*
X5147D01*
X4950Y10503D02*
Y10897D01*
X27523Y4700D02*
X27877D01*
X27700Y4523D02*
Y4877D01*
X26523Y4700D02*
X26877D01*
X26700Y4523D02*
Y4877D01*
X26623Y6500D02*
X26977D01*
X26800Y6323D02*
Y6677D01*
X27623Y6500D02*
X27977D01*
X27800Y6323D02*
Y6677D01*
X27473Y8250D02*
X27827D01*
X27650Y8073D02*
Y8427D01*
X26473Y8250D02*
X26827D01*
X26650Y8073D02*
Y8427D01*
X26573Y9950D02*
X26927D01*
X26750Y9773D02*
Y10127D01*
X27573Y9950D02*
X27927D01*
X27750Y9773D02*
Y10127D01*
X1375Y29650D02*
X2625D01*
X2000Y29025D02*
Y30275D01*
X27575Y29650D02*
X28825D01*
X28200Y29025D02*
Y30275D01*
X1275Y2000D02*
X2525D01*
X1900Y1375D02*
Y2625D01*
X26143Y22450D02*
X26457D01*
X26300Y22293D02*
Y22607D01*
X26143Y21450D02*
X26457D01*
X26300Y21293D02*
Y21607D01*
X26143Y20450D02*
X26457D01*
X26300Y20293D02*
Y20607D01*
X26143Y19450D02*
X26457D01*
X26300Y19293D02*
Y19607D01*
X26143Y18450D02*
X26457D01*
X26300Y18293D02*
Y18607D01*
X26143Y17450D02*
X26457D01*
X26300Y17293D02*
Y17607D01*
X22143Y17450D02*
X22457D01*
X22300Y17293D02*
Y17607D01*
X22143Y18450D02*
X22457D01*
X22300Y18293D02*
Y18607D01*
X22143Y19450D02*
X22457D01*
X22300Y19293D02*
Y19607D01*
X22143Y20450D02*
X22457D01*
X22300Y20293D02*
Y20607D01*
X22143Y21450D02*
X22457D01*
X22300Y21293D02*
Y21607D01*
X22143Y22450D02*
X22457D01*
X22300Y22293D02*
Y22607D01*
X8515Y2164D02*
X8908D01*
X8711Y1967D02*
Y2361D01*
X8515Y3936D02*
X8908D01*
X8711Y3739D02*
Y4133D01*
X11192Y3936D02*
X11585D01*
X11389Y3739D02*
Y4133D01*
X11192Y2164D02*
X11585D01*
X11389Y1967D02*
Y2361D01*
X4815Y2164D02*
X5208D01*
X5011Y1967D02*
Y2361D01*
X4815Y3936D02*
X5208D01*
X5011Y3739D02*
Y4133D01*
X7492Y3936D02*
X7885D01*
X7689Y3739D02*
Y4133D01*
X7492Y2164D02*
X7885D01*
X7689Y1967D02*
Y2361D01*
X12165Y2164D02*
X12558D01*
X12361Y1967D02*
Y2361D01*
X12165Y3936D02*
X12558D01*
X12361Y3739D02*
Y4133D01*
X14842Y3936D02*
X15235D01*
X15039Y3739D02*
Y4133D01*
X14842Y2164D02*
X15235D01*
X15039Y1967D02*
Y2361D01*
X25740Y10550D02*
X25860D01*
X25800Y10490D02*
Y10610D01*
X24940Y9250D02*
X25060D01*
X25000Y9190D02*
Y9310D01*
X24740Y6600D02*
X24860D01*
X24800Y6540D02*
Y6660D01*
X24040Y5350D02*
X24160D01*
X24100Y5290D02*
Y5410D01*
X24940Y7300D02*
X25060D01*
X25000Y7240D02*
Y7360D01*
X23690Y11100D02*
X23810D01*
X23750Y11040D02*
Y11160D01*
X24365Y3125D02*
X24485D01*
X24425Y3065D02*
Y3185D01*
M02*
