M48
;Layer_Color=9474304
;FILE_FORMAT=2:5
INCH,LZ
;TYPE=PLATED
T1F00S00C0.02800
T2F00S00C0.03000
T3F00S00C0.03150
T4F00S00C0.03543
T5F00S00C0.03937
T6F00S00C0.05512
T7F00S00C0.05906
T8F00S00C0.12500
%
T01
X0439Y0172
X0438Y0195
Y0204
Y02125
Y023
X045675Y024545
X0426Y0255
X02386Y0354
X02891Y04185
X0375Y0433
X0389Y0431
Y0408
X0343Y0354
Y0346
T02
X0398Y0191
Y0241
T03
X0214Y0192157
X0214Y0211842
X0214Y022
X0214Y0239685
X0234Y0227
Y0207
X02499Y02115
Y02015
Y02215
Y02315
Y02415
Y02515
Y02615
Y02715
Y02815
Y02915
Y03015
Y03115
X03099
Y03015
Y02915
Y02815
Y02715
Y02615
Y02515
Y02415
Y02315
Y02215
Y02115
Y02015
Y03215
Y03315
Y03415
Y03515
Y03615
Y03715
Y03815
Y03915
X0311Y0447
X0301
X02499Y03915
Y03815
Y03715
Y03615
Y03515
Y03415
Y03315
Y03215
X0219921Y037
X0210079
X0321Y0447
X0331
X0341
X0351
Y0487
X0341
X0331
X0321
X0311
X0301
T04
X04784Y0184
Y02005
Y02175
Y02375
X0486Y027
X0496
X0468
X0458
X04684Y02375
Y02175
Y02005
Y0184
X0418Y0186
Y0196
Y0206
Y0216
Y0226
Y0236
Y0246
X0398Y0231
Y0221
Y0211
Y0201
Y0181
X0418Y0176
X0375006Y02895
Y03035
X0325794
Y02895
X0147458Y0435826
Y04437
Y0451574
X0167142
Y04437
Y0435826
X0325294Y03845
Y0371
Y03575
Y0344
Y03305
Y0317
X0374506
Y03305
Y0344
Y03575
Y0371
Y03845
T05
X0164Y0154
X0224928Y0141642
X02517
X0264414
X0291186
X0305514
X0332286
Y0159358
X03239Y02014
Y02114
Y02214
Y02314
X0305514Y0159358
X0291186
X0264414
X02517
X0224928
X0164Y0164
Y0174
Y0184
Y0198
Y0208
Y0218
Y0228
X02304Y02815
Y02915
Y03015
Y03115
X0155142Y0406
X0135Y0409
Y0399
Y0419
Y0429
X0164Y0406
X0172858
X01769Y04668
X01669
X0202
X0212
X0419Y034
Y033
Y032
T06
X0181Y0283
X0151079
X0151039Y035215
X0180961
T07
X0372Y0175
Y0248
T08
X01389Y01327
X04962Y0135
X04936Y0488
X01419
M30
