G04 Layer_Color=65535*
%FSLAX24Y24*%
%MOIN*%
G70*
G01*
G75*
%ADD14C,0.0100*%
%ADD39C,0.0079*%
%ADD40C,0.0197*%
%ADD41C,0.0150*%
%ADD42C,0.0394*%
%ADD43C,0.0200*%
%ADD44C,0.0059*%
%ADD45C,0.0120*%
%ADD46C,0.0080*%
%ADD47C,0.0060*%
%ADD48C,0.0040*%
D14*
X51195Y13500D02*
G03*
X51195Y13500I-1575J0D01*
G01*
X15510Y44000D02*
G03*
X15510Y44000I-30J0D01*
G01*
Y44750D02*
G03*
X15510Y44750I-30J0D01*
G01*
X15310Y44370D02*
G03*
X15310Y44370I-30J0D01*
G01*
X16210D02*
G03*
X16210Y44370I-30J0D01*
G01*
X16010Y44750D02*
G03*
X16010Y44750I-30J0D01*
G01*
Y44000D02*
G03*
X16010Y44000I-30J0D01*
G01*
X22570Y20361D02*
G03*
X24337Y20304I882J-57D01*
G01*
X24337Y23139D02*
G03*
X22570Y23196I-882J57D01*
G01*
X15465Y13270D02*
G03*
X15465Y13270I-1575J0D01*
G01*
X15765Y48800D02*
G03*
X15765Y48800I-1575J0D01*
G01*
X27740Y39650D02*
G03*
X28240Y39650I250J0D01*
G01*
X46677Y17996D02*
G03*
X46663Y18789I669J408D01*
G01*
X48003Y20454D02*
G03*
X48017Y19661I-669J-408D01*
G01*
X46677Y21346D02*
G03*
X46663Y22139I669J408D01*
G01*
X48003Y24154D02*
G03*
X48017Y23361I-669J-408D01*
G01*
X50935Y48800D02*
G03*
X50935Y48800I-1575J0D01*
G01*
X38200Y17150D02*
Y25050D01*
Y17150D02*
X39150D01*
X38200Y25050D02*
X39150D01*
X37950Y16750D02*
X41150D01*
Y16550D02*
Y16750D01*
X37950Y16550D02*
X41150D01*
X37950Y25500D02*
X41150D01*
Y25700D01*
X41050D02*
X41150D01*
X37950D02*
X41050D01*
X34750Y16550D02*
Y25700D01*
Y16550D02*
X37950D01*
Y17400D02*
Y25700D01*
X34750D02*
X37950D01*
Y17000D02*
Y17400D01*
Y16550D02*
Y17000D01*
X39150Y25050D02*
X40200D01*
Y24700D02*
Y25050D01*
X39150Y17150D02*
X40200D01*
Y17500D01*
X24600Y44100D02*
Y49300D01*
Y44100D02*
X40600D01*
Y49300D01*
X24600D02*
X40600D01*
X22570Y20283D02*
Y23196D01*
X24337Y20225D02*
Y23139D01*
X30490Y14650D02*
Y15450D01*
X33290Y14650D02*
Y15450D01*
X30990Y16150D02*
X32790D01*
X30990Y13950D02*
X32790D01*
X31190Y14550D02*
Y14840D01*
Y14550D02*
X32590D01*
Y14840D01*
X31600Y15450D02*
X32190D01*
X31890Y14990D02*
Y15250D01*
Y14550D02*
Y14810D01*
X26380Y14650D02*
Y15450D01*
X29180Y14650D02*
Y15450D01*
X26880Y16150D02*
X28680D01*
X26880Y13950D02*
X28680D01*
X27080Y14550D02*
Y14840D01*
Y14550D02*
X28480D01*
Y14840D01*
X27490Y15450D02*
X28080D01*
X27780Y14990D02*
Y15250D01*
Y14550D02*
Y14810D01*
X22431Y14650D02*
Y15450D01*
X25231Y14650D02*
Y15450D01*
X22931Y16150D02*
X24731D01*
X22931Y13950D02*
X24731D01*
X23131Y14550D02*
Y14840D01*
Y14550D02*
X24531D01*
Y14840D01*
X23541Y15450D02*
X24131D01*
X23831Y14990D02*
Y15250D01*
Y14550D02*
Y14810D01*
X25840Y19650D02*
Y39650D01*
Y19650D02*
X30140D01*
Y39650D01*
X28240D02*
X30140D01*
X25840D02*
X27740D01*
X43880Y23720D02*
Y24080D01*
Y23720D02*
X44050Y23550D01*
X44575D01*
X44050Y24250D02*
X44575D01*
X43880Y24080D02*
X44050Y24250D01*
X44844Y23583D02*
Y24231D01*
X46075Y23550D02*
Y24250D01*
X45425D02*
X46075D01*
X45425Y23550D02*
X46075D01*
X44844Y23915D02*
X45164Y23595D01*
Y24212D01*
X44860Y23908D02*
X45164Y24212D01*
X43880Y22820D02*
Y23180D01*
Y22820D02*
X44050Y22650D01*
X44575D01*
X44050Y23350D02*
X44575D01*
X43880Y23180D02*
X44050Y23350D01*
X44844Y22683D02*
Y23331D01*
X46075Y22650D02*
Y23350D01*
X45425D02*
X46075D01*
X45425Y22650D02*
X46075D01*
X44844Y23015D02*
X45164Y22695D01*
Y23312D01*
X44860Y23008D02*
X45164Y23312D01*
X43920Y21920D02*
Y22280D01*
Y21920D02*
X44090Y21750D01*
X44615D01*
X44090Y22450D02*
X44615D01*
X43920Y22280D02*
X44090Y22450D01*
X44884Y21783D02*
Y22431D01*
X46115Y21750D02*
Y22450D01*
X45465D02*
X46115D01*
X45465Y21750D02*
X46115D01*
X44884Y22115D02*
X45204Y21795D01*
Y22412D01*
X44900Y22108D02*
X45204Y22412D01*
X43920Y21070D02*
Y21430D01*
Y21070D02*
X44090Y20900D01*
X44615D01*
X44090Y21600D02*
X44615D01*
X43920Y21430D02*
X44090Y21600D01*
X44884Y20933D02*
Y21581D01*
X46115Y20900D02*
Y21600D01*
X45465D02*
X46115D01*
X45465Y20900D02*
X46115D01*
X44884Y21265D02*
X45204Y20945D01*
Y21562D01*
X44900Y21258D02*
X45204Y21562D01*
X46120Y20220D02*
Y20580D01*
X45950Y20750D02*
X46120Y20580D01*
X45425Y20750D02*
X45950D01*
X45425Y20050D02*
X45950D01*
X46120Y20220D01*
X45156Y20069D02*
Y20717D01*
X43925Y20050D02*
Y20750D01*
Y20050D02*
X44575D01*
X43925Y20750D02*
X44575D01*
X44836Y20705D02*
X45156Y20385D01*
X44836Y20088D02*
Y20705D01*
Y20088D02*
X45140Y20392D01*
X46120Y19320D02*
Y19680D01*
X45950Y19850D02*
X46120Y19680D01*
X45425Y19850D02*
X45950D01*
X45425Y19150D02*
X45950D01*
X46120Y19320D01*
X45156Y19169D02*
Y19817D01*
X43925Y19150D02*
Y19850D01*
Y19150D02*
X44575D01*
X43925Y19850D02*
X44575D01*
X44836Y19805D02*
X45156Y19485D01*
X44836Y19188D02*
Y19805D01*
Y19188D02*
X45140Y19492D01*
X46120Y17420D02*
Y17780D01*
X45950Y17950D02*
X46120Y17780D01*
X45425Y17950D02*
X45950D01*
X45425Y17250D02*
X45950D01*
X46120Y17420D01*
X45156Y17269D02*
Y17917D01*
X43925Y17250D02*
Y17950D01*
Y17250D02*
X44575D01*
X43925Y17950D02*
X44575D01*
X44836Y17905D02*
X45156Y17585D01*
X44836Y17288D02*
Y17905D01*
Y17288D02*
X45140Y17592D01*
X46120Y18420D02*
Y18780D01*
X45950Y18950D02*
X46120Y18780D01*
X45425Y18950D02*
X45950D01*
X45425Y18250D02*
X45950D01*
X46120Y18420D01*
X45156Y18269D02*
Y18917D01*
X43925Y18250D02*
Y18950D01*
Y18250D02*
X44575D01*
X43925Y18950D02*
X44575D01*
X44836Y18905D02*
X45156Y18585D01*
X44836Y18288D02*
Y18905D01*
Y18288D02*
X45140Y18592D01*
X46990Y17750D02*
Y19100D01*
X47090Y17700D02*
Y19100D01*
X47190Y17650D02*
Y19150D01*
X46670Y18000D02*
Y18780D01*
X46990Y17750D02*
Y19100D01*
X46940Y17800D02*
X46990Y17750D01*
X46940Y17800D02*
Y19050D01*
X46840Y17850D02*
Y19000D01*
X46740Y17900D02*
Y18900D01*
X46840Y19000D01*
X46890Y17800D02*
X46940D01*
X46840Y17850D02*
X46890Y17800D01*
X47690Y19350D02*
Y20700D01*
X47590Y19350D02*
Y20750D01*
X47490Y19300D02*
Y20800D01*
X48010Y19670D02*
Y20450D01*
X47690Y19350D02*
Y20700D01*
X47740Y20650D01*
Y19400D02*
Y20650D01*
X47840Y19450D02*
Y20600D01*
X47940Y19550D02*
Y20550D01*
X47840Y19450D02*
X47940Y19550D01*
X47740Y20650D02*
X47790D01*
X47840Y20600D01*
X46990Y21100D02*
Y22450D01*
X47090Y21050D02*
Y22450D01*
X47190Y21000D02*
Y22500D01*
X46670Y21350D02*
Y22130D01*
X46990Y21100D02*
Y22450D01*
X46940Y21150D02*
X46990Y21100D01*
X46940Y21150D02*
Y22400D01*
X46840Y21200D02*
Y22350D01*
X46740Y21250D02*
Y22250D01*
X46840Y22350D01*
X46890Y21150D02*
X46940D01*
X46840Y21200D02*
X46890Y21150D01*
X47690Y23050D02*
Y24400D01*
X47590Y23050D02*
Y24450D01*
X47490Y23000D02*
Y24500D01*
X48010Y23370D02*
Y24150D01*
X47690Y23050D02*
Y24400D01*
X47740Y24350D01*
Y23100D02*
Y24350D01*
X47840Y23150D02*
Y24300D01*
X47940Y23250D02*
Y24250D01*
X47840Y23150D02*
X47940Y23250D01*
X47740Y24350D02*
X47790D01*
X47840Y24300D01*
D39*
X21073Y20916D02*
G03*
X20977Y19536I327J-716D01*
G01*
X21823D02*
G03*
X21727Y20916I-423J664D01*
G01*
Y22268D02*
G03*
X21823Y23648I-327J716D01*
G01*
X20977D02*
G03*
X21073Y22268I423J-664D01*
G01*
X22465Y37000D02*
G03*
X22465Y37000I-984J0D01*
G01*
X21500Y36020D02*
Y37950D01*
Y37700D02*
X21700Y37900D01*
X21500Y37300D02*
X22000Y37800D01*
X21500Y36900D02*
X22225Y37625D01*
X21500Y36500D02*
X22375Y37375D01*
X21500Y36100D02*
X22460Y37060D01*
X21925Y36125D02*
X22340Y36540D01*
X48100Y26500D02*
Y27500D01*
X50100D01*
Y26500D02*
Y27500D01*
X48100Y26500D02*
X50100D01*
X45300D02*
Y27500D01*
X47300D01*
Y26500D02*
Y27500D01*
X45300Y26500D02*
X47300D01*
X14930Y40190D02*
X17870D01*
X15217Y41099D02*
X17567D01*
X14917Y40799D02*
X15217Y41099D01*
X14917Y40090D02*
Y40799D01*
Y40090D02*
X17877D01*
Y40789D01*
X17567Y41099D02*
X17877Y40789D01*
D40*
X22111Y36179D02*
G03*
X22150Y37791I-611J821D01*
G01*
D41*
X31571Y45300D02*
G03*
X31571Y45300I-71J0D01*
G01*
X27971D02*
G03*
X27971Y45300I-71J0D01*
G01*
X39071D02*
G03*
X39071Y45300I-71J0D01*
G01*
X35471D02*
G03*
X35471Y45300I-71J0D01*
G01*
X19750Y35200D02*
G03*
X19750Y35200I-3150J0D01*
G01*
X19754Y28315D02*
G03*
X19754Y28315I-3150J0D01*
G01*
X16600Y32065D02*
Y38335D01*
Y37415D02*
X17400Y38215D01*
X16600Y36615D02*
X18000Y38015D01*
X16600Y35815D02*
X18500Y37715D01*
X16600Y35015D02*
X18925Y37340D01*
X16600Y34215D02*
X19200Y36815D01*
X16600Y33415D02*
X19500Y36315D01*
X16600Y32615D02*
X19700Y35715D01*
X16860Y32075D02*
X19725Y34940D01*
X16604Y25180D02*
Y31450D01*
X15804Y25300D02*
X16604Y26100D01*
X15204Y25500D02*
X16604Y26900D01*
X14704Y25800D02*
X16604Y27700D01*
X14279Y26175D02*
X16604Y28500D01*
X14004Y26700D02*
X16604Y29300D01*
X13704Y27200D02*
X16604Y30100D01*
X13504Y27800D02*
X16604Y30900D01*
X13479Y28575D02*
X16344Y31440D01*
D42*
X18670Y32612D02*
G03*
X18670Y37788I-2070J2588D01*
G01*
X14533Y30903D02*
G03*
X14533Y25727I2070J-2588D01*
G01*
D43*
X25090Y39850D02*
G03*
X25090Y39850I-100J0D01*
G01*
X29900Y46700D02*
X31100D01*
X30150Y48100D02*
X31350D01*
X29600Y45300D02*
X30850D01*
X29700Y46900D02*
X29900Y47900D01*
X29400Y45500D02*
X29600Y46500D01*
X31100Y45500D02*
X31300Y46500D01*
X31400Y46900D02*
X31600Y47900D01*
X27800Y46900D02*
X28000Y47900D01*
X27500Y45500D02*
X27700Y46500D01*
X25800Y45500D02*
X26000Y46500D01*
X26100Y46900D02*
X26300Y47900D01*
X26000Y45300D02*
X27250D01*
X26550Y48100D02*
X27750D01*
X26300Y46700D02*
X27500D01*
X29900D02*
X31100D01*
X37400D02*
X38600D01*
X37650Y48100D02*
X38850D01*
X37100Y45300D02*
X38350D01*
X37200Y46900D02*
X37400Y47900D01*
X36900Y45500D02*
X37100Y46500D01*
X38600Y45500D02*
X38800Y46500D01*
X38900Y46900D02*
X39100Y47900D01*
X35300Y46900D02*
X35500Y47900D01*
X35000Y45500D02*
X35200Y46500D01*
X33300Y45500D02*
X33500Y46500D01*
X33600Y46900D02*
X33800Y47900D01*
X33500Y45300D02*
X34750D01*
X34050Y48100D02*
X35250D01*
X33800Y46700D02*
X35000D01*
X37400D02*
X38600D01*
D44*
X13000Y42400D02*
X14000D01*
X13000Y43400D02*
X14000D01*
Y39400D02*
Y43400D01*
X13000Y39400D02*
X14000D01*
X13000D02*
Y43400D01*
X31890Y22640D02*
X32890D01*
X31890Y23640D02*
X32890D01*
Y19640D02*
Y23640D01*
X31890Y19640D02*
X32890D01*
X31890D02*
Y23640D01*
X41400Y31500D02*
Y34500D01*
Y31500D02*
X42400D01*
Y34500D01*
X41400D02*
X42400D01*
X41400Y33500D02*
X42400D01*
X16190Y47180D02*
X18190D01*
X16190Y46180D02*
Y47180D01*
Y46180D02*
X18190D01*
Y47180D01*
X17190Y46180D02*
Y47180D01*
X19700D02*
X21700D01*
X19700Y46180D02*
Y47180D01*
Y46180D02*
X21700D01*
Y47180D01*
X20700Y46180D02*
Y47180D01*
X22540Y28650D02*
X23540D01*
X22540Y27650D02*
X23540D01*
X22540D02*
Y31650D01*
X23540D01*
Y27650D02*
Y31650D01*
X15900Y15900D02*
X16900D01*
X15900Y14900D02*
X16900D01*
X15900D02*
Y18900D01*
X16900D01*
Y14900D02*
Y18900D01*
X15900Y22300D02*
X16900D01*
X15900Y23300D02*
X16900D01*
Y19300D02*
Y23300D01*
X15900Y19300D02*
X16900D01*
X15900D02*
Y23300D01*
D45*
X33218Y37859D02*
X36762D01*
Y39041D01*
X33218D02*
X36762D01*
X33218Y37859D02*
Y39041D01*
X36762Y38450D02*
X37155D01*
X32825D02*
X33218D01*
Y36509D02*
X36762D01*
Y37691D01*
X33218D02*
X36762D01*
X33218Y36509D02*
Y37691D01*
X36762Y37100D02*
X37155D01*
X32825D02*
X33218D01*
Y35159D02*
X36762D01*
Y36341D01*
X33218D02*
X36762D01*
X33218Y35159D02*
Y36341D01*
X36762Y35750D02*
X37155D01*
X32825D02*
X33218D01*
Y33809D02*
X36762D01*
Y34991D01*
X33218D02*
X36762D01*
X33218Y33809D02*
Y34991D01*
X36762Y34400D02*
X37155D01*
X32825D02*
X33218D01*
Y32459D02*
X36762D01*
Y33641D01*
X33218D02*
X36762D01*
X33218Y32459D02*
Y33641D01*
X36762Y33050D02*
X37155D01*
X32825D02*
X33218D01*
Y31109D02*
X36762D01*
Y32291D01*
X33218D02*
X36762D01*
X33218Y31109D02*
Y32291D01*
X36762Y31700D02*
X37155D01*
X32825D02*
X33218D01*
X33268Y29759D02*
X36812D01*
Y30941D01*
X33268D02*
X36812D01*
X33268Y29759D02*
Y30941D01*
X36812Y30350D02*
X37205D01*
X32875D02*
X33268D01*
Y28359D02*
X36812D01*
Y29541D01*
X33268D02*
X36812D01*
X33268Y28359D02*
Y29541D01*
X36812Y28950D02*
X37205D01*
X32875D02*
X33268D01*
D46*
X15450Y42567D02*
Y42967D01*
X15750Y42567D02*
Y42987D01*
X16050Y42567D02*
Y42967D01*
X15450Y42567D02*
X16050D01*
X14320Y42987D02*
X16730D01*
X14320D02*
Y45717D01*
X17130D01*
Y42987D02*
Y45717D01*
X16730Y42987D02*
X17130D01*
X15080Y43620D02*
X15480D01*
X15080Y45120D02*
X15480D01*
Y44720D02*
Y45120D01*
Y43620D02*
Y43970D01*
X15080Y44370D02*
X15280D01*
X15530Y44620D01*
X15930D02*
X16180Y44370D01*
X16380D01*
X15980Y43620D02*
Y43970D01*
Y44720D02*
Y45120D01*
X16380D01*
X15980Y43620D02*
X16380D01*
X15160Y41560D02*
Y42240D01*
X15710D01*
X15160Y41560D02*
X15710D01*
X16190Y42240D02*
X16740D01*
X16190Y41560D02*
X16740D01*
Y42240D01*
X22010Y35060D02*
Y35740D01*
X22560D01*
X22010Y35060D02*
X22560D01*
X22490Y35740D02*
X23590D01*
X22560Y35060D02*
X23590D01*
Y35740D01*
D47*
X15850Y41900D02*
X15900D01*
X16000D02*
X16050D01*
X16000Y41750D02*
Y42050D01*
X15900Y41750D02*
Y42050D01*
D48*
X22760Y35950D02*
Y36200D01*
X22885D01*
X22927Y36158D01*
Y36075D01*
X22885Y36033D01*
X22760D01*
X22843D02*
X22927Y35950D01*
X23010D02*
X23093D01*
X23052D01*
Y36200D01*
X23010Y36158D01*
X23218D02*
X23260Y36200D01*
X23343D01*
X23385Y36158D01*
Y35992D01*
X23343Y35950D01*
X23260D01*
X23218Y35992D01*
Y36158D01*
X20287Y20148D02*
X20245Y20190D01*
X20162D01*
X20120Y20148D01*
Y19982D01*
X20162Y19940D01*
X20245D01*
X20287Y19982D01*
X20370Y19940D02*
X20453D01*
X20412D01*
Y20190D01*
X20370Y20148D01*
X12797Y30658D02*
X12755Y30700D01*
X12672D01*
X12630Y30658D01*
Y30492D01*
X12672Y30450D01*
X12755D01*
X12797Y30492D01*
X13047Y30450D02*
X12880D01*
X13047Y30617D01*
Y30658D01*
X13005Y30700D01*
X12922D01*
X12880Y30658D01*
X12867Y38458D02*
X12825Y38500D01*
X12742D01*
X12700Y38458D01*
Y38292D01*
X12742Y38250D01*
X12825D01*
X12867Y38292D01*
X12950Y38458D02*
X12992Y38500D01*
X13075D01*
X13117Y38458D01*
Y38417D01*
X13075Y38375D01*
X13033D01*
X13075D01*
X13117Y38333D01*
Y38292D01*
X13075Y38250D01*
X12992D01*
X12950Y38292D01*
X15327Y42728D02*
X15285Y42770D01*
X15202D01*
X15160Y42728D01*
Y42562D01*
X15202Y42520D01*
X15285D01*
X15327Y42562D01*
X15577Y42770D02*
X15410D01*
Y42645D01*
X15493Y42687D01*
X15535D01*
X15577Y42645D01*
Y42562D01*
X15535Y42520D01*
X15452D01*
X15410Y42562D01*
X20167Y23208D02*
X20125Y23250D01*
X20042D01*
X20000Y23208D01*
Y23042D01*
X20042Y23000D01*
X20125D01*
X20167Y23042D01*
X20417Y23250D02*
X20333Y23208D01*
X20250Y23125D01*
Y23042D01*
X20292Y23000D01*
X20375D01*
X20417Y23042D01*
Y23083D01*
X20375Y23125D01*
X20250D01*
X20217Y38558D02*
X20175Y38600D01*
X20092D01*
X20050Y38558D01*
Y38392D01*
X20092Y38350D01*
X20175D01*
X20217Y38392D01*
X20300Y38350D02*
X20383D01*
X20342D01*
Y38600D01*
X20300Y38558D01*
X20675Y38600D02*
X20508D01*
Y38475D01*
X20591Y38517D01*
X20633D01*
X20675Y38475D01*
Y38392D01*
X20633Y38350D01*
X20550D01*
X20508Y38392D01*
X20147Y21758D02*
X20105Y21800D01*
X20022D01*
X19980Y21758D01*
Y21592D01*
X20022Y21550D01*
X20105D01*
X20147Y21592D01*
X20230Y21800D02*
Y21758D01*
X20313Y21675D01*
X20397Y21758D01*
Y21800D01*
X20313Y21675D02*
Y21550D01*
X20480D02*
X20563D01*
X20521D01*
Y21800D01*
X20480Y21758D01*
X43170Y17690D02*
Y17440D01*
X43295D01*
X43337Y17482D01*
Y17648D01*
X43295Y17690D01*
X43170D01*
X43420Y17440D02*
X43503D01*
X43462D01*
Y17690D01*
X43420Y17648D01*
X43170Y18690D02*
Y18440D01*
X43295D01*
X43337Y18482D01*
Y18648D01*
X43295Y18690D01*
X43170D01*
X43587Y18440D02*
X43420D01*
X43587Y18607D01*
Y18648D01*
X43545Y18690D01*
X43462D01*
X43420Y18648D01*
X43130Y20530D02*
Y20280D01*
X43255D01*
X43297Y20322D01*
Y20488D01*
X43255Y20530D01*
X43130D01*
X43380Y20488D02*
X43422Y20530D01*
X43505D01*
X43547Y20488D01*
Y20447D01*
X43505Y20405D01*
X43463D01*
X43505D01*
X43547Y20363D01*
Y20322D01*
X43505Y20280D01*
X43422D01*
X43380Y20322D01*
X43150Y19630D02*
Y19380D01*
X43275D01*
X43317Y19422D01*
Y19588D01*
X43275Y19630D01*
X43150D01*
X43525Y19380D02*
Y19630D01*
X43400Y19505D01*
X43567D01*
X43120Y21370D02*
Y21120D01*
X43245D01*
X43287Y21162D01*
Y21328D01*
X43245Y21370D01*
X43120D01*
X43537D02*
X43370D01*
Y21245D01*
X43453Y21287D01*
X43495D01*
X43537Y21245D01*
Y21162D01*
X43495Y21120D01*
X43412D01*
X43370Y21162D01*
X43110Y22280D02*
Y22030D01*
X43235D01*
X43277Y22072D01*
Y22238D01*
X43235Y22280D01*
X43110D01*
X43527D02*
X43443Y22238D01*
X43360Y22155D01*
Y22072D01*
X43402Y22030D01*
X43485D01*
X43527Y22072D01*
Y22113D01*
X43485Y22155D01*
X43360D01*
X43140Y23110D02*
Y22860D01*
X43265D01*
X43307Y22902D01*
Y23068D01*
X43265Y23110D01*
X43140D01*
X43390D02*
X43557D01*
Y23068D01*
X43390Y22902D01*
Y22860D01*
X43160Y24030D02*
Y23780D01*
X43285D01*
X43327Y23822D01*
Y23988D01*
X43285Y24030D01*
X43160D01*
X43410Y23988D02*
X43452Y24030D01*
X43535D01*
X43577Y23988D01*
Y23947D01*
X43535Y23905D01*
X43577Y23863D01*
Y23822D01*
X43535Y23780D01*
X43452D01*
X43410Y23822D01*
Y23863D01*
X43452Y23905D01*
X43410Y23947D01*
Y23988D01*
X43452Y23905D02*
X43535D01*
X13177Y43920D02*
X13093D01*
X13135D01*
Y43712D01*
X13093Y43670D01*
X13052D01*
X13010Y43712D01*
X13260Y43670D02*
X13343D01*
X13302D01*
Y43920D01*
X13260Y43878D01*
X32067Y24160D02*
X31983D01*
X32025D01*
Y23952D01*
X31983Y23910D01*
X31942D01*
X31900Y23952D01*
X32317Y23910D02*
X32150D01*
X32317Y24077D01*
Y24118D01*
X32275Y24160D01*
X32192D01*
X32150Y24118D01*
X16047Y23760D02*
X15963D01*
X16005D01*
Y23552D01*
X15963Y23510D01*
X15922D01*
X15880Y23552D01*
X16130Y23718D02*
X16172Y23760D01*
X16255D01*
X16297Y23718D01*
Y23677D01*
X16255Y23635D01*
X16213D01*
X16255D01*
X16297Y23593D01*
Y23552D01*
X16255Y23510D01*
X16172D01*
X16130Y23552D01*
X41577Y35020D02*
X41493D01*
X41535D01*
Y34812D01*
X41493Y34770D01*
X41452D01*
X41410Y34812D01*
X41785Y34770D02*
Y35020D01*
X41660Y34895D01*
X41827D01*
X23307Y32120D02*
X23223D01*
X23265D01*
Y31912D01*
X23223Y31870D01*
X23182D01*
X23140Y31912D01*
X23557Y32120D02*
X23390D01*
Y31995D01*
X23473Y32037D01*
X23515D01*
X23557Y31995D01*
Y31912D01*
X23515Y31870D01*
X23432D01*
X23390Y31912D01*
X16367Y47700D02*
X16283D01*
X16325D01*
Y47492D01*
X16283Y47450D01*
X16242D01*
X16200Y47492D01*
X16617Y47700D02*
X16533Y47658D01*
X16450Y47575D01*
Y47492D01*
X16492Y47450D01*
X16575D01*
X16617Y47492D01*
Y47533D01*
X16575Y47575D01*
X16450D01*
X19877Y47700D02*
X19793D01*
X19835D01*
Y47492D01*
X19793Y47450D01*
X19752D01*
X19710Y47492D01*
X19960Y47700D02*
X20127D01*
Y47658D01*
X19960Y47492D01*
Y47450D01*
X16177Y14680D02*
X16093D01*
X16135D01*
Y14472D01*
X16093Y14430D01*
X16052D01*
X16010Y14472D01*
X16260Y14638D02*
X16302Y14680D01*
X16385D01*
X16427Y14638D01*
Y14597D01*
X16385Y14555D01*
X16427Y14513D01*
Y14472D01*
X16385Y14430D01*
X16302D01*
X16260Y14472D01*
Y14513D01*
X16302Y14555D01*
X16260Y14597D01*
Y14638D01*
X16302Y14555D02*
X16385D01*
X34740Y26240D02*
Y25990D01*
X34907D01*
X35157D02*
X34990D01*
X35157Y26157D01*
Y26198D01*
X35115Y26240D01*
X35032D01*
X34990Y26198D01*
X35240Y26032D02*
X35281Y25990D01*
X35365D01*
X35406Y26032D01*
Y26198D01*
X35365Y26240D01*
X35281D01*
X35240Y26198D01*
Y26157D01*
X35281Y26115D01*
X35406D01*
X35490Y26198D02*
X35531Y26240D01*
X35615D01*
X35656Y26198D01*
Y26157D01*
X35615Y26115D01*
X35656Y26073D01*
Y26032D01*
X35615Y25990D01*
X35531D01*
X35490Y26032D01*
Y26073D01*
X35531Y26115D01*
X35490Y26157D01*
Y26198D01*
X35531Y26115D02*
X35615D01*
X35740Y25990D02*
Y26240D01*
X35906Y25990D01*
Y26240D01*
X48550Y18810D02*
Y18560D01*
X48717D01*
X48967Y18810D02*
X48800D01*
Y18560D01*
X48967D01*
X48800Y18685D02*
X48883D01*
X49050Y18810D02*
Y18560D01*
X49175D01*
X49216Y18602D01*
Y18768D01*
X49175Y18810D01*
X49050D01*
X49466Y18560D02*
X49300D01*
X49466Y18727D01*
Y18768D01*
X49425Y18810D01*
X49341D01*
X49300Y18768D01*
X48550Y20310D02*
Y20060D01*
X48717D01*
X48967Y20310D02*
X48800D01*
Y20060D01*
X48967D01*
X48800Y20185D02*
X48883D01*
X49050Y20310D02*
Y20060D01*
X49175D01*
X49216Y20102D01*
Y20268D01*
X49175Y20310D01*
X49050D01*
X49300Y20268D02*
X49341Y20310D01*
X49425D01*
X49466Y20268D01*
Y20227D01*
X49425Y20185D01*
X49383D01*
X49425D01*
X49466Y20143D01*
Y20102D01*
X49425Y20060D01*
X49341D01*
X49300Y20102D01*
X48510Y21940D02*
Y21690D01*
X48677D01*
X48927Y21940D02*
X48760D01*
Y21690D01*
X48927D01*
X48760Y21815D02*
X48843D01*
X49010Y21940D02*
Y21690D01*
X49135D01*
X49176Y21732D01*
Y21898D01*
X49135Y21940D01*
X49010D01*
X49385Y21690D02*
Y21940D01*
X49260Y21815D01*
X49426D01*
X48480Y24030D02*
Y23780D01*
X48647D01*
X48897Y24030D02*
X48730D01*
Y23780D01*
X48897D01*
X48730Y23905D02*
X48813D01*
X48980Y24030D02*
Y23780D01*
X49105D01*
X49146Y23822D01*
Y23988D01*
X49105Y24030D01*
X48980D01*
X49396D02*
X49230D01*
Y23905D01*
X49313Y23947D01*
X49355D01*
X49396Y23905D01*
Y23822D01*
X49355Y23780D01*
X49271D01*
X49230Y23822D01*
X12640Y50100D02*
Y50350D01*
X12723Y50267D01*
X12807Y50350D01*
Y50100D01*
X12890D02*
X12973D01*
X12932D01*
Y50350D01*
X12890Y50308D01*
X47010Y48770D02*
Y49020D01*
X47093Y48937D01*
X47177Y49020D01*
Y48770D01*
X47427D02*
X47260D01*
X47427Y48937D01*
Y48978D01*
X47385Y49020D01*
X47302D01*
X47260Y48978D01*
X12830Y14510D02*
Y14760D01*
X12913Y14677D01*
X12997Y14760D01*
Y14510D01*
X13080Y14718D02*
X13122Y14760D01*
X13205D01*
X13247Y14718D01*
Y14677D01*
X13205Y14635D01*
X13163D01*
X13205D01*
X13247Y14593D01*
Y14552D01*
X13205Y14510D01*
X13122D01*
X13080Y14552D01*
X48040Y15360D02*
Y15610D01*
X48123Y15527D01*
X48207Y15610D01*
Y15360D01*
X48415D02*
Y15610D01*
X48290Y15485D01*
X48457D01*
X48100Y27780D02*
Y28030D01*
X48225D01*
X48267Y27988D01*
Y27905D01*
X48225Y27863D01*
X48100D01*
X48350Y27780D02*
X48433D01*
X48392D01*
Y28030D01*
X48350Y27988D01*
X45300Y27780D02*
Y28030D01*
X45425D01*
X45467Y27988D01*
Y27905D01*
X45425Y27863D01*
X45300D01*
X45717Y27780D02*
X45550D01*
X45717Y27947D01*
Y27988D01*
X45675Y28030D01*
X45592D01*
X45550Y27988D01*
X32260Y39340D02*
Y39590D01*
X32385D01*
X32427Y39548D01*
Y39465D01*
X32385Y39423D01*
X32260D01*
X32343D02*
X32427Y39340D01*
X32510D02*
X32593D01*
X32552D01*
Y39590D01*
X32510Y39548D01*
X32718Y39340D02*
X32801D01*
X32760D01*
Y39590D01*
X32718Y39548D01*
X32260Y37990D02*
Y38240D01*
X32385D01*
X32427Y38198D01*
Y38115D01*
X32385Y38073D01*
X32260D01*
X32343D02*
X32427Y37990D01*
X32510D02*
X32593D01*
X32552D01*
Y38240D01*
X32510Y38198D01*
X32885Y37990D02*
X32718D01*
X32885Y38157D01*
Y38198D01*
X32843Y38240D01*
X32760D01*
X32718Y38198D01*
X32260Y36640D02*
Y36890D01*
X32385D01*
X32427Y36848D01*
Y36765D01*
X32385Y36723D01*
X32260D01*
X32343D02*
X32427Y36640D01*
X32510D02*
X32593D01*
X32552D01*
Y36890D01*
X32510Y36848D01*
X32718D02*
X32760Y36890D01*
X32843D01*
X32885Y36848D01*
Y36807D01*
X32843Y36765D01*
X32801D01*
X32843D01*
X32885Y36723D01*
Y36682D01*
X32843Y36640D01*
X32760D01*
X32718Y36682D01*
X32260Y35290D02*
Y35540D01*
X32385D01*
X32427Y35498D01*
Y35415D01*
X32385Y35373D01*
X32260D01*
X32343D02*
X32427Y35290D01*
X32510D02*
X32593D01*
X32552D01*
Y35540D01*
X32510Y35498D01*
X32843Y35290D02*
Y35540D01*
X32718Y35415D01*
X32885D01*
X32260Y33940D02*
Y34190D01*
X32385D01*
X32427Y34148D01*
Y34065D01*
X32385Y34023D01*
X32260D01*
X32343D02*
X32427Y33940D01*
X32510D02*
X32593D01*
X32552D01*
Y34190D01*
X32510Y34148D01*
X32885Y34190D02*
X32718D01*
Y34065D01*
X32801Y34107D01*
X32843D01*
X32885Y34065D01*
Y33982D01*
X32843Y33940D01*
X32760D01*
X32718Y33982D01*
X32260Y32590D02*
Y32840D01*
X32385D01*
X32427Y32798D01*
Y32715D01*
X32385Y32673D01*
X32260D01*
X32343D02*
X32427Y32590D01*
X32510D02*
X32593D01*
X32552D01*
Y32840D01*
X32510Y32798D01*
X32885Y32840D02*
X32801Y32798D01*
X32718Y32715D01*
Y32632D01*
X32760Y32590D01*
X32843D01*
X32885Y32632D01*
Y32673D01*
X32843Y32715D01*
X32718D01*
X32310Y31240D02*
Y31490D01*
X32435D01*
X32477Y31448D01*
Y31365D01*
X32435Y31323D01*
X32310D01*
X32393D02*
X32477Y31240D01*
X32560D02*
X32643D01*
X32602D01*
Y31490D01*
X32560Y31448D01*
X32768Y31490D02*
X32935D01*
Y31448D01*
X32768Y31282D01*
Y31240D01*
X32310Y29840D02*
Y30090D01*
X32435D01*
X32477Y30048D01*
Y29965D01*
X32435Y29923D01*
X32310D01*
X32393D02*
X32477Y29840D01*
X32560D02*
X32643D01*
X32602D01*
Y30090D01*
X32560Y30048D01*
X32768D02*
X32810Y30090D01*
X32893D01*
X32935Y30048D01*
Y30007D01*
X32893Y29965D01*
X32935Y29923D01*
Y29882D01*
X32893Y29840D01*
X32810D01*
X32768Y29882D01*
Y29923D01*
X32810Y29965D01*
X32768Y30007D01*
Y30048D01*
X32810Y29965D02*
X32893D01*
X24797Y49758D02*
X24755Y49800D01*
X24672D01*
X24630Y49758D01*
Y49717D01*
X24672Y49675D01*
X24755D01*
X24797Y49633D01*
Y49592D01*
X24755Y49550D01*
X24672D01*
X24630Y49592D01*
X24880Y49550D02*
Y49800D01*
X24963Y49717D01*
X25047Y49800D01*
Y49550D01*
X25296Y49758D02*
X25255Y49800D01*
X25171D01*
X25130Y49758D01*
Y49592D01*
X25171Y49550D01*
X25255D01*
X25296Y49592D01*
Y49675D01*
X25213D01*
X25546Y49550D02*
X25380D01*
X25546Y49717D01*
Y49758D01*
X25505Y49800D01*
X25421D01*
X25380Y49758D01*
X14487Y46208D02*
X14445Y46250D01*
X14362D01*
X14320Y46208D01*
Y46167D01*
X14362Y46125D01*
X14445D01*
X14487Y46083D01*
Y46042D01*
X14445Y46000D01*
X14362D01*
X14320Y46042D01*
X14570Y46250D02*
Y46000D01*
X14653Y46083D01*
X14737Y46000D01*
Y46250D01*
X14820Y46000D02*
X14903D01*
X14861D01*
Y46250D01*
X14820Y46208D01*
X27417Y16658D02*
X27375Y16700D01*
X27292D01*
X27250Y16658D01*
Y16617D01*
X27292Y16575D01*
X27375D01*
X27417Y16533D01*
Y16492D01*
X27375Y16450D01*
X27292D01*
X27250Y16492D01*
X27500Y16700D02*
Y16450D01*
X27583Y16533D01*
X27667Y16450D01*
Y16700D01*
X27750Y16658D02*
X27791Y16700D01*
X27875D01*
X27916Y16658D01*
Y16617D01*
X27875Y16575D01*
X27833D01*
X27875D01*
X27916Y16533D01*
Y16492D01*
X27875Y16450D01*
X27791D01*
X27750Y16492D01*
X23697Y16558D02*
X23655Y16600D01*
X23572D01*
X23530Y16558D01*
Y16517D01*
X23572Y16475D01*
X23655D01*
X23697Y16433D01*
Y16392D01*
X23655Y16350D01*
X23572D01*
X23530Y16392D01*
X23780Y16600D02*
Y16350D01*
X23863Y16433D01*
X23947Y16350D01*
Y16600D01*
X24155Y16350D02*
Y16600D01*
X24030Y16475D01*
X24196D01*
X24810Y40500D02*
Y40292D01*
X24852Y40250D01*
X24935D01*
X24977Y40292D01*
Y40500D01*
X25060Y40250D02*
X25143D01*
X25102D01*
Y40500D01*
X25060Y40458D01*
X14700Y41730D02*
Y41522D01*
X14742Y41480D01*
X14825D01*
X14867Y41522D01*
Y41730D01*
X15117Y41480D02*
X14950D01*
X15117Y41647D01*
Y41688D01*
X15075Y41730D01*
X14992D01*
X14950Y41688D01*
X31717Y16598D02*
X31675Y16640D01*
X31592D01*
X31550Y16598D01*
Y16557D01*
X31592Y16515D01*
X31675D01*
X31717Y16473D01*
Y16432D01*
X31675Y16390D01*
X31592D01*
X31550Y16432D01*
X31800Y16640D02*
Y16390D01*
X31883Y16473D01*
X31967Y16390D01*
Y16640D01*
X32216Y16390D02*
X32050D01*
X32216Y16557D01*
Y16598D01*
X32175Y16640D01*
X32091D01*
X32050Y16598D01*
M02*
