G04 Layer_Color=2752767*
%FSLAX24Y24*%
%MOIN*%
G70*
G01*
G75*
%ADD70C,0.0020*%
%ADD71C,0.0027*%
D70*
X13820Y13320D02*
Y13480D01*
X13980D01*
Y13320D01*
X13820D01*
X14820D02*
Y13480D01*
X14980D01*
Y13320D01*
X14820D01*
X15820D02*
Y13480D01*
X15980D01*
Y13320D01*
X15820D01*
X16820D02*
Y13480D01*
X16980D01*
Y13320D01*
X16820D01*
X21150Y9820D02*
X21070Y9980D01*
X21230D01*
X21150Y9820D01*
X18550Y10520D02*
X18590Y10560D01*
X18630D01*
X18590Y10600D01*
X18630Y10640D01*
X18590D01*
X18550Y10680D01*
X18510Y10640D01*
X18470D01*
X18510Y10600D01*
X18470Y10560D01*
X18510D01*
X18550Y10520D01*
Y3220D02*
X18590Y3260D01*
X18630D01*
X18590Y3300D01*
X18630Y3340D01*
X18590D01*
X18550Y3380D01*
X18510Y3340D01*
X18470D01*
X18510Y3300D01*
X18470Y3260D01*
X18510D01*
X18550Y3220D01*
X21150Y4820D02*
X21070Y4980D01*
X21230D01*
X21150Y4820D01*
X2770Y8220D02*
X2810Y8300D01*
X2770Y8380D01*
X2850Y8340D01*
X2930Y8380D01*
X2890Y8300D01*
X2930Y8220D01*
X2850Y8260D01*
X2770Y8220D01*
Y9220D02*
X2810Y9300D01*
X2770Y9380D01*
X2850Y9340D01*
X2930Y9380D01*
X2890Y9300D01*
X2930Y9220D01*
X2850Y9260D01*
X2770Y9220D01*
Y6320D02*
X2810Y6400D01*
X2770Y6480D01*
X2850Y6440D01*
X2930Y6480D01*
X2890Y6400D01*
X2930Y6320D01*
X2850Y6360D01*
X2770Y6320D01*
Y5320D02*
X2810Y5400D01*
X2770Y5480D01*
X2850Y5440D01*
X2930Y5480D01*
X2890Y5400D01*
X2930Y5320D01*
X2850Y5360D01*
X2770Y5320D01*
X12560Y5860D02*
Y5820D01*
X12640D01*
Y5860D01*
X12680D01*
Y5940D01*
X12640D01*
Y5980D01*
X12560D01*
Y5940D01*
X12520D01*
Y5860D01*
X12560D01*
Y6860D02*
Y6820D01*
X12640D01*
Y6860D01*
X12680D01*
Y6940D01*
X12640D01*
Y6980D01*
X12560D01*
Y6940D01*
X12520D01*
Y6860D01*
X12560D01*
Y7860D02*
Y7820D01*
X12640D01*
Y7860D01*
X12680D01*
Y7940D01*
X12640D01*
Y7980D01*
X12560D01*
Y7940D01*
X12520D01*
Y7860D01*
X12560D01*
Y8860D02*
Y8820D01*
X12640D01*
Y8860D01*
X12680D01*
Y8940D01*
X12640D01*
Y8980D01*
X12560D01*
Y8940D01*
X12520D01*
Y8860D01*
X12560D01*
Y9860D02*
Y9820D01*
X12640D01*
Y9860D01*
X12680D01*
Y9940D01*
X12640D01*
Y9980D01*
X12560D01*
Y9940D01*
X12520D01*
Y9860D01*
X12560D01*
Y10860D02*
Y10820D01*
X12640D01*
Y10860D01*
X12680D01*
Y10940D01*
X12640D01*
Y10980D01*
X12560D01*
Y10940D01*
X12520D01*
Y10860D01*
X12560D01*
Y11860D02*
Y11820D01*
X12640D01*
Y11860D01*
X12680D01*
Y11940D01*
X12640D01*
Y11980D01*
X12560D01*
Y11940D01*
X12520D01*
Y11860D01*
X12560D01*
Y12860D02*
Y12820D01*
X12640D01*
Y12860D01*
X12680D01*
Y12940D01*
X12640D01*
Y12980D01*
X12560D01*
Y12940D01*
X12520D01*
Y12860D01*
X12560D01*
Y13860D02*
Y13820D01*
X12640D01*
Y13860D01*
X12680D01*
Y13940D01*
X12640D01*
Y13980D01*
X12560D01*
Y13940D01*
X12520D01*
Y13860D01*
X12560D01*
Y14860D02*
Y14820D01*
X12640D01*
Y14860D01*
X12680D01*
Y14940D01*
X12640D01*
Y14980D01*
X12560D01*
Y14940D01*
X12520D01*
Y14860D01*
X12560D01*
Y15860D02*
Y15820D01*
X12640D01*
Y15860D01*
X12680D01*
Y15940D01*
X12640D01*
Y15980D01*
X12560D01*
Y15940D01*
X12520D01*
Y15860D01*
X12560D01*
Y16860D02*
Y16820D01*
X12640D01*
Y16860D01*
X12680D01*
Y16940D01*
X12640D01*
Y16980D01*
X12560D01*
Y16940D01*
X12520D01*
Y16860D01*
X12560D01*
Y17860D02*
Y17820D01*
X12640D01*
Y17860D01*
X12680D01*
Y17940D01*
X12640D01*
Y17980D01*
X12560D01*
Y17940D01*
X12520D01*
Y17860D01*
X12560D01*
Y18860D02*
Y18820D01*
X12640D01*
Y18860D01*
X12680D01*
Y18940D01*
X12640D01*
Y18980D01*
X12560D01*
Y18940D01*
X12520D01*
Y18860D01*
X12560D01*
Y19860D02*
Y19820D01*
X12640D01*
Y19860D01*
X12680D01*
Y19940D01*
X12640D01*
Y19980D01*
X12560D01*
Y19940D01*
X12520D01*
Y19860D01*
X12560D01*
Y20860D02*
Y20820D01*
X12640D01*
Y20860D01*
X12680D01*
Y20940D01*
X12640D01*
Y20980D01*
X12560D01*
Y20940D01*
X12520D01*
Y20860D01*
X12560D01*
Y21860D02*
Y21820D01*
X12640D01*
Y21860D01*
X12680D01*
Y21940D01*
X12640D01*
Y21980D01*
X12560D01*
Y21940D01*
X12520D01*
Y21860D01*
X12560D01*
Y22860D02*
Y22820D01*
X12640D01*
Y22860D01*
X12680D01*
Y22940D01*
X12640D01*
Y22980D01*
X12560D01*
Y22940D01*
X12520D01*
Y22860D01*
X12560D01*
Y23860D02*
Y23820D01*
X12640D01*
Y23860D01*
X12680D01*
Y23940D01*
X12640D01*
Y23980D01*
X12560D01*
Y23940D01*
X12520D01*
Y23860D01*
X12560D01*
Y24860D02*
Y24820D01*
X12640D01*
Y24860D01*
X12680D01*
Y24940D01*
X12640D01*
Y24980D01*
X12560D01*
Y24940D01*
X12520D01*
Y24860D01*
X12560D01*
X6560Y5860D02*
Y5820D01*
X6640D01*
Y5860D01*
X6680D01*
Y5940D01*
X6640D01*
Y5980D01*
X6560D01*
Y5940D01*
X6520D01*
Y5860D01*
X6560D01*
Y6860D02*
Y6820D01*
X6640D01*
Y6860D01*
X6680D01*
Y6940D01*
X6640D01*
Y6980D01*
X6560D01*
Y6940D01*
X6520D01*
Y6860D01*
X6560D01*
Y7860D02*
Y7820D01*
X6640D01*
Y7860D01*
X6680D01*
Y7940D01*
X6640D01*
Y7980D01*
X6560D01*
Y7940D01*
X6520D01*
Y7860D01*
X6560D01*
Y8860D02*
Y8820D01*
X6640D01*
Y8860D01*
X6680D01*
Y8940D01*
X6640D01*
Y8980D01*
X6560D01*
Y8940D01*
X6520D01*
Y8860D01*
X6560D01*
Y9860D02*
Y9820D01*
X6640D01*
Y9860D01*
X6680D01*
Y9940D01*
X6640D01*
Y9980D01*
X6560D01*
Y9940D01*
X6520D01*
Y9860D01*
X6560D01*
Y10860D02*
Y10820D01*
X6640D01*
Y10860D01*
X6680D01*
Y10940D01*
X6640D01*
Y10980D01*
X6560D01*
Y10940D01*
X6520D01*
Y10860D01*
X6560D01*
Y11860D02*
Y11820D01*
X6640D01*
Y11860D01*
X6680D01*
Y11940D01*
X6640D01*
Y11980D01*
X6560D01*
Y11940D01*
X6520D01*
Y11860D01*
X6560D01*
Y12860D02*
Y12820D01*
X6640D01*
Y12860D01*
X6680D01*
Y12940D01*
X6640D01*
Y12980D01*
X6560D01*
Y12940D01*
X6520D01*
Y12860D01*
X6560D01*
Y13860D02*
Y13820D01*
X6640D01*
Y13860D01*
X6680D01*
Y13940D01*
X6640D01*
Y13980D01*
X6560D01*
Y13940D01*
X6520D01*
Y13860D01*
X6560D01*
Y14860D02*
Y14820D01*
X6640D01*
Y14860D01*
X6680D01*
Y14940D01*
X6640D01*
Y14980D01*
X6560D01*
Y14940D01*
X6520D01*
Y14860D01*
X6560D01*
Y15860D02*
Y15820D01*
X6640D01*
Y15860D01*
X6680D01*
Y15940D01*
X6640D01*
Y15980D01*
X6560D01*
Y15940D01*
X6520D01*
Y15860D01*
X6560D01*
Y16860D02*
Y16820D01*
X6640D01*
Y16860D01*
X6680D01*
Y16940D01*
X6640D01*
Y16980D01*
X6560D01*
Y16940D01*
X6520D01*
Y16860D01*
X6560D01*
Y17860D02*
Y17820D01*
X6640D01*
Y17860D01*
X6680D01*
Y17940D01*
X6640D01*
Y17980D01*
X6560D01*
Y17940D01*
X6520D01*
Y17860D01*
X6560D01*
Y18860D02*
Y18820D01*
X6640D01*
Y18860D01*
X6680D01*
Y18940D01*
X6640D01*
Y18980D01*
X6560D01*
Y18940D01*
X6520D01*
Y18860D01*
X6560D01*
Y19860D02*
Y19820D01*
X6640D01*
Y19860D01*
X6680D01*
Y19940D01*
X6640D01*
Y19980D01*
X6560D01*
Y19940D01*
X6520D01*
Y19860D01*
X6560D01*
Y20860D02*
Y20820D01*
X6640D01*
Y20860D01*
X6680D01*
Y20940D01*
X6640D01*
Y20980D01*
X6560D01*
Y20940D01*
X6520D01*
Y20860D01*
X6560D01*
Y21860D02*
Y21820D01*
X6640D01*
Y21860D01*
X6680D01*
Y21940D01*
X6640D01*
Y21980D01*
X6560D01*
Y21940D01*
X6520D01*
Y21860D01*
X6560D01*
Y22860D02*
Y22820D01*
X6640D01*
Y22860D01*
X6680D01*
Y22940D01*
X6640D01*
Y22980D01*
X6560D01*
Y22940D01*
X6520D01*
Y22860D01*
X6560D01*
Y23860D02*
Y23820D01*
X6640D01*
Y23860D01*
X6680D01*
Y23940D01*
X6640D01*
Y23980D01*
X6560D01*
Y23940D01*
X6520D01*
Y23860D01*
X6560D01*
Y24860D02*
Y24820D01*
X6640D01*
Y24860D01*
X6680D01*
Y24940D01*
X6640D01*
Y24980D01*
X6560D01*
Y24940D01*
X6520D01*
Y24860D01*
X6560D01*
X28370Y1870D02*
X28410D01*
X28450Y1910D01*
X28490Y1870D01*
X28530D01*
Y1910D01*
X28490Y1950D01*
X28530Y1990D01*
Y2030D01*
X28490D01*
X28450Y1990D01*
X28410Y2030D01*
X28370D01*
Y1990D01*
X28410Y1950D01*
X28370Y1910D01*
Y1870D01*
X7870Y27520D02*
Y27680D01*
X8030D01*
Y27520D01*
X7870D01*
X6870D02*
Y27680D01*
X7030D01*
Y27520D01*
X6870D01*
X5520D02*
Y27680D01*
X5680D01*
Y27520D01*
X5520D01*
X4520D02*
Y27680D01*
X4680D01*
Y27520D01*
X4520D01*
X12120D02*
Y27680D01*
X12280D01*
Y27520D01*
X12120D01*
X11120D02*
Y27680D01*
X11280D01*
Y27520D01*
X11120D01*
X10120D02*
Y27680D01*
X10280D01*
Y27520D01*
X10120D01*
X9120D02*
Y27680D01*
X9280D01*
Y27520D01*
X9120D01*
X17570D02*
Y27680D01*
X17730D01*
Y27520D01*
X17570D01*
X18570D02*
Y27680D01*
X18730D01*
Y27520D01*
X18570D01*
X19570D02*
Y27680D01*
X19730D01*
Y27520D01*
X19570D01*
X20570D02*
Y27680D01*
X20730D01*
Y27520D01*
X20570D01*
X13370D02*
Y27680D01*
X13530D01*
Y27520D01*
X13370D01*
X14370D02*
Y27680D01*
X14530D01*
Y27520D01*
X14370D01*
X15370D02*
Y27680D01*
X15530D01*
Y27520D01*
X15370D01*
X16370D02*
Y27680D01*
X16530D01*
Y27520D01*
X16370D01*
X3334Y23070D02*
Y23230D01*
X3494D01*
Y23070D01*
X3334D01*
X4220D02*
Y23230D01*
X4380D01*
Y23070D01*
X4220D01*
X5106D02*
Y23230D01*
X5266D01*
Y23070D01*
X5106D01*
X2102Y22210D02*
Y22170D01*
X2182D01*
Y22210D01*
X2222D01*
Y22290D01*
X2182D01*
Y22330D01*
X2102D01*
Y22290D01*
X2062D01*
Y22210D01*
X2102D01*
X1118D02*
Y22170D01*
X1198D01*
Y22210D01*
X1238D01*
Y22290D01*
X1198D01*
Y22330D01*
X1118D01*
Y22290D01*
X1078D01*
Y22210D01*
X1118D01*
X4360Y20960D02*
Y20920D01*
X4440D01*
Y20960D01*
X4480D01*
Y21040D01*
X4440D01*
Y21080D01*
X4360D01*
Y21040D01*
X4320D01*
Y20960D01*
X4360D01*
X3376D02*
Y20920D01*
X3456D01*
Y20960D01*
X3496D01*
Y21040D01*
X3456D01*
Y21080D01*
X3376D01*
Y21040D01*
X3336D01*
Y20960D01*
X3376D01*
X4870Y16820D02*
Y16980D01*
X5030D01*
Y16820D01*
X4870D01*
Y15820D02*
Y15980D01*
X5030D01*
Y15820D01*
X4870D01*
Y14820D02*
Y14980D01*
X5030D01*
Y14820D01*
X4870D01*
Y13820D02*
Y13980D01*
X5030D01*
Y13820D01*
X4870D01*
X2144Y20160D02*
Y20120D01*
X2224D01*
Y20160D01*
X2264D01*
Y20240D01*
X2224D01*
Y20280D01*
X2144D01*
Y20240D01*
X2104D01*
Y20160D01*
X2144D01*
X1160D02*
Y20120D01*
X1240D01*
Y20160D01*
X1280D01*
Y20240D01*
X1240D01*
Y20280D01*
X1160D01*
Y20240D01*
X1120D01*
Y20160D01*
X1160D01*
X4460Y6360D02*
Y6320D01*
X4540D01*
Y6360D01*
X4580D01*
Y6440D01*
X4540D01*
Y6480D01*
X4460D01*
Y6440D01*
X4420D01*
Y6360D01*
X4460D01*
Y8360D02*
Y8320D01*
X4540D01*
Y8360D01*
X4580D01*
Y8440D01*
X4540D01*
Y8480D01*
X4460D01*
Y8440D01*
X4420D01*
Y8360D01*
X4460D01*
X14320Y5820D02*
Y5980D01*
X14480D01*
Y5820D01*
X14320D01*
Y6820D02*
Y6980D01*
X14480D01*
Y6820D01*
X14320D01*
Y7820D02*
Y7980D01*
X14480D01*
Y7820D01*
X14320D01*
Y8820D02*
Y8980D01*
X14480D01*
Y8820D01*
X14320D01*
X4870Y12620D02*
Y12780D01*
X5030D01*
Y12620D01*
X4870D01*
Y11620D02*
Y11780D01*
X5030D01*
Y11620D01*
X4870D01*
Y10620D02*
Y10780D01*
X5030D01*
Y10620D01*
X4870D01*
X1920Y29570D02*
X1960D01*
X2000Y29610D01*
X2040Y29570D01*
X2080D01*
Y29610D01*
X2040Y29650D01*
X2080Y29690D01*
Y29730D01*
X2040D01*
X2000Y29690D01*
X1960Y29730D01*
X1920D01*
Y29690D01*
X1960Y29650D01*
X1920Y29610D01*
Y29570D01*
X28120D02*
X28160D01*
X28200Y29610D01*
X28240Y29570D01*
X28280D01*
Y29610D01*
X28240Y29650D01*
X28280Y29690D01*
Y29730D01*
X28240D01*
X28200Y29690D01*
X28160Y29730D01*
X28120D01*
Y29690D01*
X28160Y29650D01*
X28120Y29610D01*
Y29570D01*
X1820Y1920D02*
X1860D01*
X1900Y1960D01*
X1940Y1920D01*
X1980D01*
Y1960D01*
X1940Y2000D01*
X1980Y2040D01*
Y2080D01*
X1940D01*
X1900Y2040D01*
X1860Y2080D01*
X1820D01*
Y2040D01*
X1860Y2000D01*
X1820Y1960D01*
Y1920D01*
X26260Y22410D02*
Y22370D01*
X26340D01*
Y22410D01*
X26380D01*
Y22490D01*
X26340D01*
Y22530D01*
X26260D01*
Y22490D01*
X26220D01*
Y22410D01*
X26260D01*
Y21410D02*
Y21370D01*
X26340D01*
Y21410D01*
X26380D01*
Y21490D01*
X26340D01*
Y21530D01*
X26260D01*
Y21490D01*
X26220D01*
Y21410D01*
X26260D01*
Y20410D02*
Y20370D01*
X26340D01*
Y20410D01*
X26380D01*
Y20490D01*
X26340D01*
Y20530D01*
X26260D01*
Y20490D01*
X26220D01*
Y20410D01*
X26260D01*
Y19410D02*
Y19370D01*
X26340D01*
Y19410D01*
X26380D01*
Y19490D01*
X26340D01*
Y19530D01*
X26260D01*
Y19490D01*
X26220D01*
Y19410D01*
X26260D01*
Y18410D02*
Y18370D01*
X26340D01*
Y18410D01*
X26380D01*
Y18490D01*
X26340D01*
Y18530D01*
X26260D01*
Y18490D01*
X26220D01*
Y18410D01*
X26260D01*
Y17410D02*
Y17370D01*
X26340D01*
Y17410D01*
X26380D01*
Y17490D01*
X26340D01*
Y17530D01*
X26260D01*
Y17490D01*
X26220D01*
Y17410D01*
X26260D01*
X22260D02*
Y17370D01*
X22340D01*
Y17410D01*
X22380D01*
Y17490D01*
X22340D01*
Y17530D01*
X22260D01*
Y17490D01*
X22220D01*
Y17410D01*
X22260D01*
Y18410D02*
Y18370D01*
X22340D01*
Y18410D01*
X22380D01*
Y18490D01*
X22340D01*
Y18530D01*
X22260D01*
Y18490D01*
X22220D01*
Y18410D01*
X22260D01*
Y19410D02*
Y19370D01*
X22340D01*
Y19410D01*
X22380D01*
Y19490D01*
X22340D01*
Y19530D01*
X22260D01*
Y19490D01*
X22220D01*
Y19410D01*
X22260D01*
Y20410D02*
Y20370D01*
X22340D01*
Y20410D01*
X22380D01*
Y20490D01*
X22340D01*
Y20530D01*
X22260D01*
Y20490D01*
X22220D01*
Y20410D01*
X22260D01*
Y21410D02*
Y21370D01*
X22340D01*
Y21410D01*
X22380D01*
Y21490D01*
X22340D01*
Y21530D01*
X22260D01*
Y21490D01*
X22220D01*
Y21410D01*
X22260D01*
Y22410D02*
Y22370D01*
X22340D01*
Y22410D01*
X22380D01*
Y22490D01*
X22340D01*
Y22530D01*
X22260D01*
Y22490D01*
X22220D01*
Y22410D01*
X22260D01*
X8631Y2084D02*
Y2244D01*
X8791D01*
Y2084D01*
X8631D01*
Y3856D02*
Y4016D01*
X8791D01*
Y3856D01*
X8631D01*
X11309D02*
Y4016D01*
X11469D01*
Y3856D01*
X11309D01*
Y2084D02*
Y2244D01*
X11469D01*
Y2084D01*
X11309D01*
X4931D02*
Y2244D01*
X5091D01*
Y2084D01*
X4931D01*
Y3856D02*
Y4016D01*
X5091D01*
Y3856D01*
X4931D01*
X7609D02*
Y4016D01*
X7769D01*
Y3856D01*
X7609D01*
Y2084D02*
Y2244D01*
X7769D01*
Y2084D01*
X7609D01*
X12281D02*
Y2244D01*
X12441D01*
Y2084D01*
X12281D01*
Y3856D02*
Y4016D01*
X12441D01*
Y3856D01*
X12281D01*
X14959D02*
Y4016D01*
X15119D01*
Y3856D01*
X14959D01*
Y2084D02*
Y2244D01*
X15119D01*
Y2084D01*
X14959D01*
X25720Y10550D02*
X25800Y10630D01*
X25880Y10550D01*
X25800Y10470D01*
X25720Y10550D01*
X24920Y9250D02*
X25000Y9330D01*
X25080Y9250D01*
X25000Y9170D01*
X24920Y9250D01*
X24720Y6600D02*
X24800Y6680D01*
X24880Y6600D01*
X24800Y6520D01*
X24720Y6600D01*
X24020Y5350D02*
X24100Y5430D01*
X24180Y5350D01*
X24100Y5270D01*
X24020Y5350D01*
X24920Y7300D02*
X25000Y7380D01*
X25080Y7300D01*
X25000Y7220D01*
X24920Y7300D01*
X23670Y11100D02*
X23750Y11180D01*
X23830Y11100D01*
X23750Y11020D01*
X23670Y11100D01*
X24345Y3125D02*
X24425Y3205D01*
X24505Y3125D01*
X24425Y3045D01*
X24345Y3125D01*
D71*
X21230Y5900D02*
G03*
X21230Y5900I-80J0D01*
G01*
Y6900D02*
G03*
X21230Y6900I-80J0D01*
G01*
Y7900D02*
G03*
X21230Y7900I-80J0D01*
G01*
Y8900D02*
G03*
X21230Y8900I-80J0D01*
G01*
Y3900D02*
G03*
X21230Y3900I-80J0D01*
G01*
X23230Y10400D02*
G03*
X23230Y10400I-80J0D01*
G01*
Y9400D02*
G03*
X23230Y9400I-80J0D01*
G01*
Y8400D02*
G03*
X23230Y8400I-80J0D01*
G01*
Y7400D02*
G03*
X23230Y7400I-80J0D01*
G01*
Y6400D02*
G03*
X23230Y6400I-80J0D01*
G01*
Y5400D02*
G03*
X23230Y5400I-80J0D01*
G01*
Y4400D02*
G03*
X23230Y4400I-80J0D01*
G01*
Y3400D02*
G03*
X23230Y3400I-80J0D01*
G01*
X19481Y15241D02*
G03*
X19481Y15241I-80J0D01*
G01*
X14559D02*
G03*
X14559Y15241I-80J0D01*
G01*
X19481Y16641D02*
G03*
X19481Y16641I-80J0D01*
G01*
X14559D02*
G03*
X14559Y16641I-80J0D01*
G01*
X19431Y17991D02*
G03*
X19431Y17991I-80J0D01*
G01*
X14509D02*
G03*
X14509Y17991I-80J0D01*
G01*
X19431Y19341D02*
G03*
X19431Y19341I-80J0D01*
G01*
X14509D02*
G03*
X14509Y19341I-80J0D01*
G01*
X19431Y20691D02*
G03*
X19431Y20691I-80J0D01*
G01*
X14509D02*
G03*
X14509Y20691I-80J0D01*
G01*
X19431Y22041D02*
G03*
X19431Y22041I-80J0D01*
G01*
X14509D02*
G03*
X14509Y22041I-80J0D01*
G01*
X19431Y23391D02*
G03*
X19431Y23391I-80J0D01*
G01*
X14509D02*
G03*
X14509Y23391I-80J0D01*
G01*
X19431Y24741D02*
G03*
X19431Y24741I-80J0D01*
G01*
X14509D02*
G03*
X14509Y24741I-80J0D01*
G01*
X29130Y6000D02*
G03*
X29130Y6000I-80J0D01*
G01*
Y7000D02*
G03*
X29130Y7000I-80J0D01*
G01*
Y9200D02*
G03*
X29130Y9200I-80J0D01*
G01*
Y8200D02*
G03*
X29130Y8200I-80J0D01*
G01*
X3514Y25450D02*
G03*
X3514Y25450I-80J0D01*
G01*
Y26237D02*
G03*
X3514Y26237I-80J0D01*
G01*
X1546Y24663D02*
G03*
X1546Y24663I-80J0D01*
G01*
Y25450D02*
G03*
X1546Y25450I-80J0D01*
G01*
Y26237D02*
G03*
X1546Y26237I-80J0D01*
G01*
X3514Y24663D02*
G03*
X3514Y24663I-80J0D01*
G01*
X27780Y4700D02*
G03*
X27780Y4700I-80J0D01*
G01*
X26780D02*
G03*
X26780Y4700I-80J0D01*
G01*
X26880Y6500D02*
G03*
X26880Y6500I-80J0D01*
G01*
X27880D02*
G03*
X27880Y6500I-80J0D01*
G01*
X27730Y8250D02*
G03*
X27730Y8250I-80J0D01*
G01*
X26730D02*
G03*
X26730Y8250I-80J0D01*
G01*
X26830Y9950D02*
G03*
X26830Y9950I-80J0D01*
G01*
X27830D02*
G03*
X27830Y9950I-80J0D01*
G01*
M02*
