G04 Layer_Color=2752767*
%FSLAX24Y24*%
%MOIN*%
G70*
G01*
G75*
%ADD49C,0.0020*%
%ADD50C,0.0027*%
D49*
X21320Y21104D02*
Y21264D01*
X21480D01*
Y21104D01*
X21320D01*
X21320Y19136D02*
Y19296D01*
X21480D01*
Y19136D01*
X21320D01*
X21320Y21920D02*
Y22080D01*
X21480D01*
Y21920D01*
X21320D01*
X21320Y23888D02*
Y24049D01*
X21480D01*
Y23888D01*
X21320D01*
X20928Y36920D02*
Y37080D01*
X21088D01*
Y36920D01*
X20928D01*
X21912D02*
Y37080D01*
X22072D01*
Y36920D01*
X21912D01*
X39800Y20020D02*
X39720Y20180D01*
X39880D01*
X39800Y20020D01*
Y21020D02*
X39720Y21180D01*
X39880D01*
X39800Y21020D01*
Y22020D02*
X39720Y22180D01*
X39880D01*
X39800Y22020D01*
Y23020D02*
X39720Y23180D01*
X39880D01*
X39800Y23020D01*
Y24020D02*
X39840Y24060D01*
X39880D01*
X39840Y24100D01*
X39880Y24140D01*
X39840D01*
X39800Y24180D01*
X39760Y24140D01*
X39720D01*
X39760Y24100D01*
X39720Y24060D01*
X39760D01*
X39800Y24020D01*
X37120Y24720D02*
X37160Y24800D01*
X37120Y24880D01*
X37200Y24840D01*
X37280Y24880D01*
X37240Y24800D01*
X37280Y24720D01*
X37200Y24760D01*
X37120Y24720D01*
Y17420D02*
X37160Y17500D01*
X37120Y17580D01*
X37200Y17540D01*
X37280Y17580D01*
X37240Y17500D01*
X37280Y17420D01*
X37200Y17460D01*
X37120Y17420D01*
X39800Y19020D02*
X39840Y19060D01*
X39880D01*
X39840Y19100D01*
X39880Y19140D01*
X39840D01*
X39800Y19180D01*
X39760Y19140D01*
X39720D01*
X39760Y19100D01*
X39720Y19060D01*
X39760D01*
X39800Y19020D01*
Y18020D02*
X39720Y18180D01*
X39880D01*
X39800Y18020D01*
X41800Y24520D02*
X41720Y24680D01*
X41880D01*
X41800Y24520D01*
Y23520D02*
X41720Y23680D01*
X41880D01*
X41800Y23520D01*
Y22520D02*
X41720Y22680D01*
X41880D01*
X41800Y22520D01*
Y21520D02*
X41720Y21680D01*
X41880D01*
X41800Y21520D01*
Y20520D02*
X41720Y20680D01*
X41880D01*
X41800Y20520D01*
Y19520D02*
X41720Y19680D01*
X41880D01*
X41800Y19520D01*
Y18520D02*
X41720Y18680D01*
X41880D01*
X41800Y18520D01*
Y17520D02*
X41720Y17680D01*
X41880D01*
X41800Y17520D01*
X49580Y13460D02*
Y13420D01*
X49660D01*
Y13460D01*
X49700D01*
Y13540D01*
X49660D01*
Y13580D01*
X49580D01*
Y13540D01*
X49540D01*
Y13460D01*
X49580D01*
X49600Y26920D02*
X49520Y27080D01*
X49680D01*
X49600Y26920D01*
X48600D02*
X48520Y27080D01*
X48680D01*
X48600Y26920D01*
X46800D02*
X46720Y27080D01*
X46880D01*
X46800Y26920D01*
X45800D02*
X45720Y27080D01*
X45880D01*
X45800Y26920D01*
X37451Y38370D02*
X37371Y38530D01*
X37531D01*
X37451Y38370D01*
X32529D02*
X32449Y38530D01*
X32609D01*
X32529Y38370D01*
X37451Y37020D02*
X37371Y37180D01*
X37531D01*
X37451Y37020D01*
X32529D02*
X32449Y37180D01*
X32609D01*
X32529Y37020D01*
X37451Y35670D02*
X37371Y35830D01*
X37531D01*
X37451Y35670D01*
X32529D02*
X32449Y35830D01*
X32609D01*
X32529Y35670D01*
X37451Y34320D02*
X37371Y34480D01*
X37531D01*
X37451Y34320D01*
X32529D02*
X32449Y34480D01*
X32609D01*
X32529Y34320D01*
X37451Y32970D02*
X37371Y33130D01*
X37531D01*
X37451Y32970D01*
X32529D02*
X32449Y33130D01*
X32609D01*
X32529Y32970D01*
X37451Y31620D02*
X37371Y31780D01*
X37531D01*
X37451Y31620D01*
X32529D02*
X32449Y31780D01*
X32609D01*
X32529Y31620D01*
X37501Y30270D02*
X37421Y30430D01*
X37581D01*
X37501Y30270D01*
X32579D02*
X32499Y30430D01*
X32659D01*
X32579Y30270D01*
X37501Y28870D02*
X37421Y29030D01*
X37581D01*
X37501Y28870D01*
X32579D02*
X32499Y29030D01*
X32659D01*
X32579Y28870D01*
X30020Y48620D02*
Y48780D01*
X30180D01*
Y48620D01*
X30020D01*
X31020D02*
Y48780D01*
X31180D01*
Y48620D01*
X31020D01*
X32020D02*
Y48780D01*
X32180D01*
Y48620D01*
X32020D01*
X33020D02*
Y48780D01*
X33180D01*
Y48620D01*
X33020D01*
X34020D02*
Y48780D01*
X34180D01*
Y48620D01*
X34020D01*
X35020D02*
Y48780D01*
X35180D01*
Y48620D01*
X35020D01*
Y44620D02*
Y44780D01*
X35180D01*
Y44620D01*
X35020D01*
X34020D02*
Y44780D01*
X34180D01*
Y44620D01*
X34020D01*
X33020D02*
Y44780D01*
X33180D01*
Y44620D01*
X33020D01*
X32020D02*
Y44780D01*
X32180D01*
Y44620D01*
X32020D01*
X31020D02*
Y44780D01*
X31180D01*
Y44620D01*
X31020D01*
X30020D02*
Y44780D01*
X30180D01*
Y44620D01*
X30020D01*
X16714Y44290D02*
X16634Y44450D01*
X16794D01*
X16714Y44290D01*
Y45077D02*
X16634Y45237D01*
X16794D01*
X16714Y45077D01*
X14746Y43503D02*
X14666Y43663D01*
X14826D01*
X14746Y43503D01*
Y44290D02*
X14666Y44450D01*
X14826D01*
X14746Y44290D01*
Y45077D02*
X14666Y45237D01*
X14826D01*
X14746Y45077D01*
X16714Y43503D02*
X16634Y43663D01*
X16794D01*
X16714Y43503D01*
X18016Y35135D02*
X18056D01*
X18096Y35175D01*
X18136Y35135D01*
X18176D01*
Y35175D01*
X18136Y35215D01*
X18176Y35255D01*
Y35295D01*
X18136D01*
X18096Y35255D01*
X18056Y35295D01*
X18016D01*
Y35255D01*
X18056Y35215D01*
X18016Y35175D01*
Y35135D01*
X15024D02*
X15064D01*
X15104Y35175D01*
X15144Y35135D01*
X15184D01*
Y35175D01*
X15144Y35215D01*
X15184Y35255D01*
Y35295D01*
X15144D01*
X15104Y35255D01*
X15064Y35295D01*
X15024D01*
Y35255D01*
X15064Y35215D01*
X15024Y35175D01*
Y35135D01*
X23320Y20620D02*
Y20780D01*
X23480D01*
Y20620D01*
X23320D01*
Y22620D02*
Y22780D01*
X23480D01*
Y22620D01*
X23320D01*
X13850Y13230D02*
Y13190D01*
X13930D01*
Y13230D01*
X13970D01*
Y13310D01*
X13930D01*
Y13350D01*
X13850D01*
Y13310D01*
X13810D01*
Y13230D01*
X13850D01*
X15028Y28220D02*
X15068D01*
X15108Y28260D01*
X15148Y28220D01*
X15188D01*
Y28260D01*
X15148Y28300D01*
X15188Y28340D01*
Y28380D01*
X15148D01*
X15108Y28340D01*
X15068Y28380D01*
X15028D01*
Y28340D01*
X15068Y28300D01*
X15028Y28260D01*
Y28220D01*
X18020D02*
X18060D01*
X18100Y28260D01*
X18140Y28220D01*
X18180D01*
Y28260D01*
X18140Y28300D01*
X18180Y28340D01*
Y28380D01*
X18140D01*
X18100Y28340D01*
X18060Y28380D01*
X18020D01*
Y28340D01*
X18060Y28300D01*
X18020Y28260D01*
Y28220D01*
X14150Y48760D02*
Y48720D01*
X14230D01*
Y48760D01*
X14270D01*
Y48840D01*
X14230D01*
Y48880D01*
X14150D01*
Y48840D01*
X14110D01*
Y48760D01*
X14150D01*
X30910Y20070D02*
Y20230D01*
X31070D01*
Y20070D01*
X30910D01*
Y21070D02*
Y21230D01*
X31070D01*
Y21070D01*
X30910D01*
Y22070D02*
Y22230D01*
X31070D01*
Y22070D01*
X30910D01*
Y23070D02*
Y23230D01*
X31070D01*
Y23070D01*
X30910D01*
Y24070D02*
Y24230D01*
X31070D01*
Y24070D01*
X30910D01*
Y25070D02*
Y25230D01*
X31070D01*
Y25070D01*
X30910D01*
Y26070D02*
Y26230D01*
X31070D01*
Y26070D01*
X30910D01*
Y27070D02*
Y27230D01*
X31070D01*
Y27070D01*
X30910D01*
Y28070D02*
Y28230D01*
X31070D01*
Y28070D01*
X30910D01*
Y29070D02*
Y29230D01*
X31070D01*
Y29070D01*
X30910D01*
Y30070D02*
Y30230D01*
X31070D01*
Y30070D01*
X30910D01*
Y31070D02*
Y31230D01*
X31070D01*
Y31070D01*
X30910D01*
Y32070D02*
Y32230D01*
X31070D01*
Y32070D01*
X30910D01*
Y33070D02*
Y33230D01*
X31070D01*
Y33070D01*
X30910D01*
Y34070D02*
Y34230D01*
X31070D01*
Y34070D01*
X30910D01*
Y35070D02*
Y35230D01*
X31070D01*
Y35070D01*
X30910D01*
Y36070D02*
Y36230D01*
X31070D01*
Y36070D01*
X30910D01*
Y37070D02*
Y37230D01*
X31070D01*
Y37070D01*
X30910D01*
Y38070D02*
Y38230D01*
X31070D01*
Y38070D01*
X30910D01*
Y39070D02*
Y39230D01*
X31070D01*
Y39070D01*
X30910D01*
X24910Y20070D02*
Y20230D01*
X25070D01*
Y20070D01*
X24910D01*
Y21070D02*
Y21230D01*
X25070D01*
Y21070D01*
X24910D01*
Y22070D02*
Y22230D01*
X25070D01*
Y22070D01*
X24910D01*
Y23070D02*
Y23230D01*
X25070D01*
Y23070D01*
X24910D01*
Y24070D02*
Y24230D01*
X25070D01*
Y24070D01*
X24910D01*
Y25070D02*
Y25230D01*
X25070D01*
Y25070D01*
X24910D01*
Y26070D02*
Y26230D01*
X25070D01*
Y26070D01*
X24910D01*
Y27070D02*
Y27230D01*
X25070D01*
Y27070D01*
X24910D01*
Y28070D02*
Y28230D01*
X25070D01*
Y28070D01*
X24910D01*
Y29070D02*
Y29230D01*
X25070D01*
Y29070D01*
X24910D01*
Y30070D02*
Y30230D01*
X25070D01*
Y30070D01*
X24910D01*
Y31070D02*
Y31230D01*
X25070D01*
Y31070D01*
X24910D01*
Y32070D02*
Y32230D01*
X25070D01*
Y32070D01*
X24910D01*
Y33070D02*
Y33230D01*
X25070D01*
Y33070D01*
X24910D01*
Y34070D02*
Y34230D01*
X25070D01*
Y34070D01*
X24910D01*
Y35070D02*
Y35230D01*
X25070D01*
Y35070D01*
X24910D01*
Y36070D02*
Y36230D01*
X25070D01*
Y36070D01*
X24910D01*
Y37070D02*
Y37230D01*
X25070D01*
Y37070D01*
X24910D01*
Y38070D02*
Y38230D01*
X25070D01*
Y38070D01*
X24910D01*
Y39070D02*
Y39230D01*
X25070D01*
Y39070D01*
X24910D01*
X47840Y18320D02*
X47760Y18480D01*
X47920D01*
X47840Y18320D01*
X46840D02*
X46760Y18480D01*
X46920D01*
X46840Y18320D01*
Y19970D02*
X46760Y20130D01*
X46920D01*
X46840Y19970D01*
X47840D02*
X47760Y20130D01*
X47920D01*
X47840Y19970D01*
Y21670D02*
X47760Y21830D01*
X47920D01*
X47840Y21670D01*
X46840D02*
X46760Y21830D01*
X46920D01*
X46840Y21670D01*
Y23670D02*
X46760Y23830D01*
X46920D01*
X46840Y23670D01*
X47840D02*
X47760Y23830D01*
X47920D01*
X47840Y23670D01*
X49320Y48760D02*
Y48720D01*
X49400D01*
Y48760D01*
X49440D01*
Y48840D01*
X49400D01*
Y48880D01*
X49320D01*
Y48840D01*
X49280D01*
Y48760D01*
X49320D01*
X34220Y35400D02*
X34300Y35480D01*
X34380Y35400D01*
X34300Y35320D01*
X34220Y35400D01*
Y34600D02*
X34300Y34680D01*
X34380Y34600D01*
X34300Y34520D01*
X34220Y34600D01*
X42520Y25500D02*
X42600Y25580D01*
X42680Y25500D01*
X42600Y25420D01*
X42520Y25500D01*
X43720Y21250D02*
X43800Y21330D01*
X43880Y21250D01*
X43800Y21170D01*
X43720Y21250D01*
X43820Y17200D02*
X43900Y17280D01*
X43980Y17200D01*
X43900Y17120D01*
X43820Y17200D01*
X43720Y20400D02*
X43800Y20480D01*
X43880Y20400D01*
X43800Y20320D01*
X43720Y20400D01*
Y19500D02*
X43800Y19580D01*
X43880Y19500D01*
X43800Y19420D01*
X43720Y19500D01*
Y23000D02*
X43800Y23080D01*
X43880Y23000D01*
X43800Y22920D01*
X43720Y23000D01*
X38820Y43100D02*
X38900Y43180D01*
X38980Y43100D01*
X38900Y43020D01*
X38820Y43100D01*
Y40800D02*
X38900Y40880D01*
X38980Y40800D01*
X38900Y40720D01*
X38820Y40800D01*
X37420Y43300D02*
X37500Y43380D01*
X37580Y43300D01*
X37500Y43220D01*
X37420Y43300D01*
X45595Y24545D02*
X45675Y24625D01*
X45755Y24545D01*
X45675Y24465D01*
X45595Y24545D01*
X28830Y41850D02*
X28910Y41930D01*
X28990Y41850D01*
X28910Y41770D01*
X28830Y41850D01*
X23780Y35400D02*
X23860Y35480D01*
X23940Y35400D01*
X23860Y35320D01*
X23780Y35400D01*
D50*
X13580Y39900D02*
G03*
X13580Y39900I-80J0D01*
G01*
Y40900D02*
G03*
X13580Y40900I-80J0D01*
G01*
Y41900D02*
G03*
X13580Y41900I-80J0D01*
G01*
Y42900D02*
G03*
X13580Y42900I-80J0D01*
G01*
X32470Y20140D02*
G03*
X32470Y20140I-80J0D01*
G01*
Y21140D02*
G03*
X32470Y21140I-80J0D01*
G01*
Y22140D02*
G03*
X32470Y22140I-80J0D01*
G01*
Y23140D02*
G03*
X32470Y23140I-80J0D01*
G01*
X41980Y34000D02*
G03*
X41980Y34000I-80J0D01*
G01*
Y33000D02*
G03*
X41980Y33000I-80J0D01*
G01*
Y32000D02*
G03*
X41980Y32000I-80J0D01*
G01*
X17770Y46680D02*
G03*
X17770Y46680I-80J0D01*
G01*
X16770D02*
G03*
X16770Y46680I-80J0D01*
G01*
X21280D02*
G03*
X21280Y46680I-80J0D01*
G01*
X20280D02*
G03*
X20280Y46680I-80J0D01*
G01*
X23120Y31150D02*
G03*
X23120Y31150I-80J0D01*
G01*
Y30150D02*
G03*
X23120Y30150I-80J0D01*
G01*
Y29150D02*
G03*
X23120Y29150I-80J0D01*
G01*
Y28150D02*
G03*
X23120Y28150I-80J0D01*
G01*
X30631Y14164D02*
G03*
X30631Y14164I-80J0D01*
G01*
Y15936D02*
G03*
X30631Y15936I-80J0D01*
G01*
X33309D02*
G03*
X33309Y15936I-80J0D01*
G01*
Y14164D02*
G03*
X33309Y14164I-80J0D01*
G01*
X26521D02*
G03*
X26521Y14164I-80J0D01*
G01*
Y15936D02*
G03*
X26521Y15936I-80J0D01*
G01*
X29199D02*
G03*
X29199Y15936I-80J0D01*
G01*
Y14164D02*
G03*
X29199Y14164I-80J0D01*
G01*
X22573D02*
G03*
X22573Y14164I-80J0D01*
G01*
Y15936D02*
G03*
X22573Y15936I-80J0D01*
G01*
X25250D02*
G03*
X25250Y15936I-80J0D01*
G01*
Y14164D02*
G03*
X25250Y14164I-80J0D01*
G01*
X16480Y18400D02*
G03*
X16480Y18400I-80J0D01*
G01*
Y17400D02*
G03*
X16480Y17400I-80J0D01*
G01*
Y16400D02*
G03*
X16480Y16400I-80J0D01*
G01*
Y15400D02*
G03*
X16480Y15400I-80J0D01*
G01*
Y19800D02*
G03*
X16480Y19800I-80J0D01*
G01*
Y20800D02*
G03*
X16480Y20800I-80J0D01*
G01*
Y21800D02*
G03*
X16480Y21800I-80J0D01*
G01*
Y22800D02*
G03*
X16480Y22800I-80J0D01*
G01*
X17366Y40600D02*
G03*
X17366Y40600I-80J0D01*
G01*
X16480D02*
G03*
X16480Y40600I-80J0D01*
G01*
X15594D02*
G03*
X15594Y40600I-80J0D01*
G01*
M02*
