G04 Layer_Color=32896*
%FSLAX24Y24*%
%MOIN*%
G70*
G01*
G75*
%ADD37C,0.0100*%
%ADD44C,0.0060*%
%ADD45C,0.0080*%
G36*
X25564Y4160D02*
X25542D01*
Y4215D01*
X25516Y4241D01*
X25459Y4160D01*
X25431D01*
X25501Y4255D01*
X25434Y4320D01*
X25463D01*
X25542Y4240D01*
Y4320D01*
X25564D01*
Y4160D01*
D02*
G37*
G36*
X4043Y19063D02*
X4048Y19060D01*
X4052Y19057D01*
X4056Y19054D01*
X4059Y19051D01*
X4061Y19049D01*
X4063Y19047D01*
X4064Y19046D01*
X4065Y19045D01*
X4066Y19044D01*
X4068Y19041D01*
X4070Y19037D01*
X4071Y19035D01*
X4072Y19034D01*
X4073Y19033D01*
X4073Y19033D01*
X4073Y19037D01*
X4074Y19041D01*
X4075Y19044D01*
X4076Y19048D01*
X4077Y19051D01*
X4079Y19053D01*
X4080Y19056D01*
X4081Y19058D01*
X4082Y19060D01*
X4084Y19062D01*
X4085Y19063D01*
X4085Y19065D01*
X4086Y19066D01*
X4087Y19066D01*
X4087Y19066D01*
X4087Y19067D01*
X4090Y19068D01*
X4092Y19070D01*
X4097Y19073D01*
X4102Y19075D01*
X4106Y19076D01*
X4110Y19077D01*
X4112Y19078D01*
X4113D01*
X4115Y19078D01*
X4116D01*
X4121Y19078D01*
X4125Y19077D01*
X4130Y19076D01*
X4133Y19075D01*
X4136Y19073D01*
X4138Y19072D01*
X4140Y19071D01*
X4140Y19071D01*
X4140D01*
X4144Y19068D01*
X4147Y19066D01*
X4150Y19062D01*
X4152Y19060D01*
X4154Y19057D01*
X4155Y19055D01*
X4155Y19054D01*
X4155Y19053D01*
Y19053D01*
X4156Y19051D01*
X4157Y19049D01*
X4158Y19044D01*
X4159Y19038D01*
X4159Y19033D01*
X4160Y19028D01*
Y19026D01*
X4160Y19024D01*
Y19023D01*
Y19022D01*
Y19021D01*
Y19021D01*
Y18950D01*
X4000D01*
Y18971D01*
X4071D01*
Y18996D01*
Y18999D01*
X4071Y19001D01*
Y19003D01*
X4070Y19005D01*
X4070Y19006D01*
Y19007D01*
X4070Y19007D01*
Y19007D01*
X4069Y19011D01*
X4068Y19013D01*
X4067Y19014D01*
X4067Y19015D01*
X4066Y19016D01*
X4066Y19017D01*
X4066Y19017D01*
X4064Y19019D01*
X4063Y19021D01*
X4059Y19024D01*
X4058Y19026D01*
X4056Y19027D01*
X4055Y19028D01*
X4055Y19028D01*
X4052Y19030D01*
X4049Y19033D01*
X4045Y19035D01*
X4041Y19038D01*
X4038Y19040D01*
X4036Y19041D01*
X4035Y19042D01*
X4034Y19043D01*
X4033Y19043D01*
X4033D01*
X4000Y19064D01*
Y19090D01*
X4043Y19063D01*
D02*
G37*
G36*
X4161Y19164D02*
X4157Y19162D01*
X4153Y19159D01*
X4149Y19156D01*
X4146Y19154D01*
X4143Y19151D01*
X4141Y19149D01*
X4140Y19148D01*
X4140Y19147D01*
X4139Y19147D01*
X4139Y19147D01*
X4135Y19142D01*
X4131Y19137D01*
X4128Y19132D01*
X4126Y19128D01*
X4123Y19124D01*
X4122Y19122D01*
X4122Y19121D01*
X4121Y19120D01*
X4121Y19119D01*
X4120Y19118D01*
Y19118D01*
X4101D01*
X4103Y19121D01*
X4104Y19125D01*
X4106Y19128D01*
X4108Y19132D01*
X4109Y19134D01*
X4110Y19137D01*
X4111Y19138D01*
X4111Y19138D01*
Y19138D01*
X4114Y19143D01*
X4116Y19146D01*
X4119Y19150D01*
X4121Y19152D01*
X4122Y19154D01*
X4124Y19156D01*
X4125Y19157D01*
X4125Y19157D01*
X4000D01*
Y19177D01*
X4161D01*
Y19164D01*
D02*
G37*
G36*
X25478Y5640D02*
X25482Y5640D01*
X25486Y5639D01*
X25489Y5639D01*
X25493Y5638D01*
X25496Y5637D01*
X25498Y5636D01*
X25501Y5635D01*
X25503Y5633D01*
X25505Y5632D01*
X25507Y5631D01*
X25508Y5630D01*
X25509Y5630D01*
X25510Y5629D01*
X25510Y5629D01*
X25511Y5629D01*
X25513Y5626D01*
X25515Y5624D01*
X25517Y5621D01*
X25519Y5618D01*
X25522Y5613D01*
X25523Y5607D01*
X25524Y5605D01*
X25525Y5602D01*
X25525Y5600D01*
X25526Y5598D01*
X25526Y5596D01*
Y5595D01*
X25526Y5595D01*
Y5594D01*
X25506Y5592D01*
X25506Y5598D01*
X25505Y5602D01*
X25503Y5606D01*
X25502Y5610D01*
X25500Y5612D01*
X25499Y5614D01*
X25498Y5615D01*
X25498Y5616D01*
X25494Y5619D01*
X25490Y5621D01*
X25486Y5622D01*
X25483Y5623D01*
X25480Y5624D01*
X25477Y5624D01*
X25476Y5624D01*
X25475D01*
X25470Y5624D01*
X25465Y5623D01*
X25462Y5622D01*
X25458Y5620D01*
X25456Y5619D01*
X25454Y5618D01*
X25453Y5617D01*
X25453Y5616D01*
X25450Y5613D01*
X25448Y5610D01*
X25446Y5607D01*
X25445Y5603D01*
X25445Y5601D01*
X25444Y5598D01*
X25444Y5597D01*
Y5597D01*
Y5597D01*
X25445Y5592D01*
X25446Y5588D01*
X25447Y5584D01*
X25449Y5580D01*
X25451Y5577D01*
X25452Y5575D01*
X25453Y5574D01*
X25453Y5573D01*
X25454Y5573D01*
Y5573D01*
X25455Y5570D01*
X25458Y5568D01*
X25460Y5565D01*
X25463Y5562D01*
X25469Y5557D01*
X25475Y5551D01*
X25478Y5549D01*
X25480Y5546D01*
X25483Y5544D01*
X25485Y5542D01*
X25486Y5541D01*
X25488Y5540D01*
X25489Y5539D01*
X25489Y5539D01*
X25495Y5534D01*
X25500Y5529D01*
X25504Y5525D01*
X25508Y5522D01*
X25511Y5519D01*
X25513Y5517D01*
X25514Y5515D01*
X25515Y5515D01*
Y5515D01*
X25518Y5511D01*
X25520Y5507D01*
X25523Y5504D01*
X25525Y5500D01*
X25526Y5498D01*
X25527Y5495D01*
X25527Y5494D01*
X25528Y5494D01*
Y5494D01*
X25528Y5491D01*
X25529Y5489D01*
X25529Y5486D01*
X25530Y5484D01*
X25530Y5483D01*
Y5481D01*
Y5480D01*
Y5480D01*
X25424D01*
Y5499D01*
X25503D01*
X25500Y5503D01*
X25498Y5504D01*
X25497Y5506D01*
X25496Y5507D01*
X25495Y5508D01*
X25495Y5509D01*
X25494Y5509D01*
X25493Y5510D01*
X25492Y5512D01*
X25489Y5515D01*
X25485Y5518D01*
X25481Y5522D01*
X25477Y5525D01*
X25476Y5526D01*
X25474Y5527D01*
X25473Y5528D01*
X25472Y5529D01*
X25472Y5529D01*
X25471Y5530D01*
X25468Y5533D01*
X25464Y5536D01*
X25461Y5539D01*
X25458Y5541D01*
X25455Y5544D01*
X25453Y5546D01*
X25450Y5548D01*
X25449Y5550D01*
X25447Y5552D01*
X25445Y5553D01*
X25444Y5555D01*
X25443Y5556D01*
X25442Y5557D01*
X25441Y5558D01*
X25438Y5562D01*
X25435Y5565D01*
X25433Y5568D01*
X25431Y5571D01*
X25430Y5574D01*
X25429Y5576D01*
X25428Y5577D01*
X25428Y5577D01*
X25427Y5581D01*
X25426Y5584D01*
X25425Y5587D01*
X25425Y5590D01*
X25424Y5593D01*
X25424Y5595D01*
Y5596D01*
Y5596D01*
X25424Y5600D01*
X25425Y5603D01*
X25425Y5606D01*
X25426Y5609D01*
X25428Y5614D01*
X25431Y5619D01*
X25432Y5621D01*
X25433Y5623D01*
X25434Y5624D01*
X25436Y5625D01*
X25437Y5626D01*
X25437Y5627D01*
X25437Y5627D01*
X25438Y5628D01*
X25440Y5630D01*
X25443Y5632D01*
X25446Y5634D01*
X25449Y5635D01*
X25455Y5637D01*
X25461Y5639D01*
X25464Y5639D01*
X25466Y5640D01*
X25468Y5640D01*
X25470Y5640D01*
X25472Y5641D01*
X25474D01*
X25478Y5640D01*
D02*
G37*
G36*
X4087Y19331D02*
X4091D01*
X4095Y19331D01*
X4098Y19331D01*
X4101Y19330D01*
X4104Y19330D01*
X4106Y19330D01*
X4109Y19330D01*
X4111Y19329D01*
X4112Y19329D01*
X4114Y19329D01*
X4115Y19328D01*
X4116Y19328D01*
X4116Y19328D01*
X4116D01*
X4122Y19327D01*
X4126Y19325D01*
X4130Y19323D01*
X4134Y19322D01*
X4137Y19320D01*
X4139Y19319D01*
X4140Y19318D01*
X4140Y19318D01*
X4144Y19315D01*
X4147Y19313D01*
X4149Y19310D01*
X4152Y19308D01*
X4153Y19305D01*
X4154Y19303D01*
X4155Y19302D01*
X4155Y19302D01*
Y19302D01*
X4157Y19298D01*
X4158Y19294D01*
X4159Y19290D01*
X4160Y19287D01*
X4160Y19284D01*
X4161Y19281D01*
Y19281D01*
Y19280D01*
Y19280D01*
Y19279D01*
X4160Y19273D01*
X4159Y19267D01*
X4158Y19263D01*
X4156Y19258D01*
X4154Y19255D01*
X4153Y19254D01*
X4152Y19252D01*
X4152Y19251D01*
X4152Y19251D01*
X4151Y19251D01*
Y19250D01*
X4147Y19246D01*
X4143Y19243D01*
X4139Y19240D01*
X4134Y19237D01*
X4131Y19236D01*
X4129Y19235D01*
X4127Y19234D01*
X4126Y19234D01*
X4125Y19233D01*
X4125Y19233D01*
X4125D01*
X4121Y19232D01*
X4118Y19231D01*
X4110Y19230D01*
X4102Y19229D01*
X4095Y19228D01*
X4092Y19228D01*
X4089Y19227D01*
X4086D01*
X4083Y19227D01*
X4079D01*
X4071Y19227D01*
X4063Y19228D01*
X4056Y19229D01*
X4050Y19230D01*
X4044Y19231D01*
X4038Y19232D01*
X4033Y19234D01*
X4029Y19235D01*
X4026Y19236D01*
X4022Y19238D01*
X4020Y19239D01*
X4018Y19240D01*
X4016Y19242D01*
X4015Y19242D01*
X4014Y19243D01*
X4014Y19243D01*
X4011Y19245D01*
X4008Y19248D01*
X4006Y19251D01*
X4004Y19254D01*
X4003Y19257D01*
X4001Y19260D01*
X4000Y19263D01*
X3999Y19266D01*
X3999Y19269D01*
X3998Y19271D01*
X3998Y19274D01*
X3997Y19275D01*
X3997Y19277D01*
Y19278D01*
Y19279D01*
Y19279D01*
X3998Y19286D01*
X3999Y19291D01*
X4000Y19296D01*
X4002Y19300D01*
X4003Y19304D01*
X4004Y19305D01*
X4005Y19306D01*
X4006Y19307D01*
X4006Y19308D01*
X4006Y19308D01*
Y19308D01*
X4010Y19312D01*
X4015Y19316D01*
X4019Y19319D01*
X4023Y19321D01*
X4027Y19323D01*
X4029Y19324D01*
X4030Y19324D01*
X4032Y19325D01*
X4033Y19325D01*
X4033Y19326D01*
X4033D01*
X4037Y19327D01*
X4040Y19328D01*
X4048Y19329D01*
X4055Y19330D01*
X4063Y19331D01*
X4066Y19331D01*
X4069Y19331D01*
X4072D01*
X4074Y19332D01*
X4083D01*
X4087Y19331D01*
D02*
G37*
G36*
X26136Y6117D02*
X26139Y6113D01*
X26142Y6109D01*
X26144Y6106D01*
X26147Y6103D01*
X26149Y6101D01*
X26150Y6100D01*
X26151Y6100D01*
X26151Y6099D01*
X26151Y6099D01*
X26156Y6095D01*
X26161Y6091D01*
X26166Y6088D01*
X26170Y6086D01*
X26174Y6083D01*
X26176Y6082D01*
X26177Y6082D01*
X26178Y6081D01*
X26179Y6081D01*
X26180Y6080D01*
X26180D01*
Y6061D01*
X26177Y6063D01*
X26173Y6064D01*
X26170Y6066D01*
X26166Y6068D01*
X26164Y6069D01*
X26161Y6070D01*
X26160Y6071D01*
X26160Y6071D01*
X26159D01*
X26155Y6074D01*
X26152Y6076D01*
X26148Y6079D01*
X26146Y6081D01*
X26144Y6082D01*
X26142Y6084D01*
X26141Y6085D01*
X26141Y6085D01*
Y5960D01*
X26121D01*
Y6121D01*
X26134D01*
X26136Y6117D01*
D02*
G37*
G36*
X26180Y8180D02*
X26159D01*
Y8251D01*
X26131D01*
X26129Y8251D01*
X26127D01*
X26125Y8250D01*
X26124Y8250D01*
X26123D01*
X26123Y8250D01*
X26123D01*
X26119Y8249D01*
X26117Y8248D01*
X26116Y8247D01*
X26115Y8247D01*
X26114Y8246D01*
X26113Y8246D01*
X26113Y8246D01*
X26111Y8244D01*
X26109Y8243D01*
X26106Y8239D01*
X26104Y8238D01*
X26103Y8236D01*
X26102Y8235D01*
X26102Y8235D01*
X26100Y8232D01*
X26097Y8229D01*
X26095Y8225D01*
X26092Y8221D01*
X26090Y8218D01*
X26089Y8216D01*
X26088Y8215D01*
X26087Y8214D01*
X26087Y8213D01*
Y8213D01*
X26066Y8180D01*
X26040D01*
X26067Y8223D01*
X26070Y8228D01*
X26073Y8232D01*
X26076Y8236D01*
X26079Y8239D01*
X26081Y8241D01*
X26083Y8243D01*
X26084Y8244D01*
X26085Y8245D01*
X26086Y8246D01*
X26089Y8248D01*
X26093Y8250D01*
X26095Y8251D01*
X26096Y8252D01*
X26097Y8253D01*
X26097Y8253D01*
X26093Y8253D01*
X26089Y8254D01*
X26086Y8255D01*
X26082Y8256D01*
X26079Y8257D01*
X26077Y8259D01*
X26074Y8260D01*
X26072Y8261D01*
X26070Y8262D01*
X26068Y8264D01*
X26067Y8265D01*
X26065Y8265D01*
X26065Y8266D01*
X26064Y8267D01*
X26064Y8267D01*
X26063Y8267D01*
X26061Y8270D01*
X26060Y8272D01*
X26057Y8277D01*
X26055Y8282D01*
X26054Y8286D01*
X26053Y8290D01*
X26052Y8292D01*
Y8293D01*
X26052Y8295D01*
Y8296D01*
Y8296D01*
Y8296D01*
X26052Y8301D01*
X26053Y8305D01*
X26054Y8310D01*
X26055Y8313D01*
X26057Y8316D01*
X26058Y8318D01*
X26059Y8320D01*
X26059Y8320D01*
Y8320D01*
X26062Y8324D01*
X26065Y8327D01*
X26068Y8330D01*
X26070Y8332D01*
X26073Y8334D01*
X26075Y8335D01*
X26076Y8335D01*
X26077Y8335D01*
X26077D01*
X26079Y8336D01*
X26081Y8337D01*
X26086Y8338D01*
X26092Y8339D01*
X26097Y8339D01*
X26102Y8340D01*
X26104D01*
X26106Y8340D01*
X26180D01*
Y8180D01*
D02*
G37*
G36*
X25857Y8340D02*
X25860Y8340D01*
X25864Y8339D01*
X25867Y8338D01*
X25873Y8336D01*
X25876Y8335D01*
X25879Y8333D01*
X25881Y8332D01*
X25883Y8330D01*
X25885Y8329D01*
X25886Y8328D01*
X25887Y8327D01*
X25888Y8326D01*
X25888Y8326D01*
X25888Y8326D01*
X25891Y8323D01*
X25893Y8320D01*
X25895Y8317D01*
X25897Y8313D01*
X25898Y8310D01*
X25899Y8307D01*
X25901Y8301D01*
X25902Y8298D01*
X25902Y8295D01*
X25902Y8292D01*
X25903Y8290D01*
X25903Y8289D01*
Y8288D01*
Y8287D01*
Y8286D01*
X25903Y8282D01*
X25902Y8278D01*
X25902Y8274D01*
X25901Y8271D01*
X25900Y8267D01*
X25898Y8264D01*
X25897Y8261D01*
X25896Y8259D01*
X25895Y8256D01*
X25894Y8254D01*
X25892Y8253D01*
X25891Y8251D01*
X25890Y8250D01*
X25890Y8249D01*
X25889Y8249D01*
X25889Y8249D01*
X25887Y8246D01*
X25884Y8244D01*
X25881Y8242D01*
X25878Y8240D01*
X25875Y8239D01*
X25873Y8238D01*
X25867Y8236D01*
X25865Y8235D01*
X25863Y8235D01*
X25861Y8235D01*
X25859Y8235D01*
X25858Y8234D01*
X25856D01*
X25851Y8235D01*
X25847Y8235D01*
X25843Y8236D01*
X25840Y8237D01*
X25837Y8238D01*
X25835Y8239D01*
X25834Y8240D01*
X25833Y8240D01*
X25830Y8242D01*
X25827Y8245D01*
X25824Y8247D01*
X25821Y8250D01*
X25820Y8252D01*
X25818Y8254D01*
X25818Y8255D01*
X25817Y8255D01*
Y8253D01*
Y8252D01*
Y8252D01*
Y8251D01*
X25818Y8247D01*
X25818Y8242D01*
X25818Y8238D01*
X25819Y8235D01*
X25819Y8232D01*
X25820Y8229D01*
X25820Y8229D01*
Y8228D01*
X25820Y8228D01*
Y8227D01*
X25821Y8223D01*
X25823Y8220D01*
X25824Y8216D01*
X25825Y8213D01*
X25826Y8211D01*
X25827Y8210D01*
X25827Y8209D01*
X25827Y8208D01*
X25829Y8206D01*
X25831Y8204D01*
X25833Y8202D01*
X25835Y8200D01*
X25836Y8199D01*
X25838Y8198D01*
X25839Y8198D01*
X25839Y8197D01*
X25841Y8196D01*
X25844Y8195D01*
X25847Y8194D01*
X25849Y8194D01*
X25851Y8194D01*
X25853Y8193D01*
X25855D01*
X25858Y8194D01*
X25862Y8194D01*
X25865Y8195D01*
X25867Y8196D01*
X25869Y8197D01*
X25871Y8198D01*
X25872Y8199D01*
X25872Y8199D01*
X25874Y8202D01*
X25876Y8205D01*
X25878Y8208D01*
X25879Y8211D01*
X25880Y8214D01*
X25880Y8217D01*
X25881Y8217D01*
Y8218D01*
X25881Y8218D01*
Y8219D01*
X25900Y8217D01*
X25898Y8210D01*
X25897Y8204D01*
X25894Y8199D01*
X25892Y8195D01*
X25890Y8192D01*
X25888Y8191D01*
X25888Y8189D01*
X25887Y8189D01*
X25886Y8188D01*
X25886Y8188D01*
X25886Y8188D01*
X25883Y8186D01*
X25881Y8184D01*
X25876Y8182D01*
X25871Y8180D01*
X25866Y8179D01*
X25861Y8178D01*
X25860Y8177D01*
X25858D01*
X25857Y8177D01*
X25855D01*
X25849Y8178D01*
X25843Y8179D01*
X25837Y8180D01*
X25833Y8182D01*
X25831Y8183D01*
X25829Y8184D01*
X25828Y8185D01*
X25827Y8185D01*
X25826Y8186D01*
X25825Y8186D01*
X25824Y8187D01*
X25824D01*
X25820Y8191D01*
X25815Y8195D01*
X25812Y8200D01*
X25809Y8204D01*
X25807Y8208D01*
X25806Y8210D01*
X25806Y8211D01*
X25805Y8213D01*
X25805Y8213D01*
X25804Y8214D01*
Y8214D01*
X25803Y8218D01*
X25802Y8222D01*
X25800Y8229D01*
X25799Y8238D01*
X25799Y8246D01*
X25798Y8249D01*
X25798Y8253D01*
Y8256D01*
X25798Y8258D01*
Y8260D01*
Y8262D01*
Y8263D01*
Y8263D01*
Y8268D01*
X25798Y8274D01*
X25798Y8278D01*
X25799Y8283D01*
X25799Y8286D01*
X25800Y8290D01*
X25800Y8294D01*
X25801Y8297D01*
X25802Y8299D01*
X25802Y8302D01*
X25803Y8304D01*
X25803Y8305D01*
X25804Y8306D01*
X25804Y8307D01*
X25805Y8308D01*
Y8308D01*
X25807Y8314D01*
X25810Y8318D01*
X25814Y8323D01*
X25817Y8326D01*
X25820Y8329D01*
X25822Y8330D01*
X25823Y8331D01*
X25824Y8332D01*
X25824Y8332D01*
X25824D01*
X25829Y8335D01*
X25834Y8337D01*
X25839Y8338D01*
X25843Y8339D01*
X25847Y8340D01*
X25849Y8340D01*
X25850D01*
X25851Y8341D01*
X25853D01*
X25857Y8340D01*
D02*
G37*
G36*
X25636Y4317D02*
X25639Y4313D01*
X25642Y4309D01*
X25644Y4306D01*
X25647Y4303D01*
X25649Y4301D01*
X25650Y4300D01*
X25651Y4300D01*
X25651Y4299D01*
X25651Y4299D01*
X25656Y4295D01*
X25661Y4291D01*
X25666Y4288D01*
X25670Y4286D01*
X25674Y4283D01*
X25676Y4282D01*
X25677Y4282D01*
X25678Y4281D01*
X25679Y4281D01*
X25680Y4280D01*
X25680D01*
Y4261D01*
X25677Y4263D01*
X25673Y4264D01*
X25670Y4266D01*
X25666Y4268D01*
X25664Y4269D01*
X25661Y4270D01*
X25660Y4271D01*
X25660Y4271D01*
X25659D01*
X25655Y4274D01*
X25652Y4276D01*
X25648Y4279D01*
X25646Y4281D01*
X25643Y4282D01*
X25642Y4284D01*
X25641Y4285D01*
X25641Y4285D01*
Y4160D01*
X25621D01*
Y4321D01*
X25634D01*
X25636Y4317D01*
D02*
G37*
G36*
X26064Y5960D02*
X26042D01*
Y6015D01*
X26016Y6041D01*
X25959Y5960D01*
X25931D01*
X26001Y6055D01*
X25934Y6120D01*
X25963D01*
X26042Y6040D01*
Y6120D01*
X26064D01*
Y5960D01*
D02*
G37*
G36*
X25968Y8337D02*
X25971Y8333D01*
X25974Y8329D01*
X25976Y8326D01*
X25979Y8323D01*
X25981Y8321D01*
X25982Y8320D01*
X25983Y8320D01*
X25983Y8319D01*
X25983Y8319D01*
X25988Y8315D01*
X25993Y8311D01*
X25998Y8308D01*
X26002Y8306D01*
X26006Y8303D01*
X26008Y8302D01*
X26009Y8302D01*
X26010Y8301D01*
X26011Y8301D01*
X26012Y8300D01*
X26012D01*
Y8281D01*
X26009Y8283D01*
X26005Y8284D01*
X26002Y8286D01*
X25998Y8288D01*
X25996Y8289D01*
X25993Y8290D01*
X25992Y8291D01*
X25992Y8291D01*
X25991D01*
X25987Y8294D01*
X25984Y8296D01*
X25980Y8299D01*
X25978Y8301D01*
X25976Y8302D01*
X25974Y8304D01*
X25973Y8305D01*
X25973Y8305D01*
Y8180D01*
X25953D01*
Y8341D01*
X25966D01*
X25968Y8337D01*
D02*
G37*
G36*
X4875Y17820D02*
X4881Y17819D01*
X4885Y17818D01*
X4890Y17816D01*
X4893Y17814D01*
X4894Y17813D01*
X4896Y17812D01*
X4896Y17812D01*
X4897Y17812D01*
X4897Y17811D01*
X4898D01*
X4902Y17807D01*
X4905Y17803D01*
X4908Y17799D01*
X4911Y17794D01*
X4912Y17791D01*
X4913Y17789D01*
X4914Y17787D01*
X4914Y17786D01*
X4915Y17785D01*
X4915Y17785D01*
Y17785D01*
X4916Y17781D01*
X4917Y17778D01*
X4918Y17770D01*
X4919Y17762D01*
X4920Y17755D01*
X4920Y17752D01*
X4921Y17749D01*
Y17746D01*
X4921Y17743D01*
Y17742D01*
Y17740D01*
Y17739D01*
Y17739D01*
X4921Y17731D01*
X4920Y17723D01*
X4919Y17716D01*
X4918Y17710D01*
X4917Y17704D01*
X4916Y17698D01*
X4914Y17694D01*
X4913Y17689D01*
X4911Y17686D01*
X4910Y17682D01*
X4909Y17680D01*
X4908Y17678D01*
X4906Y17676D01*
X4906Y17675D01*
X4905Y17674D01*
X4905Y17674D01*
X4902Y17671D01*
X4900Y17668D01*
X4897Y17666D01*
X4894Y17664D01*
X4891Y17663D01*
X4888Y17661D01*
X4885Y17660D01*
X4882Y17659D01*
X4879Y17659D01*
X4877Y17658D01*
X4874Y17658D01*
X4872Y17657D01*
X4871Y17657D01*
X4869D01*
X4862Y17658D01*
X4857Y17659D01*
X4852Y17660D01*
X4848Y17662D01*
X4844Y17663D01*
X4843Y17664D01*
X4842Y17665D01*
X4841Y17666D01*
X4840Y17666D01*
X4840Y17666D01*
X4840D01*
X4836Y17670D01*
X4832Y17675D01*
X4829Y17679D01*
X4827Y17683D01*
X4825Y17687D01*
X4824Y17689D01*
X4823Y17690D01*
X4823Y17692D01*
X4823Y17693D01*
X4822Y17693D01*
Y17693D01*
X4821Y17697D01*
X4820Y17700D01*
X4819Y17708D01*
X4818Y17715D01*
X4817Y17723D01*
X4817Y17726D01*
X4817Y17729D01*
Y17732D01*
X4816Y17734D01*
Y17736D01*
Y17738D01*
Y17739D01*
Y17739D01*
Y17743D01*
X4817Y17747D01*
Y17751D01*
X4817Y17755D01*
X4817Y17758D01*
X4817Y17761D01*
X4818Y17764D01*
X4818Y17766D01*
X4818Y17769D01*
X4819Y17771D01*
X4819Y17773D01*
X4819Y17774D01*
X4820Y17775D01*
X4820Y17776D01*
X4820Y17776D01*
Y17776D01*
X4821Y17782D01*
X4823Y17786D01*
X4825Y17790D01*
X4826Y17794D01*
X4828Y17797D01*
X4829Y17799D01*
X4830Y17800D01*
X4830Y17800D01*
X4832Y17804D01*
X4835Y17807D01*
X4838Y17809D01*
X4840Y17812D01*
X4843Y17813D01*
X4845Y17814D01*
X4846Y17815D01*
X4846Y17815D01*
X4846D01*
X4850Y17817D01*
X4854Y17818D01*
X4857Y17819D01*
X4861Y17820D01*
X4864Y17820D01*
X4866Y17821D01*
X4869D01*
X4875Y17820D01*
D02*
G37*
G36*
X5395Y25210D02*
X5401Y25209D01*
X5405Y25208D01*
X5410Y25206D01*
X5413Y25204D01*
X5414Y25203D01*
X5416Y25202D01*
X5416Y25202D01*
X5417Y25202D01*
X5417Y25201D01*
X5418D01*
X5422Y25197D01*
X5425Y25193D01*
X5428Y25189D01*
X5431Y25184D01*
X5432Y25181D01*
X5433Y25179D01*
X5434Y25177D01*
X5434Y25176D01*
X5435Y25175D01*
X5435Y25175D01*
Y25175D01*
X5436Y25171D01*
X5437Y25168D01*
X5438Y25160D01*
X5439Y25152D01*
X5440Y25145D01*
X5440Y25142D01*
X5441Y25139D01*
Y25136D01*
X5441Y25133D01*
Y25132D01*
Y25130D01*
Y25129D01*
Y25129D01*
X5441Y25121D01*
X5440Y25113D01*
X5439Y25106D01*
X5438Y25100D01*
X5437Y25094D01*
X5436Y25088D01*
X5434Y25083D01*
X5433Y25079D01*
X5432Y25076D01*
X5430Y25072D01*
X5429Y25070D01*
X5428Y25068D01*
X5426Y25066D01*
X5426Y25065D01*
X5425Y25064D01*
X5425Y25064D01*
X5422Y25061D01*
X5420Y25058D01*
X5417Y25056D01*
X5414Y25054D01*
X5411Y25053D01*
X5408Y25051D01*
X5405Y25050D01*
X5402Y25049D01*
X5399Y25049D01*
X5397Y25048D01*
X5394Y25048D01*
X5392Y25047D01*
X5391Y25047D01*
X5389D01*
X5382Y25048D01*
X5377Y25049D01*
X5372Y25050D01*
X5368Y25052D01*
X5364Y25053D01*
X5363Y25054D01*
X5362Y25055D01*
X5361Y25056D01*
X5360Y25056D01*
X5360Y25056D01*
X5360D01*
X5355Y25060D01*
X5352Y25065D01*
X5349Y25069D01*
X5347Y25073D01*
X5345Y25077D01*
X5344Y25079D01*
X5343Y25080D01*
X5343Y25082D01*
X5343Y25083D01*
X5342Y25083D01*
Y25083D01*
X5341Y25087D01*
X5340Y25090D01*
X5339Y25098D01*
X5338Y25105D01*
X5337Y25113D01*
X5337Y25116D01*
X5337Y25119D01*
Y25122D01*
X5336Y25124D01*
Y25126D01*
Y25128D01*
Y25129D01*
Y25129D01*
Y25133D01*
X5337Y25137D01*
Y25141D01*
X5337Y25145D01*
X5337Y25148D01*
X5337Y25151D01*
X5338Y25154D01*
X5338Y25156D01*
X5338Y25159D01*
X5339Y25161D01*
X5339Y25162D01*
X5339Y25164D01*
X5340Y25165D01*
X5340Y25166D01*
X5340Y25166D01*
Y25166D01*
X5341Y25172D01*
X5343Y25176D01*
X5345Y25180D01*
X5346Y25184D01*
X5348Y25187D01*
X5349Y25189D01*
X5350Y25190D01*
X5350Y25190D01*
X5353Y25194D01*
X5355Y25197D01*
X5358Y25199D01*
X5360Y25202D01*
X5363Y25203D01*
X5365Y25204D01*
X5366Y25205D01*
X5366Y25205D01*
X5366D01*
X5370Y25207D01*
X5374Y25208D01*
X5377Y25209D01*
X5381Y25210D01*
X5384Y25210D01*
X5386Y25211D01*
X5389D01*
X5395Y25210D01*
D02*
G37*
G36*
X25357Y5640D02*
X25363Y5639D01*
X25367Y5638D01*
X25372Y5636D01*
X25375Y5634D01*
X25376Y5633D01*
X25378Y5632D01*
X25379Y5632D01*
X25379Y5632D01*
X25379Y5631D01*
X25380D01*
X25384Y5627D01*
X25387Y5623D01*
X25390Y5619D01*
X25393Y5614D01*
X25394Y5611D01*
X25395Y5609D01*
X25396Y5607D01*
X25396Y5606D01*
X25397Y5605D01*
X25397Y5605D01*
Y5605D01*
X25398Y5601D01*
X25399Y5598D01*
X25400Y5590D01*
X25401Y5582D01*
X25402Y5575D01*
X25402Y5572D01*
X25403Y5569D01*
Y5566D01*
X25403Y5563D01*
Y5562D01*
Y5560D01*
Y5559D01*
Y5559D01*
X25403Y5551D01*
X25402Y5543D01*
X25401Y5536D01*
X25400Y5530D01*
X25399Y5524D01*
X25398Y5518D01*
X25396Y5513D01*
X25395Y5509D01*
X25394Y5506D01*
X25392Y5502D01*
X25391Y5500D01*
X25390Y5498D01*
X25388Y5496D01*
X25388Y5495D01*
X25387Y5494D01*
X25387Y5494D01*
X25385Y5491D01*
X25382Y5488D01*
X25379Y5486D01*
X25376Y5484D01*
X25373Y5483D01*
X25370Y5481D01*
X25367Y5480D01*
X25364Y5479D01*
X25361Y5479D01*
X25359Y5478D01*
X25356Y5478D01*
X25355Y5477D01*
X25353Y5477D01*
X25351D01*
X25344Y5478D01*
X25339Y5479D01*
X25334Y5480D01*
X25330Y5482D01*
X25326Y5483D01*
X25325Y5484D01*
X25324Y5485D01*
X25323Y5486D01*
X25322Y5486D01*
X25322Y5486D01*
X25322D01*
X25318Y5490D01*
X25314Y5495D01*
X25311Y5499D01*
X25309Y5503D01*
X25307Y5507D01*
X25306Y5509D01*
X25306Y5510D01*
X25305Y5512D01*
X25305Y5513D01*
X25304Y5513D01*
Y5513D01*
X25303Y5517D01*
X25302Y5520D01*
X25301Y5528D01*
X25300Y5535D01*
X25299Y5543D01*
X25299Y5546D01*
X25299Y5549D01*
Y5552D01*
X25298Y5554D01*
Y5556D01*
Y5558D01*
Y5559D01*
Y5559D01*
Y5563D01*
X25299Y5567D01*
Y5571D01*
X25299Y5575D01*
X25299Y5578D01*
X25300Y5581D01*
X25300Y5584D01*
X25300Y5586D01*
X25300Y5589D01*
X25301Y5591D01*
X25301Y5592D01*
X25301Y5594D01*
X25302Y5595D01*
X25302Y5596D01*
X25302Y5596D01*
Y5596D01*
X25303Y5602D01*
X25305Y5606D01*
X25307Y5610D01*
X25308Y5614D01*
X25310Y5617D01*
X25311Y5619D01*
X25312Y5620D01*
X25312Y5620D01*
X25315Y5624D01*
X25317Y5627D01*
X25320Y5629D01*
X25322Y5632D01*
X25325Y5633D01*
X25327Y5634D01*
X25328Y5635D01*
X25328Y5635D01*
X25328D01*
X25332Y5637D01*
X25336Y5638D01*
X25340Y5639D01*
X25343Y5640D01*
X25346Y5640D01*
X25349Y5641D01*
X25351D01*
X25357Y5640D01*
D02*
G37*
G36*
X25680Y5480D02*
X25659D01*
Y5551D01*
X25631D01*
X25629Y5551D01*
X25627D01*
X25625Y5550D01*
X25624Y5550D01*
X25623D01*
X25623Y5550D01*
X25623D01*
X25619Y5549D01*
X25617Y5548D01*
X25616Y5547D01*
X25615Y5547D01*
X25614Y5546D01*
X25613Y5546D01*
X25613Y5546D01*
X25611Y5544D01*
X25609Y5543D01*
X25606Y5539D01*
X25604Y5538D01*
X25603Y5536D01*
X25602Y5535D01*
X25602Y5535D01*
X25600Y5532D01*
X25597Y5529D01*
X25595Y5525D01*
X25592Y5521D01*
X25590Y5518D01*
X25589Y5516D01*
X25588Y5515D01*
X25587Y5514D01*
X25587Y5513D01*
Y5513D01*
X25566Y5480D01*
X25540D01*
X25567Y5523D01*
X25570Y5528D01*
X25573Y5532D01*
X25576Y5536D01*
X25579Y5539D01*
X25581Y5541D01*
X25583Y5543D01*
X25584Y5544D01*
X25585Y5545D01*
X25586Y5546D01*
X25589Y5548D01*
X25593Y5550D01*
X25595Y5551D01*
X25596Y5552D01*
X25597Y5553D01*
X25597Y5553D01*
X25593Y5553D01*
X25589Y5554D01*
X25586Y5555D01*
X25582Y5556D01*
X25579Y5557D01*
X25577Y5559D01*
X25574Y5560D01*
X25572Y5561D01*
X25570Y5562D01*
X25568Y5564D01*
X25567Y5565D01*
X25565Y5565D01*
X25564Y5566D01*
X25564Y5567D01*
X25564Y5567D01*
X25563Y5567D01*
X25561Y5570D01*
X25560Y5572D01*
X25557Y5577D01*
X25555Y5582D01*
X25554Y5586D01*
X25553Y5590D01*
X25552Y5592D01*
Y5593D01*
X25552Y5595D01*
Y5595D01*
Y5596D01*
Y5596D01*
X25552Y5601D01*
X25553Y5605D01*
X25554Y5610D01*
X25555Y5613D01*
X25557Y5616D01*
X25558Y5618D01*
X25559Y5620D01*
X25559Y5620D01*
Y5620D01*
X25562Y5624D01*
X25564Y5627D01*
X25568Y5630D01*
X25570Y5632D01*
X25573Y5634D01*
X25575Y5635D01*
X25576Y5635D01*
X25577Y5635D01*
X25577D01*
X25579Y5636D01*
X25581Y5637D01*
X25586Y5638D01*
X25592Y5639D01*
X25597Y5639D01*
X25602Y5640D01*
X25604D01*
X25606Y5640D01*
X25680D01*
Y5480D01*
D02*
G37*
G36*
X5323Y25106D02*
Y25088D01*
X5254D01*
Y25050D01*
X5234D01*
Y25088D01*
X5212D01*
Y25106D01*
X5234D01*
Y25210D01*
X5250D01*
X5323Y25106D01*
D02*
G37*
G36*
X5482Y25412D02*
X5490Y25411D01*
X5496Y25410D01*
X5499Y25409D01*
X5502Y25408D01*
X5504Y25407D01*
X5507Y25406D01*
X5509Y25405D01*
X5511Y25405D01*
X5512Y25404D01*
X5513Y25403D01*
X5513Y25403D01*
X5513Y25403D01*
X5520Y25399D01*
X5525Y25394D01*
X5530Y25390D01*
X5534Y25385D01*
X5537Y25381D01*
X5538Y25379D01*
X5539Y25378D01*
X5540Y25376D01*
X5540Y25375D01*
X5540Y25375D01*
X5541Y25375D01*
X5544Y25367D01*
X5546Y25360D01*
X5548Y25353D01*
X5549Y25346D01*
X5549Y25343D01*
X5550Y25340D01*
X5550Y25338D01*
Y25335D01*
X5550Y25334D01*
Y25332D01*
Y25331D01*
Y25331D01*
X5550Y25323D01*
X5549Y25315D01*
X5547Y25308D01*
X5547Y25304D01*
X5546Y25301D01*
X5545Y25298D01*
X5544Y25296D01*
X5544Y25293D01*
X5543Y25292D01*
X5542Y25290D01*
X5542Y25289D01*
X5542Y25288D01*
Y25288D01*
X5538Y25281D01*
X5534Y25275D01*
X5530Y25270D01*
X5528Y25268D01*
X5526Y25265D01*
X5524Y25264D01*
X5523Y25262D01*
X5521Y25261D01*
X5520Y25260D01*
X5519Y25259D01*
X5518Y25258D01*
X5517Y25258D01*
X5517Y25258D01*
X5514Y25256D01*
X5511Y25254D01*
X5504Y25252D01*
X5497Y25250D01*
X5490Y25249D01*
X5487Y25248D01*
X5484Y25248D01*
X5481Y25247D01*
X5479D01*
X5477Y25247D01*
X5475D01*
X5470Y25247D01*
X5466Y25248D01*
X5462Y25248D01*
X5458Y25249D01*
X5454Y25250D01*
X5451Y25252D01*
X5447Y25253D01*
X5444Y25254D01*
X5442Y25255D01*
X5439Y25256D01*
X5437Y25258D01*
X5436Y25259D01*
X5434Y25260D01*
X5433Y25260D01*
X5433Y25261D01*
X5433Y25261D01*
X5429Y25264D01*
X5427Y25266D01*
X5424Y25270D01*
X5422Y25273D01*
X5417Y25279D01*
X5414Y25286D01*
X5413Y25289D01*
X5412Y25292D01*
X5411Y25294D01*
X5410Y25296D01*
X5409Y25298D01*
X5409Y25299D01*
X5409Y25300D01*
Y25301D01*
X5430Y25306D01*
X5431Y25302D01*
X5432Y25299D01*
X5433Y25296D01*
X5434Y25292D01*
X5436Y25290D01*
X5437Y25287D01*
X5439Y25285D01*
X5440Y25283D01*
X5441Y25281D01*
X5443Y25280D01*
X5444Y25278D01*
X5445Y25277D01*
X5446Y25277D01*
X5446Y25276D01*
X5447Y25276D01*
X5447Y25275D01*
X5449Y25274D01*
X5452Y25272D01*
X5457Y25270D01*
X5462Y25268D01*
X5466Y25267D01*
X5471Y25266D01*
X5472Y25265D01*
X5474D01*
X5475Y25265D01*
X5477D01*
X5482Y25265D01*
X5487Y25266D01*
X5492Y25268D01*
X5496Y25269D01*
X5499Y25270D01*
X5501Y25271D01*
X5502Y25271D01*
X5503Y25272D01*
X5503Y25272D01*
X5504Y25273D01*
X5504D01*
X5508Y25276D01*
X5512Y25279D01*
X5515Y25283D01*
X5518Y25287D01*
X5520Y25290D01*
X5521Y25293D01*
X5522Y25294D01*
X5522Y25295D01*
X5523Y25295D01*
Y25296D01*
X5524Y25302D01*
X5526Y25308D01*
X5527Y25314D01*
X5528Y25319D01*
X5528Y25322D01*
X5528Y25324D01*
Y25326D01*
X5528Y25328D01*
Y25329D01*
Y25330D01*
Y25331D01*
Y25331D01*
X5528Y25337D01*
X5528Y25343D01*
X5527Y25348D01*
X5526Y25352D01*
X5525Y25356D01*
X5525Y25358D01*
X5524Y25359D01*
X5524Y25360D01*
X5524Y25361D01*
X5523Y25362D01*
Y25362D01*
X5521Y25367D01*
X5519Y25372D01*
X5516Y25376D01*
X5513Y25379D01*
X5510Y25382D01*
X5508Y25384D01*
X5507Y25385D01*
X5506Y25386D01*
X5506D01*
X5501Y25389D01*
X5496Y25391D01*
X5491Y25393D01*
X5486Y25393D01*
X5482Y25394D01*
X5480Y25394D01*
X5478D01*
X5477Y25395D01*
X5475D01*
X5469Y25394D01*
X5464Y25393D01*
X5460Y25392D01*
X5456Y25391D01*
X5453Y25389D01*
X5450Y25388D01*
X5449Y25387D01*
X5449Y25387D01*
X5445Y25383D01*
X5441Y25379D01*
X5439Y25375D01*
X5436Y25371D01*
X5434Y25367D01*
X5434Y25365D01*
X5433Y25364D01*
X5433Y25363D01*
X5432Y25362D01*
X5432Y25361D01*
Y25361D01*
X5411Y25366D01*
X5413Y25370D01*
X5414Y25374D01*
X5416Y25377D01*
X5418Y25381D01*
X5419Y25384D01*
X5422Y25387D01*
X5423Y25389D01*
X5425Y25392D01*
X5427Y25393D01*
X5429Y25395D01*
X5430Y25397D01*
X5432Y25398D01*
X5433Y25399D01*
X5434Y25400D01*
X5434Y25400D01*
X5434Y25400D01*
X5437Y25402D01*
X5441Y25405D01*
X5444Y25406D01*
X5447Y25408D01*
X5454Y25410D01*
X5461Y25411D01*
X5464Y25412D01*
X5466Y25412D01*
X5469Y25412D01*
X5471Y25412D01*
X5472Y25413D01*
X5475D01*
X5482Y25412D01*
D02*
G37*
G36*
X4789Y17660D02*
X4768D01*
Y17715D01*
X4742Y17741D01*
X4685Y17660D01*
X4657D01*
X4727Y17755D01*
X4660Y17820D01*
X4689D01*
X4768Y17740D01*
Y17820D01*
X4789D01*
Y17660D01*
D02*
G37*
G36*
X5506Y25207D02*
X5509Y25203D01*
X5512Y25199D01*
X5514Y25196D01*
X5517Y25193D01*
X5519Y25191D01*
X5520Y25190D01*
X5521Y25190D01*
X5521Y25189D01*
X5521Y25189D01*
X5526Y25185D01*
X5531Y25181D01*
X5536Y25178D01*
X5540Y25176D01*
X5544Y25173D01*
X5546Y25172D01*
X5547Y25172D01*
X5548Y25171D01*
X5549Y25171D01*
X5550Y25170D01*
X5550D01*
Y25151D01*
X5547Y25153D01*
X5543Y25154D01*
X5540Y25156D01*
X5536Y25158D01*
X5534Y25159D01*
X5531Y25160D01*
X5530Y25161D01*
X5530Y25161D01*
X5529D01*
X5525Y25164D01*
X5522Y25166D01*
X5518Y25169D01*
X5516Y25171D01*
X5513Y25172D01*
X5512Y25174D01*
X5511Y25175D01*
X5511Y25175D01*
Y25050D01*
X5491D01*
Y25211D01*
X5504D01*
X5506Y25207D01*
D02*
G37*
G36*
X5397Y25306D02*
Y25288D01*
X5328D01*
Y25250D01*
X5308D01*
Y25288D01*
X5286D01*
Y25306D01*
X5308D01*
Y25410D01*
X5324D01*
X5397Y25306D01*
D02*
G37*
G36*
X4986Y17817D02*
X4989Y17813D01*
X4992Y17809D01*
X4994Y17806D01*
X4997Y17803D01*
X4999Y17801D01*
X5000Y17800D01*
X5001Y17800D01*
X5001Y17799D01*
X5001Y17799D01*
X5006Y17795D01*
X5011Y17791D01*
X5016Y17788D01*
X5020Y17786D01*
X5024Y17783D01*
X5026Y17782D01*
X5027Y17782D01*
X5028Y17781D01*
X5029Y17781D01*
X5030Y17780D01*
X5030D01*
Y17761D01*
X5027Y17763D01*
X5023Y17764D01*
X5020Y17766D01*
X5016Y17768D01*
X5014Y17769D01*
X5011Y17770D01*
X5010Y17771D01*
X5010Y17771D01*
X5009D01*
X5005Y17774D01*
X5002Y17776D01*
X4998Y17779D01*
X4996Y17781D01*
X4994Y17782D01*
X4992Y17784D01*
X4991Y17785D01*
X4991Y17785D01*
Y17660D01*
X4971D01*
Y17821D01*
X4984D01*
X4986Y17817D01*
D02*
G37*
%LPC*%
G36*
X4116Y19056D02*
X4116D01*
X4113Y19056D01*
X4110Y19055D01*
X4108Y19055D01*
X4106Y19054D01*
X4104Y19053D01*
X4103Y19052D01*
X4102Y19052D01*
X4102Y19052D01*
X4099Y19050D01*
X4097Y19048D01*
X4096Y19046D01*
X4094Y19044D01*
X4093Y19042D01*
X4093Y19041D01*
X4092Y19040D01*
X4092Y19039D01*
X4091Y19036D01*
X4090Y19032D01*
X4090Y19029D01*
X4090Y19025D01*
X4089Y19022D01*
X4089Y19019D01*
Y19018D01*
Y19017D01*
Y19017D01*
Y19017D01*
Y18971D01*
X4142D01*
Y19022D01*
X4142Y19028D01*
X4141Y19033D01*
X4140Y19038D01*
X4138Y19041D01*
X4137Y19044D01*
X4136Y19046D01*
X4135Y19047D01*
X4135Y19048D01*
X4132Y19050D01*
X4129Y19053D01*
X4125Y19054D01*
X4123Y19055D01*
X4120Y19056D01*
X4118Y19056D01*
X4116Y19056D01*
D02*
G37*
G36*
X4082Y19312D02*
X4072D01*
X4065Y19311D01*
X4059Y19311D01*
X4054Y19310D01*
X4049Y19309D01*
X4045Y19309D01*
X4041Y19308D01*
X4038Y19307D01*
X4035Y19306D01*
X4033Y19305D01*
X4030Y19304D01*
X4029Y19303D01*
X4028Y19303D01*
X4027Y19303D01*
X4027Y19302D01*
X4026D01*
X4024Y19300D01*
X4022Y19298D01*
X4020Y19296D01*
X4019Y19295D01*
X4017Y19291D01*
X4015Y19287D01*
X4014Y19284D01*
X4014Y19282D01*
X4013Y19281D01*
Y19280D01*
Y19280D01*
Y19279D01*
X4014Y19277D01*
X4014Y19275D01*
X4015Y19270D01*
X4018Y19266D01*
X4020Y19263D01*
X4022Y19260D01*
X4024Y19258D01*
X4026Y19257D01*
X4026Y19257D01*
X4026D01*
X4029Y19255D01*
X4032Y19254D01*
X4036Y19252D01*
X4040Y19251D01*
X4044Y19250D01*
X4049Y19250D01*
X4058Y19248D01*
X4062Y19248D01*
X4066Y19248D01*
X4069Y19248D01*
X4072D01*
X4075Y19247D01*
X4079D01*
X4086Y19248D01*
X4092Y19248D01*
X4098Y19248D01*
X4104Y19249D01*
X4109Y19250D01*
X4113Y19251D01*
X4117Y19251D01*
X4121Y19252D01*
X4124Y19253D01*
X4126Y19254D01*
X4128Y19255D01*
X4130Y19256D01*
X4131Y19256D01*
X4132Y19257D01*
X4133Y19257D01*
X4133D01*
X4135Y19259D01*
X4137Y19260D01*
X4138Y19262D01*
X4140Y19264D01*
X4142Y19268D01*
X4143Y19271D01*
X4144Y19274D01*
X4144Y19277D01*
X4144Y19278D01*
Y19278D01*
Y19279D01*
Y19279D01*
X4144Y19282D01*
X4144Y19284D01*
X4143Y19287D01*
X4142Y19289D01*
X4140Y19293D01*
X4138Y19296D01*
X4135Y19299D01*
X4133Y19301D01*
X4132Y19301D01*
X4132Y19302D01*
X4131Y19302D01*
X4131D01*
X4128Y19304D01*
X4125Y19305D01*
X4122Y19307D01*
X4118Y19308D01*
X4113Y19309D01*
X4109Y19309D01*
X4100Y19310D01*
X4096Y19311D01*
X4092Y19311D01*
X4088Y19311D01*
X4085D01*
X4082Y19312D01*
D02*
G37*
G36*
X26159Y8322D02*
X26108D01*
X26102Y8322D01*
X26097Y8321D01*
X26092Y8320D01*
X26089Y8318D01*
X26086Y8317D01*
X26084Y8316D01*
X26083Y8315D01*
X26082Y8315D01*
X26080Y8312D01*
X26077Y8309D01*
X26076Y8305D01*
X26075Y8303D01*
X26074Y8300D01*
X26074Y8298D01*
X26074Y8296D01*
Y8296D01*
Y8296D01*
X26074Y8293D01*
X26075Y8290D01*
X26075Y8288D01*
X26076Y8286D01*
X26077Y8284D01*
X26078Y8283D01*
X26078Y8282D01*
X26078Y8282D01*
X26080Y8279D01*
X26082Y8277D01*
X26084Y8276D01*
X26086Y8274D01*
X26088Y8273D01*
X26089Y8273D01*
X26090Y8272D01*
X26091Y8272D01*
X26094Y8271D01*
X26098Y8270D01*
X26101Y8270D01*
X26105Y8270D01*
X26108Y8269D01*
X26111Y8269D01*
X26159D01*
Y8322D01*
D02*
G37*
G36*
X25852Y8324D02*
X25848D01*
X25846Y8324D01*
X25841Y8323D01*
X25838Y8321D01*
X25834Y8320D01*
X25832Y8318D01*
X25830Y8316D01*
X25829Y8315D01*
X25828Y8315D01*
Y8314D01*
X25825Y8311D01*
X25823Y8306D01*
X25821Y8302D01*
X25821Y8297D01*
X25820Y8293D01*
X25820Y8292D01*
Y8290D01*
X25819Y8289D01*
Y8288D01*
Y8288D01*
Y8287D01*
X25820Y8281D01*
X25821Y8276D01*
X25822Y8272D01*
X25824Y8268D01*
X25826Y8265D01*
X25827Y8263D01*
X25828Y8262D01*
X25828Y8261D01*
X25832Y8258D01*
X25836Y8256D01*
X25839Y8254D01*
X25843Y8253D01*
X25846Y8252D01*
X25849Y8252D01*
X25849Y8252D01*
X25851D01*
X25856Y8252D01*
X25860Y8253D01*
X25864Y8255D01*
X25867Y8256D01*
X25870Y8258D01*
X25872Y8260D01*
X25873Y8261D01*
X25874Y8261D01*
X25877Y8265D01*
X25879Y8269D01*
X25880Y8273D01*
X25882Y8277D01*
X25882Y8280D01*
X25882Y8282D01*
Y8283D01*
X25883Y8284D01*
Y8285D01*
Y8286D01*
Y8286D01*
X25882Y8292D01*
X25881Y8297D01*
X25880Y8302D01*
X25878Y8306D01*
X25876Y8309D01*
X25875Y8312D01*
X25874Y8312D01*
X25874Y8313D01*
X25873Y8313D01*
Y8314D01*
X25871Y8315D01*
X25870Y8317D01*
X25866Y8320D01*
X25862Y8322D01*
X25858Y8323D01*
X25855Y8324D01*
X25852Y8324D01*
X25852Y8324D01*
D02*
G37*
G36*
X4870Y17804D02*
X4869D01*
X4866Y17804D01*
X4864Y17804D01*
X4861Y17803D01*
X4859Y17802D01*
X4855Y17800D01*
X4852Y17798D01*
X4849Y17795D01*
X4847Y17793D01*
X4847Y17792D01*
X4846Y17792D01*
X4846Y17791D01*
Y17791D01*
X4844Y17788D01*
X4843Y17785D01*
X4841Y17782D01*
X4840Y17778D01*
X4839Y17773D01*
X4839Y17769D01*
X4838Y17760D01*
X4837Y17756D01*
X4837Y17752D01*
X4837Y17748D01*
Y17745D01*
X4836Y17742D01*
Y17740D01*
Y17739D01*
Y17739D01*
Y17739D01*
Y17732D01*
X4837Y17725D01*
X4837Y17719D01*
X4838Y17714D01*
X4839Y17709D01*
X4839Y17705D01*
X4840Y17701D01*
X4841Y17698D01*
X4842Y17695D01*
X4843Y17693D01*
X4844Y17690D01*
X4845Y17689D01*
X4845Y17688D01*
X4845Y17687D01*
X4846Y17687D01*
Y17686D01*
X4848Y17684D01*
X4850Y17682D01*
X4851Y17680D01*
X4853Y17679D01*
X4857Y17677D01*
X4861Y17675D01*
X4864Y17674D01*
X4866Y17674D01*
X4867Y17673D01*
X4869D01*
X4871Y17674D01*
X4873Y17674D01*
X4878Y17675D01*
X4882Y17678D01*
X4885Y17680D01*
X4888Y17682D01*
X4890Y17684D01*
X4891Y17686D01*
X4891Y17686D01*
Y17686D01*
X4893Y17689D01*
X4894Y17692D01*
X4896Y17696D01*
X4897Y17700D01*
X4898Y17704D01*
X4898Y17709D01*
X4899Y17718D01*
X4900Y17722D01*
X4900Y17726D01*
X4900Y17729D01*
Y17732D01*
X4901Y17735D01*
Y17737D01*
Y17738D01*
Y17739D01*
X4900Y17746D01*
X4900Y17752D01*
X4900Y17758D01*
X4899Y17764D01*
X4898Y17769D01*
X4897Y17773D01*
X4896Y17777D01*
X4896Y17781D01*
X4895Y17784D01*
X4894Y17786D01*
X4893Y17788D01*
X4892Y17790D01*
X4892Y17791D01*
X4891Y17792D01*
X4891Y17793D01*
Y17793D01*
X4889Y17795D01*
X4887Y17797D01*
X4886Y17798D01*
X4884Y17800D01*
X4880Y17802D01*
X4877Y17803D01*
X4874Y17804D01*
X4871Y17804D01*
X4870Y17804D01*
D02*
G37*
G36*
X5390Y25194D02*
X5389D01*
X5386Y25194D01*
X5384Y25194D01*
X5381Y25193D01*
X5379Y25192D01*
X5375Y25190D01*
X5372Y25188D01*
X5369Y25185D01*
X5367Y25183D01*
X5367Y25182D01*
X5366Y25182D01*
X5366Y25181D01*
Y25181D01*
X5364Y25178D01*
X5363Y25175D01*
X5361Y25172D01*
X5360Y25168D01*
X5359Y25163D01*
X5359Y25159D01*
X5358Y25150D01*
X5357Y25146D01*
X5357Y25142D01*
X5357Y25138D01*
Y25135D01*
X5356Y25132D01*
Y25130D01*
Y25129D01*
Y25129D01*
Y25129D01*
Y25122D01*
X5357Y25115D01*
X5357Y25109D01*
X5358Y25104D01*
X5358Y25099D01*
X5359Y25095D01*
X5360Y25091D01*
X5361Y25088D01*
X5362Y25085D01*
X5363Y25083D01*
X5364Y25080D01*
X5365Y25079D01*
X5365Y25078D01*
X5365Y25077D01*
X5366Y25077D01*
Y25076D01*
X5368Y25074D01*
X5370Y25072D01*
X5371Y25070D01*
X5373Y25069D01*
X5377Y25067D01*
X5381Y25065D01*
X5384Y25064D01*
X5386Y25064D01*
X5387Y25063D01*
X5389D01*
X5391Y25064D01*
X5393Y25064D01*
X5398Y25065D01*
X5402Y25068D01*
X5405Y25070D01*
X5408Y25072D01*
X5410Y25074D01*
X5411Y25076D01*
X5411Y25076D01*
Y25076D01*
X5413Y25079D01*
X5414Y25082D01*
X5416Y25086D01*
X5417Y25090D01*
X5418Y25094D01*
X5418Y25099D01*
X5419Y25108D01*
X5420Y25112D01*
X5420Y25116D01*
X5420Y25119D01*
Y25122D01*
X5421Y25125D01*
Y25127D01*
Y25128D01*
Y25129D01*
X5420Y25136D01*
X5420Y25142D01*
X5420Y25148D01*
X5419Y25154D01*
X5418Y25159D01*
X5417Y25163D01*
X5416Y25167D01*
X5416Y25171D01*
X5415Y25174D01*
X5414Y25176D01*
X5413Y25178D01*
X5412Y25180D01*
X5412Y25181D01*
X5411Y25182D01*
X5411Y25183D01*
Y25183D01*
X5409Y25185D01*
X5407Y25187D01*
X5406Y25188D01*
X5404Y25190D01*
X5400Y25192D01*
X5397Y25193D01*
X5394Y25194D01*
X5391Y25194D01*
X5390Y25194D01*
D02*
G37*
G36*
X25352Y5624D02*
X25351D01*
X25348Y5624D01*
X25346Y5624D01*
X25343Y5623D01*
X25341Y5622D01*
X25337Y5620D01*
X25334Y5618D01*
X25331Y5615D01*
X25329Y5613D01*
X25329Y5612D01*
X25328Y5612D01*
X25328Y5611D01*
Y5611D01*
X25326Y5608D01*
X25325Y5605D01*
X25323Y5602D01*
X25322Y5598D01*
X25321Y5593D01*
X25321Y5589D01*
X25320Y5580D01*
X25319Y5576D01*
X25319Y5572D01*
X25319Y5568D01*
Y5565D01*
X25318Y5562D01*
Y5560D01*
Y5559D01*
Y5559D01*
Y5559D01*
Y5552D01*
X25319Y5545D01*
X25319Y5539D01*
X25320Y5534D01*
X25321Y5529D01*
X25321Y5525D01*
X25322Y5521D01*
X25323Y5518D01*
X25324Y5515D01*
X25325Y5513D01*
X25326Y5510D01*
X25327Y5509D01*
X25327Y5508D01*
X25327Y5507D01*
X25328Y5507D01*
Y5506D01*
X25330Y5504D01*
X25332Y5502D01*
X25333Y5500D01*
X25335Y5499D01*
X25339Y5497D01*
X25343Y5495D01*
X25346Y5494D01*
X25348Y5494D01*
X25349Y5493D01*
X25351D01*
X25353Y5494D01*
X25355Y5494D01*
X25360Y5495D01*
X25364Y5498D01*
X25367Y5500D01*
X25370Y5502D01*
X25372Y5504D01*
X25373Y5506D01*
X25373Y5506D01*
Y5506D01*
X25375Y5509D01*
X25376Y5512D01*
X25378Y5516D01*
X25379Y5520D01*
X25380Y5524D01*
X25380Y5529D01*
X25382Y5538D01*
X25382Y5542D01*
X25382Y5546D01*
X25382Y5549D01*
Y5552D01*
X25383Y5555D01*
Y5557D01*
Y5558D01*
Y5559D01*
X25382Y5566D01*
X25382Y5572D01*
X25382Y5578D01*
X25381Y5584D01*
X25380Y5589D01*
X25379Y5593D01*
X25379Y5597D01*
X25378Y5601D01*
X25377Y5604D01*
X25376Y5606D01*
X25375Y5608D01*
X25374Y5610D01*
X25374Y5611D01*
X25373Y5612D01*
X25373Y5613D01*
Y5613D01*
X25371Y5615D01*
X25370Y5617D01*
X25368Y5618D01*
X25366Y5620D01*
X25362Y5622D01*
X25359Y5623D01*
X25356Y5624D01*
X25353Y5624D01*
X25352Y5624D01*
D02*
G37*
G36*
X25659Y5622D02*
X25608D01*
X25602Y5622D01*
X25597Y5621D01*
X25592Y5620D01*
X25589Y5618D01*
X25586Y5617D01*
X25584Y5616D01*
X25583Y5615D01*
X25582Y5615D01*
X25580Y5612D01*
X25577Y5609D01*
X25576Y5605D01*
X25575Y5603D01*
X25574Y5600D01*
X25574Y5598D01*
X25574Y5596D01*
Y5596D01*
Y5596D01*
X25574Y5593D01*
X25575Y5590D01*
X25575Y5588D01*
X25576Y5586D01*
X25577Y5584D01*
X25578Y5583D01*
X25578Y5582D01*
X25578Y5582D01*
X25580Y5579D01*
X25582Y5577D01*
X25584Y5576D01*
X25586Y5574D01*
X25588Y5573D01*
X25589Y5573D01*
X25590Y5572D01*
X25591Y5572D01*
X25594Y5571D01*
X25598Y5570D01*
X25601Y5570D01*
X25605Y5570D01*
X25608Y5569D01*
X25611Y5569D01*
X25659D01*
Y5622D01*
D02*
G37*
G36*
X5254Y25178D02*
Y25106D01*
X5304D01*
X5254Y25178D01*
D02*
G37*
G36*
X5328Y25378D02*
Y25306D01*
X5378D01*
X5328Y25378D01*
D02*
G37*
%LPD*%
D37*
X9150Y2150D02*
X10950D01*
X9150Y3950D02*
X10950Y3950D01*
X5450Y2150D02*
X7250D01*
X5450Y3950D02*
X7250Y3950D01*
X12800Y2150D02*
X14600D01*
X12800Y3950D02*
X14600Y3950D01*
D44*
X4800Y24600D02*
X4850D01*
X4650D02*
X4700D01*
Y24450D02*
Y24750D01*
X4800Y24450D02*
Y24750D01*
D45*
X5540Y24260D02*
Y24940D01*
X4990D02*
X5540D01*
X4990Y24260D02*
X5540D01*
X3960Y24940D02*
X4510D01*
X3960Y24260D02*
X4510D01*
X3960D02*
Y24940D01*
X4310Y18060D02*
X4990D01*
Y18610D01*
X4310Y18060D02*
Y18610D01*
X4990Y18540D02*
Y19640D01*
X4310Y18610D02*
Y19640D01*
X4990D01*
X25460Y6360D02*
X26140D01*
Y6910D01*
X25460Y6360D02*
Y6910D01*
X26140Y6840D02*
Y7940D01*
X25460Y6910D02*
Y7940D01*
X26140D01*
X25640Y4560D02*
Y5240D01*
X25090D02*
X25640D01*
X25090Y4560D02*
X25640D01*
X24060Y5240D02*
X25160D01*
X24060Y4560D02*
X25090D01*
X24060D02*
Y5240D01*
M02*
