M48
;Layer_Color=9474304
;FILE_FORMAT=2:5
INCH,LZ
;TYPE=PLATED
T1F00S00C0.01200
T2F00S00C0.03000
T3F00S00C0.03150
T4F00S00C0.03500
T5F00S00C0.03543
T6F00S00C0.03937
T7F00S00C0.05906
T8F00S00C0.12500
%
T01
X0258Y01055
X025Y00925
Y0073
X0248Y0066
X0241Y00535
X024425Y003125
X02375Y0111
T02
X02115Y0049
Y0099
T03
X0126Y0059
Y0069
Y0079
Y0089
Y0099
Y0109
Y0119
Y0129
Y0139
Y0149
X0066
Y0139
Y0129
Y0119
Y0109
Y0099
Y0089
Y0079
Y0069
Y0059
X0045Y0064
Y0084
X0066Y0159
Y0169
Y0179
Y0189
Y0199
Y0209
Y0219
Y0229
Y0239
Y0249
X0044Y021
X0034157
X0021843Y0202
X0012
X0011579Y02225
X0021421
X0126Y0219
Y0209
Y0199
Y0189
Y0179
Y0169
Y0159
Y0229
Y0239
Y0249
X0223Y02245
Y02145
Y02045
Y01945
Y01845
Y01745
X0263
Y01845
Y01945
Y02045
Y02145
Y02245
T04
X00285Y0054
Y0064
Y0083
Y0093
T05
X0267Y0047
X0277
X0278Y0065
X0268
X02665Y00825
X02765
X02905Y0082
Y0092
X02775Y00995
X02675
X02905Y007
Y006
X02315Y0064
Y0074
Y0084
Y0094
Y0104
X02115Y0089
Y0079
Y0069
Y0059
Y0039
X02315Y0044
Y0054
Y0034
X0034343Y0246626
Y02545
Y0262374
X0014658
Y02545
Y0246626
X0144294Y0247406
Y0233906
Y0220406
Y0206906
Y0193405
Y0179905
X0144794Y0166405
Y0152406
X0194006
Y0166405
X0193506Y0179905
Y0193405
Y0206906
Y0220406
Y0233906
Y0247406
T06
X0113886Y0021642
X0123614
Y0039358
X0113886
X0150386
Y0021642
X0144Y0059
Y0069
Y0079
Y0089
X0139Y0134
X0149
X0159
X0169
X00495Y0139
Y0149
Y0127
Y0117
Y0107
X0050114Y0039358
Y0021642
X0076886
X0087114
Y0039358
X0076886
X00495Y0159
Y0169
X0051858Y02315
X0043
X0034142
X0046Y0276
X0056
X00695
X00795
X0092
X0102
X0112
X0122
X01345
X01445
X01545
X01645
X01765
X01865
X01965
X02065
T07
X01855Y0033
Y0106
T08
X02845Y00195
X0019Y002
X002Y02965
X0282
M30
