G04 Layer_Physical_Order=1*
G04 Layer_Color=255*
%FSLAX24Y24*%
%MOIN*%
G70*
G01*
G75*
G04:AMPARAMS|DCode=10|XSize=55mil|YSize=50mil|CornerRadius=0mil|HoleSize=0mil|Usage=FLASHONLY|Rotation=180.000|XOffset=0mil|YOffset=0mil|HoleType=Round|Shape=Octagon|*
%AMOCTAGOND10*
4,1,8,-0.0275,0.0125,-0.0275,-0.0125,-0.0150,-0.0250,0.0150,-0.0250,0.0275,-0.0125,0.0275,0.0125,0.0150,0.0250,-0.0150,0.0250,-0.0275,0.0125,0.0*
%
%ADD10OCTAGOND10*%

%ADD11R,0.0550X0.0500*%
%ADD12R,0.0500X0.0500*%
%ADD13C,0.0300*%
%ADD14C,0.0500*%
%ADD15O,0.0551X0.0787*%
%ADD16R,0.0551X0.0787*%
%ADD17C,0.0591*%
%ADD18C,0.0600*%
%ADD19C,0.1181*%
%ADD20R,0.0591X0.0591*%
%ADD21C,0.0620*%
%ADD22C,0.0800*%
%ADD23C,0.0669*%
%ADD24R,0.0669X0.0669*%
%ADD25C,0.2000*%
%ADD26R,0.0669X0.0669*%
%ADD27C,0.0689*%
%ADD28R,0.0630X0.0630*%
%ADD29C,0.0630*%
%ADD30O,0.0787X0.0551*%
%ADD31R,0.0787X0.0551*%
%ADD32C,0.0984*%
%ADD33C,0.0748*%
%ADD34R,0.0748X0.0748*%
%ADD35C,0.0240*%
D10*
X24425Y10150D02*
D03*
Y9250D02*
D03*
X24465Y8350D02*
D03*
Y7500D02*
D03*
X25775Y6650D02*
D03*
Y5750D02*
D03*
Y4850D02*
D03*
Y3850D02*
D03*
D11*
Y10150D02*
D03*
Y9250D02*
D03*
X25815Y8350D02*
D03*
Y7500D02*
D03*
X24425Y6650D02*
D03*
Y5750D02*
D03*
Y4850D02*
D03*
Y3850D02*
D03*
D12*
X4400Y24550D02*
D03*
X4400Y25450D02*
D03*
D13*
X15400Y11900D02*
X16900Y13400D01*
X12600Y11900D02*
X15400D01*
X15200Y12700D02*
X15900Y13400D01*
X12600Y12900D02*
X12800Y12700D01*
X15200D01*
X13900Y13400D02*
Y14600D01*
X12600Y15900D02*
X13900Y14600D01*
X28044Y7300D02*
X29050Y8306D01*
X24750Y7500D02*
X25250Y7000D01*
X11200Y25600D02*
X23150D01*
X7500Y21900D02*
X11200Y25600D01*
X23150D02*
X26300Y22450D01*
X25350Y18400D02*
Y21700D01*
X22900Y24150D02*
X25350Y21700D01*
X20110Y24150D02*
X22900D01*
X19351Y23391D02*
X20110Y24150D01*
X28463Y6500D02*
X28850Y6113D01*
X27800Y6500D02*
X28463D01*
X22050Y19450D02*
X22300D01*
X19459Y22041D02*
X22050Y19450D01*
X19351Y22041D02*
X19459D01*
X5000Y7900D02*
X6600D01*
X4500Y8400D02*
X5000Y7900D01*
X29050Y9200D02*
Y10250D01*
Y9094D02*
Y9200D01*
X24425Y9250D02*
X25000D01*
X24425Y11100D02*
X28200D01*
X21850Y2650D02*
X22600Y3400D01*
X20550Y2650D02*
X21850D01*
X21550Y3050D02*
X22000Y3500D01*
X20800Y3050D02*
X21550D01*
X16950Y6900D02*
X20800Y3050D01*
X22600Y3400D02*
Y4850D01*
X23150Y5400D01*
X22000Y3500D02*
Y5250D01*
X23150Y6400D01*
X17300Y5900D02*
X20550Y2650D01*
X14400Y5900D02*
X17300D01*
X14400Y6900D02*
X16950D01*
X27650Y8250D02*
X27750Y8350D01*
Y9950D01*
X26650Y8250D02*
Y9850D01*
X27150Y7300D02*
X28044D01*
X26650Y7800D02*
X27150Y7300D01*
X26650Y7800D02*
Y8250D01*
X24750Y6650D02*
X24800Y6600D01*
X24425Y6650D02*
X24750D01*
X23700Y4400D02*
Y8100D01*
X23150Y4400D02*
X23700D01*
Y8100D02*
X23950Y8350D01*
X24100Y5350D02*
X24425Y5675D01*
Y5750D01*
X25250Y4300D02*
Y7000D01*
X24800Y3850D02*
X25250Y4300D01*
X22350Y11100D02*
X23750D01*
X24425D01*
X28200D02*
X29050Y10250D01*
X24425Y10150D02*
Y11100D01*
X23700Y4400D02*
X24100D01*
X24425Y4725D01*
Y4850D01*
Y6650D02*
Y6775D01*
X24465Y7500D02*
X24750D01*
X23300Y9250D02*
X24425D01*
X23150Y9400D02*
X23300Y9250D01*
X26650Y9850D02*
X26750Y9950D01*
X23950Y8350D02*
X24465D01*
X26700Y4700D02*
X26800Y4800D01*
Y6500D01*
X27700Y6400D02*
X27800Y6500D01*
X27700Y4700D02*
Y6400D01*
X24425Y3125D02*
Y3850D01*
X24800D01*
X21150Y9900D02*
X22350Y11100D01*
X12600Y5900D02*
X14400D01*
X12600Y6900D02*
X14400D01*
X12600Y7900D02*
X14400D01*
X12600Y8900D02*
X14400D01*
X23700Y26700D02*
X27600Y22800D01*
X23400Y26200D02*
X27150Y22450D01*
X18500Y22200D02*
X18901Y22601D01*
X18500Y20191D02*
Y22200D01*
Y20191D02*
X19351Y19341D01*
X18901Y22601D02*
X19583D01*
X22150Y22600D02*
X22300Y22450D01*
X19583Y22600D02*
X22150D01*
X19583Y22601D02*
X19583Y22600D01*
X25350Y18400D02*
X26300Y17450D01*
X23009Y24741D02*
X26300Y21450D01*
X19351Y24741D02*
X23009D01*
X27600Y19750D02*
Y22800D01*
X26300Y18450D02*
X27600Y19750D01*
X27150Y20300D02*
Y22450D01*
X26300Y19450D02*
X27150Y20300D01*
X10700Y26700D02*
X23700D01*
X11000Y26200D02*
X23400D01*
X6600Y21900D02*
X7500D01*
X7700Y22900D02*
X11000Y26200D01*
X7900Y23900D02*
X10700Y26700D01*
X6600Y22900D02*
X7700D01*
X6600Y23900D02*
X7900D01*
X6600Y18900D02*
X8600Y16900D01*
Y4047D02*
Y16900D01*
Y4047D02*
X8711Y3936D01*
X6600Y19900D02*
X9200Y17300D01*
Y7350D02*
Y17300D01*
Y7350D02*
X12361Y4189D01*
Y3936D02*
Y4189D01*
Y3936D02*
X15039D01*
X8711D02*
X11389D01*
X6600Y17900D02*
X7689Y16811D01*
Y3936D02*
Y16811D01*
X5011Y3936D02*
X7689D01*
X5000Y6900D02*
X6600D01*
X4500Y6400D02*
X5000Y6900D01*
X2850Y6400D02*
X4500D01*
X4400Y8300D02*
X4500Y8400D01*
X2850Y8300D02*
X4400D01*
X12820Y16900D02*
X14479Y15241D01*
X12600Y16900D02*
X12820D01*
X13220Y17900D02*
X14479Y16641D01*
X12600Y17900D02*
X13220D01*
X13520Y18900D02*
X14429Y17991D01*
X12600Y18900D02*
X13520D01*
X13870Y19900D02*
X14429Y19341D01*
X12600Y19900D02*
X13870D01*
X14220Y20900D02*
X14429Y20691D01*
X12600Y20900D02*
X14220D01*
X14289Y21900D02*
X14429Y22041D01*
X12600Y21900D02*
X14289D01*
X13939Y22900D02*
X14429Y23391D01*
X12600Y22900D02*
X13939D01*
X13589Y23900D02*
X14429Y24741D01*
X12600Y23900D02*
X13589D01*
D14*
X8303Y26803D02*
X9244Y27545D01*
X25775Y7540D02*
Y9250D01*
X2675Y9475D02*
X3900Y10700D01*
X1950Y8750D02*
X2675Y9475D01*
X1950Y6100D02*
X2900Y5150D01*
X21900Y11800D02*
X28300D01*
X20300Y10200D02*
X21900Y11800D01*
X20300Y5750D02*
Y10200D01*
Y5750D02*
X21150Y4900D01*
X5694Y13950D02*
Y18406D01*
Y11441D02*
Y13950D01*
X4950Y13900D02*
X5644D01*
X5694Y13950D01*
X2675Y9475D02*
X2850Y9300D01*
X3900Y10700D02*
X4950D01*
X3500Y27600D02*
X4600D01*
X2300Y26400D02*
X3500Y27600D01*
X2300Y23200D02*
Y26400D01*
X28500Y3850D02*
X30000Y5350D01*
X25775Y3850D02*
X28500D01*
X25775Y7540D02*
X25815Y7500D01*
X1750Y23150D02*
X2250D01*
X1158Y22558D02*
X1750Y23150D01*
X1158Y22250D02*
Y22558D01*
X2250Y23150D02*
X3414D01*
X2250D02*
X2300Y23200D01*
X4400Y24350D02*
Y24550D01*
X3414Y23364D02*
X4400Y24350D01*
X3414Y23150D02*
Y23364D01*
X12150Y28450D02*
X24000D01*
X11300Y27600D02*
X12200D01*
X11300D02*
X12150Y28450D01*
X11200Y27600D02*
X11300D01*
X5587Y26237D02*
X6950Y27600D01*
X3434Y26237D02*
X5587D01*
X9244Y27545D02*
X9247Y27547D01*
X8244Y26750D02*
X8303Y26803D01*
X7100Y26750D02*
X8244D01*
X10200Y27600D02*
X11200D01*
X9306D02*
X10200D01*
X9247Y27547D02*
X9306Y27600D01*
X4953Y10700D02*
X5694Y11441D01*
X18550Y3300D02*
X19900Y1950D01*
X22500D01*
X25775Y10150D02*
Y10525D01*
X4950Y10700D02*
X4953D01*
X3416Y20684D02*
X5694Y18406D01*
X3416Y20684D02*
Y21000D01*
X4600Y27600D02*
X5600D01*
X22850Y10400D02*
X23150D01*
X22150Y9700D02*
X22850Y10400D01*
X22150Y7900D02*
Y9700D01*
X21150Y6900D02*
X22150Y7900D01*
X22500Y1950D02*
X23150Y2600D01*
Y3400D01*
X6100Y5400D02*
X6600Y5900D01*
X2850Y5400D02*
X6100D01*
X5011Y2164D02*
X7689D01*
X4786D02*
X5011D01*
X2900Y4050D02*
Y5150D01*
Y4050D02*
X4786Y2164D01*
X1950Y6100D02*
Y8750D01*
X28300Y11800D02*
X28450D01*
X28300D02*
Y24150D01*
X30000Y5350D02*
Y10250D01*
X28450Y11800D02*
X30000Y10250D01*
X25775Y9250D02*
Y10150D01*
Y5750D02*
Y6650D01*
Y3850D02*
Y4850D01*
Y5750D01*
X24000Y28450D02*
X28300Y24150D01*
X5800Y25450D02*
X7100Y26750D01*
X12361Y2164D02*
X15039D01*
X11389D02*
X12361D01*
X8711D02*
X11389D01*
X7689D02*
X8711D01*
X4500Y12700D02*
X4950D01*
X3875Y13325D02*
X4500Y12700D01*
X3875Y13325D02*
Y17975D01*
X4950Y16900D01*
X2184Y19666D02*
X3875Y17975D01*
X2184Y19666D02*
Y20200D01*
X2142Y20242D02*
X2184Y20200D01*
X2142Y20242D02*
Y22250D01*
X4400Y21000D02*
X5186Y21786D01*
Y23150D01*
X4300Y23054D02*
Y23150D01*
X3496Y22250D02*
X4300Y23054D01*
X2142Y22250D02*
X3496D01*
X5300Y25450D02*
X5800D01*
X4400D02*
X5300D01*
X5186Y25336D02*
X5300Y25450D01*
X5186Y23150D02*
Y25336D01*
X15450Y27600D02*
X16450D01*
X14450D02*
X15450D01*
X13450D02*
X14450D01*
X6950D02*
X7950D01*
X4400Y25450D02*
X4400Y25450D01*
X3434Y25450D02*
X4400D01*
D15*
X13900Y13400D02*
D03*
X14900D02*
D03*
X15900D02*
D03*
X6950Y27600D02*
D03*
X4600D02*
D03*
X12200D02*
D03*
X11200D02*
D03*
X10200D02*
D03*
X17650D02*
D03*
X18650D02*
D03*
X19650D02*
D03*
X13450D02*
D03*
X14450D02*
D03*
X15450D02*
D03*
D16*
X16900Y13400D02*
D03*
X7950Y27600D02*
D03*
X5600D02*
D03*
X9200D02*
D03*
X20650D02*
D03*
X16450D02*
D03*
D17*
X21150Y5900D02*
D03*
Y6900D02*
D03*
Y7900D02*
D03*
Y8900D02*
D03*
Y3900D02*
D03*
X23150Y10400D02*
D03*
Y9400D02*
D03*
Y8400D02*
D03*
Y7400D02*
D03*
Y6400D02*
D03*
Y5400D02*
D03*
Y4400D02*
D03*
X3434Y25450D02*
D03*
Y26237D02*
D03*
X1466Y24663D02*
D03*
Y25450D02*
D03*
X3434Y24663D02*
D03*
D18*
X21150Y9900D02*
D03*
Y4900D02*
D03*
D19*
X18550Y10600D02*
D03*
Y3300D02*
D03*
D20*
X23150Y3400D02*
D03*
X1466Y26237D02*
D03*
D21*
X19401Y15241D02*
D03*
X14479D02*
D03*
X19401Y16641D02*
D03*
X14479D02*
D03*
X19351Y17991D02*
D03*
X14429D02*
D03*
X19351Y19341D02*
D03*
X14429D02*
D03*
X19351Y20691D02*
D03*
X14429D02*
D03*
X19351Y22041D02*
D03*
X14429D02*
D03*
X19351Y23391D02*
D03*
X14429D02*
D03*
X19351Y24741D02*
D03*
X14429D02*
D03*
D22*
X2850Y8300D02*
D03*
Y9300D02*
D03*
Y6400D02*
D03*
Y5400D02*
D03*
D23*
X12600Y5900D02*
D03*
Y6900D02*
D03*
Y7900D02*
D03*
Y8900D02*
D03*
Y9900D02*
D03*
Y10900D02*
D03*
Y11900D02*
D03*
Y12900D02*
D03*
Y13900D02*
D03*
Y14900D02*
D03*
Y15900D02*
D03*
Y16900D02*
D03*
Y17900D02*
D03*
Y18900D02*
D03*
Y19900D02*
D03*
Y20900D02*
D03*
Y21900D02*
D03*
Y22900D02*
D03*
Y23900D02*
D03*
Y24900D02*
D03*
X6600Y5900D02*
D03*
Y6900D02*
D03*
Y7900D02*
D03*
Y8900D02*
D03*
Y9900D02*
D03*
Y10900D02*
D03*
Y11900D02*
D03*
Y12900D02*
D03*
Y13900D02*
D03*
Y14900D02*
D03*
Y15900D02*
D03*
Y16900D02*
D03*
Y17900D02*
D03*
Y18900D02*
D03*
Y19900D02*
D03*
Y20900D02*
D03*
Y21900D02*
D03*
Y22900D02*
D03*
Y23900D02*
D03*
X29050Y6000D02*
D03*
Y9200D02*
D03*
X26700Y4700D02*
D03*
X27800Y6500D02*
D03*
X26650Y8250D02*
D03*
X27750Y9950D02*
D03*
X26300Y22450D02*
D03*
Y21450D02*
D03*
Y20450D02*
D03*
Y19450D02*
D03*
Y18450D02*
D03*
Y17450D02*
D03*
X22300D02*
D03*
Y18450D02*
D03*
Y19450D02*
D03*
Y20450D02*
D03*
Y21450D02*
D03*
D24*
X6600Y24900D02*
D03*
X27700Y4700D02*
D03*
X26800Y6500D02*
D03*
X27650Y8250D02*
D03*
X26750Y9950D02*
D03*
D25*
X28450Y1950D02*
D03*
X2000Y29650D02*
D03*
X28200D02*
D03*
X1900Y2000D02*
D03*
D26*
X29050Y7000D02*
D03*
Y8200D02*
D03*
X22300Y22450D02*
D03*
D27*
X3414Y23150D02*
D03*
X4300D02*
D03*
X5186D02*
D03*
D28*
X2142Y22250D02*
D03*
X4400Y21000D02*
D03*
X2184Y20200D02*
D03*
D29*
X1158Y22250D02*
D03*
X3416Y21000D02*
D03*
X1200Y20200D02*
D03*
D30*
X4950Y16900D02*
D03*
Y15900D02*
D03*
Y14900D02*
D03*
X14400Y5900D02*
D03*
Y6900D02*
D03*
Y7900D02*
D03*
X4950Y11700D02*
D03*
Y10700D02*
D03*
D31*
Y13900D02*
D03*
X14400Y8900D02*
D03*
X4950Y12700D02*
D03*
D32*
X4500Y6400D02*
D03*
Y8400D02*
D03*
D33*
X8711Y2164D02*
D03*
Y3936D02*
D03*
X11389D02*
D03*
X5011Y2164D02*
D03*
Y3936D02*
D03*
X7689D02*
D03*
X12361Y2164D02*
D03*
Y3936D02*
D03*
X15039D02*
D03*
D34*
X11389Y2164D02*
D03*
X7689D02*
D03*
X15039D02*
D03*
D35*
X25800Y10550D02*
D03*
X25000Y9250D02*
D03*
X24800Y6600D02*
D03*
X24100Y5350D02*
D03*
X25000Y7300D02*
D03*
X23750Y11100D02*
D03*
X24425Y3125D02*
D03*
M02*
