G04 Layer_Color=32896*
%FSLAX24Y24*%
%MOIN*%
G70*
G01*
G75*
%ADD14C,0.0100*%
%ADD46C,0.0080*%
%ADD47C,0.0060*%
%ADD48C,0.0040*%
D14*
X30990Y14150D02*
X32790D01*
X30990Y15950D02*
X32790Y15950D01*
X26880Y14150D02*
X28680D01*
X26880Y15950D02*
X28680Y15950D01*
X22931Y14150D02*
X24731D01*
X22931Y15950D02*
X24731Y15950D01*
D46*
X45630Y20910D02*
Y21590D01*
X45080D02*
X45630D01*
X45080Y20910D02*
X45630D01*
X44050Y21590D02*
X45150D01*
X44050Y20910D02*
X45080D01*
X44050D02*
Y21590D01*
X45590Y19160D02*
Y19840D01*
X45040D02*
X45590D01*
X45040Y19160D02*
X45590D01*
X44010Y19840D02*
X45110D01*
X44010Y19160D02*
X45040D01*
X44010D02*
Y19840D01*
X16060Y39160D02*
Y39840D01*
Y39160D02*
X16610D01*
X16060Y39840D02*
X16610D01*
X17090Y39160D02*
X17640D01*
X17090Y39840D02*
X17640D01*
Y39160D02*
Y39840D01*
D47*
X16750Y39500D02*
X16800D01*
X16900D02*
X16950D01*
X16900Y39350D02*
Y39650D01*
X16800Y39350D02*
Y39650D01*
D48*
X17993Y39678D02*
X18035Y39720D01*
X18118D01*
X18160Y39678D01*
Y39512D01*
X18118Y39470D01*
X18035D01*
X17993Y39512D01*
X17785Y39470D02*
Y39720D01*
X17910Y39595D01*
X17743D01*
X45630Y21870D02*
Y22120D01*
X45505D01*
X45463Y22078D01*
Y21995D01*
X45505Y21953D01*
X45630D01*
X45547D02*
X45463Y21870D01*
X45380D02*
X45297D01*
X45338D01*
Y22120D01*
X45380Y22078D01*
X45172Y21912D02*
X45130Y21870D01*
X45047D01*
X45005Y21912D01*
Y22078D01*
X45047Y22120D01*
X45130D01*
X45172Y22078D01*
Y22037D01*
X45130Y21995D01*
X45005D01*
X45590Y20120D02*
Y20370D01*
X45465D01*
X45423Y20328D01*
Y20245D01*
X45465Y20203D01*
X45590D01*
X45507D02*
X45423Y20120D01*
X45173D02*
X45340D01*
X45173Y20287D01*
Y20328D01*
X45215Y20370D01*
X45298D01*
X45340Y20328D01*
X45090D02*
X45049Y20370D01*
X44965D01*
X44924Y20328D01*
Y20162D01*
X44965Y20120D01*
X45049D01*
X45090Y20162D01*
Y20328D01*
M02*
