G04 Layer_Color=128*
%FSLAX24Y24*%
%MOIN*%
G70*
G01*
G75*
%ADD49C,0.0020*%
D49*
X21243Y21184D02*
X21557D01*
X21400Y21027D02*
Y21342D01*
X21243Y19216D02*
X21557D01*
X21400Y19058D02*
Y19373D01*
X21243Y22000D02*
X21557D01*
X21400Y21843D02*
Y22157D01*
X21243Y23969D02*
X21557D01*
X21400Y23811D02*
Y24126D01*
X20850Y37000D02*
X21165D01*
X21008Y36843D02*
Y37157D01*
X21835Y37000D02*
X22150D01*
X21992Y36843D02*
Y37157D01*
X13303Y39900D02*
X13697D01*
X13500Y39703D02*
Y40097D01*
X13303Y40900D02*
X13697D01*
X13500Y40703D02*
Y41097D01*
X13303Y41900D02*
X13697D01*
X13500Y41703D02*
Y42097D01*
X13303Y42900D02*
X13697D01*
X13500Y42703D02*
Y43097D01*
X32193Y20140D02*
X32587D01*
X32390Y19943D02*
Y20337D01*
X32193Y21140D02*
X32587D01*
X32390Y20943D02*
Y21337D01*
X32193Y22140D02*
X32587D01*
X32390Y21943D02*
Y22337D01*
X32193Y23140D02*
X32587D01*
X32390Y22943D02*
Y23337D01*
X41703Y34000D02*
X42097D01*
X41900Y33803D02*
Y34197D01*
X41703Y33000D02*
X42097D01*
X41900Y32803D02*
Y33197D01*
X41703Y32000D02*
X42097D01*
X41900Y31803D02*
Y32197D01*
X17493Y46680D02*
X17887D01*
X17690Y46483D02*
Y46877D01*
X16493Y46680D02*
X16887D01*
X16690Y46483D02*
Y46877D01*
X21003Y46680D02*
X21397D01*
X21200Y46483D02*
Y46877D01*
X20003Y46680D02*
X20397D01*
X20200Y46483D02*
Y46877D01*
X39623Y20100D02*
X39977D01*
X39800Y19923D02*
Y20277D01*
X39623Y21100D02*
X39977D01*
X39800Y20923D02*
Y21277D01*
X39623Y22100D02*
X39977D01*
X39800Y21923D02*
Y22277D01*
X39623Y23100D02*
X39977D01*
X39800Y22923D02*
Y23277D01*
X39650Y24100D02*
X39950D01*
X39800Y23950D02*
Y24250D01*
X36905Y24800D02*
X37495D01*
X37200Y24505D02*
Y25095D01*
X36905Y17500D02*
X37495D01*
X37200Y17205D02*
Y17795D01*
X39650Y19100D02*
X39950D01*
X39800Y18950D02*
Y19250D01*
X39623Y18100D02*
X39977D01*
X39800Y17923D02*
Y18277D01*
X41623Y24600D02*
X41977D01*
X41800Y24423D02*
Y24777D01*
X41623Y23600D02*
X41977D01*
X41800Y23423D02*
Y23777D01*
X41623Y22600D02*
X41977D01*
X41800Y22423D02*
Y22777D01*
X41623Y21600D02*
X41977D01*
X41800Y21423D02*
Y21777D01*
X41623Y20600D02*
X41977D01*
X41800Y20423D02*
Y20777D01*
X41623Y19600D02*
X41977D01*
X41800Y19423D02*
Y19777D01*
X41623Y18600D02*
X41977D01*
X41800Y18423D02*
Y18777D01*
X41623Y17600D02*
X41977D01*
X41800Y17423D02*
Y17777D01*
X48995Y13500D02*
X50245D01*
X49620Y12875D02*
Y14125D01*
X49423Y27000D02*
X49777D01*
X49600Y26823D02*
Y27177D01*
X48423Y27000D02*
X48777D01*
X48600Y26823D02*
Y27177D01*
X46623Y27000D02*
X46977D01*
X46800Y26823D02*
Y27177D01*
X45623Y27000D02*
X45977D01*
X45800Y26823D02*
Y27177D01*
X37273Y38450D02*
X37628D01*
X37451Y38273D02*
Y38627D01*
X32352Y38450D02*
X32707D01*
X32529Y38273D02*
Y38627D01*
X37273Y37100D02*
X37628D01*
X37451Y36923D02*
Y37277D01*
X32352Y37100D02*
X32707D01*
X32529Y36923D02*
Y37277D01*
X37273Y35750D02*
X37628D01*
X37451Y35573D02*
Y35927D01*
X32352Y35750D02*
X32707D01*
X32529Y35573D02*
Y35927D01*
X37273Y34400D02*
X37628D01*
X37451Y34223D02*
Y34577D01*
X32352Y34400D02*
X32707D01*
X32529Y34223D02*
Y34577D01*
X37273Y33050D02*
X37628D01*
X37451Y32873D02*
Y33227D01*
X32352Y33050D02*
X32707D01*
X32529Y32873D02*
Y33227D01*
X37273Y31700D02*
X37628D01*
X37451Y31523D02*
Y31877D01*
X32352Y31700D02*
X32707D01*
X32529Y31523D02*
Y31877D01*
X37323Y30350D02*
X37678D01*
X37501Y30173D02*
Y30527D01*
X32402Y30350D02*
X32757D01*
X32579Y30173D02*
Y30527D01*
X37323Y28950D02*
X37678D01*
X37501Y28773D02*
Y29127D01*
X32402Y28950D02*
X32757D01*
X32579Y28773D02*
Y29127D01*
X29943Y48700D02*
X30257D01*
X30100Y48543D02*
Y48857D01*
X30943Y48700D02*
X31257D01*
X31100Y48543D02*
Y48857D01*
X31943Y48700D02*
X32257D01*
X32100Y48543D02*
Y48857D01*
X32943Y48700D02*
X33257D01*
X33100Y48543D02*
Y48857D01*
X33943Y48700D02*
X34257D01*
X34100Y48543D02*
Y48857D01*
X34943Y48700D02*
X35257D01*
X35100Y48543D02*
Y48857D01*
X34943Y44700D02*
X35257D01*
X35100Y44543D02*
Y44857D01*
X33943Y44700D02*
X34257D01*
X34100Y44543D02*
Y44857D01*
X32943Y44700D02*
X33257D01*
X33100Y44543D02*
Y44857D01*
X31943Y44700D02*
X32257D01*
X32100Y44543D02*
Y44857D01*
X30943Y44700D02*
X31257D01*
X31100Y44543D02*
Y44857D01*
X29943Y44700D02*
X30257D01*
X30100Y44543D02*
Y44857D01*
X16537Y44370D02*
X16891D01*
X16714Y44193D02*
Y44547D01*
X16537Y45157D02*
X16891D01*
X16714Y44980D02*
Y45335D01*
X14569Y43583D02*
X14923D01*
X14746Y43405D02*
Y43760D01*
X14569Y44370D02*
X14923D01*
X14746Y44193D02*
Y44547D01*
X14569Y45157D02*
X14923D01*
X14746Y44980D02*
Y45335D01*
X16537Y43583D02*
X16891D01*
X16714Y43405D02*
Y43760D01*
X17820Y35215D02*
X18372D01*
X18096Y34939D02*
Y35491D01*
X14828Y35215D02*
X15380D01*
X15104Y34939D02*
Y35491D01*
X22843Y31150D02*
X23237D01*
X23040Y30953D02*
Y31347D01*
X22843Y30150D02*
X23237D01*
X23040Y29953D02*
Y30347D01*
X22843Y29150D02*
X23237D01*
X23040Y28953D02*
Y29347D01*
X22843Y28150D02*
X23237D01*
X23040Y27953D02*
Y28347D01*
X23243Y20700D02*
X23557D01*
X23400Y20543D02*
Y20857D01*
X23243Y22700D02*
X23557D01*
X23400Y22543D02*
Y22857D01*
X30355Y14164D02*
X30748D01*
X30551Y13967D02*
Y14361D01*
X30355Y15936D02*
X30748D01*
X30551Y15739D02*
Y16133D01*
X33032Y15936D02*
X33425D01*
X33229Y15739D02*
Y16133D01*
X33032Y14164D02*
X33425D01*
X33229Y13967D02*
Y14361D01*
X26245Y14164D02*
X26638D01*
X26441Y13967D02*
Y14361D01*
X26245Y15936D02*
X26638D01*
X26441Y15739D02*
Y16133D01*
X28922Y15936D02*
X29315D01*
X29119Y15739D02*
Y16133D01*
X28922Y14164D02*
X29315D01*
X29119Y13967D02*
Y14361D01*
X22296Y14164D02*
X22690D01*
X22493Y13967D02*
Y14361D01*
X22296Y15936D02*
X22690D01*
X22493Y15739D02*
Y16133D01*
X24973Y15936D02*
X25367D01*
X25170Y15739D02*
Y16133D01*
X24973Y14164D02*
X25367D01*
X25170Y13967D02*
Y14361D01*
X16203Y18400D02*
X16597D01*
X16400Y18203D02*
Y18597D01*
X16203Y17400D02*
X16597D01*
X16400Y17203D02*
Y17597D01*
X16203Y16400D02*
X16597D01*
X16400Y16203D02*
Y16597D01*
X16203Y15400D02*
X16597D01*
X16400Y15203D02*
Y15597D01*
X16203Y19800D02*
X16597D01*
X16400Y19603D02*
Y19997D01*
X16203Y20800D02*
X16597D01*
X16400Y20603D02*
Y20997D01*
X16203Y21800D02*
X16597D01*
X16400Y21603D02*
Y21997D01*
X16203Y22800D02*
X16597D01*
X16400Y22603D02*
Y22997D01*
X13265Y13270D02*
X14515D01*
X13890Y12645D02*
Y13895D01*
X14832Y28300D02*
X15383D01*
X15108Y28024D02*
Y28576D01*
X17824Y28300D02*
X18376D01*
X18100Y28024D02*
Y28576D01*
X13565Y48800D02*
X14815D01*
X14190Y48175D02*
Y49425D01*
X30833Y20150D02*
X31147D01*
X30990Y19993D02*
Y20307D01*
X30833Y21150D02*
X31147D01*
X30990Y20993D02*
Y21307D01*
X30833Y22150D02*
X31147D01*
X30990Y21993D02*
Y22307D01*
X30833Y23150D02*
X31147D01*
X30990Y22993D02*
Y23307D01*
X30833Y24150D02*
X31147D01*
X30990Y23993D02*
Y24307D01*
X30833Y25150D02*
X31147D01*
X30990Y24993D02*
Y25307D01*
X30833Y26150D02*
X31147D01*
X30990Y25993D02*
Y26307D01*
X30833Y27150D02*
X31147D01*
X30990Y26993D02*
Y27307D01*
X30833Y28150D02*
X31147D01*
X30990Y27993D02*
Y28307D01*
X30833Y29150D02*
X31147D01*
X30990Y28993D02*
Y29307D01*
X30833Y30150D02*
X31147D01*
X30990Y29993D02*
Y30307D01*
X30833Y31150D02*
X31147D01*
X30990Y30993D02*
Y31307D01*
X30833Y32150D02*
X31147D01*
X30990Y31993D02*
Y32307D01*
X30833Y33150D02*
X31147D01*
X30990Y32993D02*
Y33307D01*
X30833Y34150D02*
X31147D01*
X30990Y33993D02*
Y34307D01*
X30833Y35150D02*
X31147D01*
X30990Y34993D02*
Y35307D01*
X30833Y36150D02*
X31147D01*
X30990Y35993D02*
Y36307D01*
X30833Y37150D02*
X31147D01*
X30990Y36993D02*
Y37307D01*
X30833Y38150D02*
X31147D01*
X30990Y37993D02*
Y38307D01*
X30833Y39150D02*
X31147D01*
X30990Y38993D02*
Y39307D01*
X24833Y20150D02*
X25147D01*
X24990Y19993D02*
Y20307D01*
X24833Y21150D02*
X25147D01*
X24990Y20993D02*
Y21307D01*
X24833Y22150D02*
X25147D01*
X24990Y21993D02*
Y22307D01*
X24833Y23150D02*
X25147D01*
X24990Y22993D02*
Y23307D01*
X24833Y24150D02*
X25147D01*
X24990Y23993D02*
Y24307D01*
X24833Y25150D02*
X25147D01*
X24990Y24993D02*
Y25307D01*
X24833Y26150D02*
X25147D01*
X24990Y25993D02*
Y26307D01*
X24833Y27150D02*
X25147D01*
X24990Y26993D02*
Y27307D01*
X24833Y28150D02*
X25147D01*
X24990Y27993D02*
Y28307D01*
X24833Y29150D02*
X25147D01*
X24990Y28993D02*
Y29307D01*
X24833Y30150D02*
X25147D01*
X24990Y29993D02*
Y30307D01*
X24833Y31150D02*
X25147D01*
X24990Y30993D02*
Y31307D01*
X24833Y32150D02*
X25147D01*
X24990Y31993D02*
Y32307D01*
X24833Y33150D02*
X25147D01*
X24990Y32993D02*
Y33307D01*
X24833Y34150D02*
X25147D01*
X24990Y33993D02*
Y34307D01*
X24833Y35150D02*
X25147D01*
X24990Y34993D02*
Y35307D01*
X24833Y36150D02*
X25147D01*
X24990Y35993D02*
Y36307D01*
X24833Y37150D02*
X25147D01*
X24990Y36993D02*
Y37307D01*
X24833Y38150D02*
X25147D01*
X24990Y37993D02*
Y38307D01*
X24833Y39150D02*
X25147D01*
X24990Y38993D02*
Y39307D01*
X47663Y18400D02*
X48017D01*
X47840Y18223D02*
Y18577D01*
X46663Y18400D02*
X47017D01*
X46840Y18223D02*
Y18577D01*
X46663Y20050D02*
X47017D01*
X46840Y19873D02*
Y20227D01*
X47663Y20050D02*
X48017D01*
X47840Y19873D02*
Y20227D01*
X47663Y21750D02*
X48017D01*
X47840Y21573D02*
Y21927D01*
X46663Y21750D02*
X47017D01*
X46840Y21573D02*
Y21927D01*
X46663Y23750D02*
X47017D01*
X46840Y23573D02*
Y23927D01*
X47663Y23750D02*
X48017D01*
X47840Y23573D02*
Y23927D01*
X48735Y48800D02*
X49985D01*
X49360Y48175D02*
Y49425D01*
X17089Y40600D02*
X17483D01*
X17286Y40403D02*
Y40797D01*
X16203Y40600D02*
X16597D01*
X16400Y40403D02*
Y40797D01*
X15317Y40600D02*
X15711D01*
X15514Y40403D02*
Y40797D01*
X34160Y35400D02*
X34440D01*
X34300Y35260D02*
Y35540D01*
X34160Y34600D02*
X34440D01*
X34300Y34460D02*
Y34740D01*
X42460Y25500D02*
X42740D01*
X42600Y25360D02*
Y25640D01*
X43660Y21250D02*
X43940D01*
X43800Y21110D02*
Y21390D01*
X43760Y17200D02*
X44040D01*
X43900Y17060D02*
Y17340D01*
X43660Y20400D02*
X43940D01*
X43800Y20260D02*
Y20540D01*
X43660Y19500D02*
X43940D01*
X43800Y19360D02*
Y19640D01*
X43660Y23000D02*
X43940D01*
X43800Y22860D02*
Y23140D01*
X38760Y43100D02*
X39040D01*
X38900Y42960D02*
Y43240D01*
X38760Y40800D02*
X39040D01*
X38900Y40660D02*
Y40940D01*
X37360Y43300D02*
X37640D01*
X37500Y43160D02*
Y43440D01*
X45535Y24545D02*
X45815D01*
X45675Y24405D02*
Y24685D01*
X28770Y41850D02*
X29050D01*
X28910Y41710D02*
Y41990D01*
X23720Y35400D02*
X24000D01*
X23860Y35260D02*
Y35540D01*
M02*
